<svg xmlns="http://www.w3.org/2000/svg" xmlns:xlink="http://www.w3.org/1999/xlink" width="615" zoomAndPan="magnify" viewBox="0 0 461.25 461.249984" height="615" preserveAspectRatio="xMidYMid meet" version="1.0"><path fill="#3e87ff" d="M 445.6875 229.875 C 445.6875 349.066406 349.066406 445.6875 229.875 445.6875 C 110.6875 445.6875 14.0625 349.066406 14.0625 229.875 C 14.0625 110.6875 110.6875 14.0625 229.875 14.0625 C 349.066406 14.0625 445.6875 110.6875 445.6875 229.875 Z M 445.6875 229.875 " fill-opacity="1" fill-rule="nonzero"/><path fill="#fffeff" d="M 414.640625 229.875 C 414.640625 230.71875 414.636719 231.558594 414.621094 232.394531 C 413.304688 331.183594 334.453125 411.257812 236.152344 414.535156 C 234.070312 414.605469 231.976562 414.640625 229.875 414.640625 C 228.085938 414.640625 226.300781 414.617188 224.523438 414.566406 C 125.789062 411.753906 46.453125 331.496094 45.132812 232.394531 C 45.117188 231.558594 45.109375 230.71875 45.109375 229.875 C 45.109375 226.824219 45.183594 223.785156 45.332031 220.765625 C 49.984375 124.878906 127.738281 48.179688 224.0625 45.203125 C 225.988281 45.140625 227.929688 45.109375 229.875 45.109375 C 231.820312 45.109375 233.757812 45.140625 235.691406 45.203125 C 332.011719 48.179688 409.765625 124.878906 414.421875 220.765625 C 414.570312 223.785156 414.640625 226.824219 414.640625 229.875 Z M 414.640625 229.875 " fill-opacity="1" fill-rule="nonzero"/><path fill="#15130d" d="M 235.691406 45.203125 C 235.691406 45.203125 235.691406 77.898438 235.691406 77.898438 C 235.691406 81.109375 233.085938 83.710938 229.875 83.710938 C 226.667969 83.710938 224.0625 81.109375 224.0625 77.898438 C 224.0625 77.898438 224.0625 45.203125 224.0625 45.203125 C 225.988281 45.140625 227.929688 45.109375 229.875 45.109375 C 231.820312 45.109375 233.757812 45.140625 235.691406 45.203125 Z M 235.691406 45.203125 " fill-opacity="1" fill-rule="nonzero"/><path fill="#15130d" d="M 236.152344 381.855469 C 236.152344 381.855469 236.152344 414.535156 236.152344 414.535156 C 234.070312 414.605469 231.976562 414.640625 229.875 414.640625 C 228.085938 414.640625 226.300781 414.617188 224.523438 414.566406 C 224.523438 414.566406 224.523438 381.855469 224.523438 381.855469 C 224.523438 378.644531 227.128906 376.042969 230.339844 376.042969 C 233.550781 376.042969 236.152344 378.644531 236.152344 381.855469 Z M 236.152344 381.855469 " fill-opacity="1" fill-rule="nonzero"/><path fill="#15130d" d="M 414.640625 229.875 C 414.640625 230.71875 414.636719 231.558594 414.621094 232.394531 C 414.621094 232.394531 381.855469 232.394531 381.855469 232.394531 C 378.644531 232.394531 376.042969 229.792969 376.042969 226.582031 C 376.042969 223.371094 378.644531 220.765625 381.855469 220.765625 C 381.855469 220.765625 414.421875 220.765625 414.421875 220.765625 C 414.570312 223.785156 414.640625 226.824219 414.640625 229.875 Z M 414.640625 229.875 " fill-opacity="1" fill-rule="nonzero"/><path fill="#15130d" d="M 83.710938 226.582031 C 83.710938 229.792969 81.109375 232.394531 77.898438 232.394531 C 77.898438 232.394531 45.132812 232.394531 45.132812 232.394531 C 45.117188 231.558594 45.109375 230.71875 45.109375 229.875 C 45.109375 226.824219 45.183594 223.785156 45.332031 220.765625 C 45.332031 220.765625 77.898438 220.765625 77.898438 220.765625 C 81.109375 220.765625 83.710938 223.371094 83.710938 226.582031 Z M 83.710938 226.582031 " fill-opacity="1" fill-rule="nonzero"/><path fill="#15130d" d="M 253.71875 232.394531 C 253.71875 243.40625 244.792969 252.332031 233.78125 252.332031 C 222.769531 252.332031 213.84375 243.40625 213.84375 232.394531 C 213.84375 221.382812 222.769531 212.457031 233.78125 212.457031 C 244.792969 212.457031 253.71875 221.382812 253.71875 232.394531 Z M 253.71875 232.394531 " fill-opacity="0.102" fill-rule="nonzero"/><path fill="#15130d" d="M 188.339844 374.675781 C 186.929688 374.265625 186.117188 372.789062 186.527344 371.378906 C 186.527344 371.378906 227.074219 231.925781 227.074219 231.925781 C 227.242188 231.347656 227.847656 231.011719 228.425781 231.179688 C 228.425781 231.179688 231.4375 232.054688 231.4375 232.054688 C 232.015625 232.226562 232.347656 232.832031 232.179688 233.410156 C 232.179688 233.410156 191.632812 372.863281 191.632812 372.863281 C 191.226562 374.273438 189.75 375.085938 188.339844 374.675781 Z M 188.339844 374.675781 " fill-opacity="1" fill-rule="nonzero"/><path fill="#15130d" d="M 244.835938 226.582031 C 244.835938 226.582031 227.402344 223.066406 227.402344 223.066406 C 227.402344 223.066406 247.179688 124.992188 247.179688 124.992188 C 248.148438 120.175781 252.839844 117.0625 257.652344 118.03125 C 262.464844 119.003906 265.582031 123.691406 264.609375 128.503906 C 264.609375 128.503906 244.835938 226.582031 244.835938 226.582031 Z M 244.835938 226.582031 " fill-opacity="0.102" fill-rule="nonzero"/><path fill="#3e87ff" d="M 243.167969 223.21875 C 243.167969 223.21875 225.738281 219.703125 225.738281 219.703125 C 225.738281 219.703125 245.511719 121.628906 245.511719 121.628906 C 246.484375 116.8125 251.171875 113.699219 255.984375 114.671875 C 260.796875 115.640625 263.914062 120.328125 262.945312 125.144531 C 262.945312 125.144531 243.167969 223.21875 243.167969 223.21875 Z M 243.167969 223.21875 " fill-opacity="1" fill-rule="nonzero"/><path fill="#15130d" d="M 173.011719 184.429688 C 175.75 180.351562 181.273438 179.265625 185.351562 182.003906 C 185.351562 182.003906 232.101562 213.390625 232.101562 213.390625 C 232.101562 213.390625 222.191406 228.152344 222.191406 228.152344 C 222.191406 228.152344 175.4375 196.765625 175.4375 196.765625 C 171.363281 194.03125 170.277344 188.507812 173.011719 184.429688 Z M 173.011719 184.429688 " fill-opacity="0.102" fill-rule="nonzero"/><path fill="#3e87ff" d="M 170.785156 186.152344 C 173.523438 182.074219 179.046875 180.988281 183.125 183.726562 C 183.125 183.726562 229.875 215.113281 229.875 215.113281 C 229.875 215.113281 219.964844 229.875 219.964844 229.875 C 219.964844 229.875 173.210938 198.488281 173.210938 198.488281 C 169.136719 195.753906 168.050781 190.230469 170.785156 186.152344 Z M 170.785156 186.152344 " fill-opacity="1" fill-rule="nonzero"/><path fill="#15130d" d="M 249.8125 229.875 C 249.8125 240.886719 240.886719 249.8125 229.875 249.8125 C 218.863281 249.8125 209.9375 240.886719 209.9375 229.875 C 209.9375 218.863281 218.863281 209.9375 229.875 209.9375 C 240.886719 209.9375 249.8125 218.863281 249.8125 229.875 Z M 249.8125 229.875 " fill-opacity="1" fill-rule="nonzero"/></svg>