<svg width="225" height="162" viewBox="0 0 225 162" fill="none" xmlns="http://www.w3.org/2000/svg">
<path fill-rule="evenodd" clip-rule="evenodd" d="M185.609 24.8229C184.743 23.9532 183.757 23.2008 182.669 22.5952C183.104 23.3636 183.467 24.1756 183.753 25.0194C184.368 24.934 184.986 24.8685 185.609 24.8229ZM169.946 15.8547C168.171 13.4523 166.102 11.2763 163.779 9.39014C165.471 11.4768 166.93 13.7541 168.129 16.1763C168.725 16.0254 169.331 15.9182 169.946 15.8547ZM41.8205 130.696C45.9998 135.927 51.7298 139.892 58.5279 141.735C65.6496 143.665 72.8369 142.964 79.1406 140.212C80.8719 143.119 83.6356 145.362 87.0605 146.291C90.6541 147.266 94.2874 146.601 97.2358 144.747C102.356 150.852 109.226 155.472 117.316 157.666C131.25 161.442 145.378 157.09 155.095 147.441C156.413 148.453 157.934 149.228 159.618 149.684C165.348 151.237 171.179 148.628 174.171 143.661C174.715 143.839 175.267 144.004 175.827 144.157C194.319 149.168 213.213 137.583 218.017 118.289C220.098 109.93 219.193 101.496 215.996 94.2096C218.367 92.3949 220.175 89.7483 220.974 86.5498C222.006 82.3943 221.115 78.1872 218.877 74.9608C219.907 72.9159 220.729 70.718 221.309 68.3871C224.406 55.9444 219.733 43.2992 210.441 36.0465C216.169 43.3767 218.591 53.3554 216.137 63.2091C215.557 65.54 214.733 67.7379 213.705 69.7848C215.943 73.0092 216.834 77.2163 215.802 81.3718C215.003 84.5703 213.195 87.2169 210.826 89.0336C214.021 96.3181 214.924 104.752 212.845 113.111C208.041 132.405 189.147 143.99 170.655 138.979C170.095 138.826 169.545 138.661 168.999 138.483C166.007 143.45 160.176 146.059 154.446 144.506C152.764 144.05 151.243 143.275 149.923 142.263C140.206 151.912 126.08 156.264 112.144 152.488C104.054 150.294 97.1842 145.674 92.0637 139.569C89.1154 141.423 85.482 142.088 81.8884 141.113C78.4636 140.184 75.6998 137.941 73.9686 135.034C67.6648 137.786 60.4776 138.487 53.3558 136.557C49.0375 135.385 45.1521 133.36 41.8205 130.696ZM24.4699 114.443C26.1892 117.487 29.0165 119.847 32.5505 120.804C32.9079 120.902 33.2673 120.983 33.6227 121.047C32.7213 119.456 31.941 117.787 31.2977 116.059C30.0112 116.119 28.6929 115.982 27.3785 115.626C26.3441 115.346 25.3732 114.945 24.4699 114.443ZM9.35083 96.0977C11.6321 98.9528 14.3759 101.429 17.501 103.392C17.4355 102.554 17.4395 101.701 17.5248 100.845C14.5348 99.6616 11.7949 98.0514 9.35083 96.0977Z" fill="#CEE5FF"/>
<path fill-rule="evenodd" clip-rule="evenodd" d="M93.926 10.3491H93.922L93.8525 10.3292C91.4085 9.66805 88.9048 9.24516 86.3794 9.0764C83.9313 8.91161 81.4694 8.99102 79.0373 9.30472C66.7455 10.8871 56.0142 18.3642 49.8276 29.0716L48.6145 31.1702L46.2142 30.8486C45.7238 30.7831 45.2294 30.7513 44.735 30.7513C43.923 30.7533 43.1109 30.8426 42.3188 31.0233C38.0044 32.016 34.7503 35.4588 33.6861 39.7294L33.027 42.3541L30.571 42.6619C29.2288 42.8326 27.8986 43.0947 26.5922 43.4481C24.9046 43.9028 23.2587 44.5143 21.6763 45.2588C13.0476 49.325 6.9166 57.1396 4.61748 66.3619L4.61549 66.3659L4.59564 66.4453C4.05957 68.6193 3.7419 70.847 3.65057 73.0846C3.55924 75.2765 3.6883 77.4744 4.03177 79.6405C5.70748 90.2049 12.446 99.5384 22.2858 103.883L24.4817 104.851L24.4459 107.254C24.438 107.712 24.4579 108.173 24.5015 108.632C24.579 109.42 24.7279 110.2 24.9522 110.961C26.0998 114.854 29.0779 117.983 33.025 119.053L33.0567 119.061C33.2116 119.103 33.3704 119.139 33.5273 119.172C33.6841 119.206 33.845 119.244 34.0038 119.274C34.4644 119.355 34.931 119.405 35.3995 119.424L37.7066 119.524L38.5881 121.662C38.9693 122.587 39.3962 123.495 39.8588 124.382C40.4961 125.597 41.2109 126.773 41.9951 127.898C46.1149 133.797 52.0414 138.095 58.9963 139.98L59.0222 139.988C59.9494 140.238 60.8924 140.444 61.8395 140.603C62.7726 140.76 63.7117 140.873 64.6548 140.939C68.8997 141.238 73.1882 140.583 77.161 139.06L79.6964 138.087L81.3443 140.26L81.3781 140.299L81.4495 140.395C81.6759 140.694 81.9161 140.982 82.1703 141.258C83.6156 142.835 85.4442 143.966 87.5091 144.532L87.513 144.534L87.5468 144.542C87.9717 144.657 88.4065 144.747 88.8433 144.81C89.2682 144.872 89.697 144.905 90.1279 144.915C91.8909 144.961 93.652 144.564 95.2344 143.786L97.6923 142.577L99.5229 144.618C99.9319 145.07 100.351 145.515 100.78 145.95C101.528 146.708 102.312 147.435 103.122 148.13C107.387 151.789 112.373 154.445 117.801 155.917H117.803C119.631 156.413 121.496 156.766 123.378 156.977C125.208 157.181 127.055 157.247 128.895 157.171C137.828 156.81 146.276 153.163 152.826 147.101L154.785 145.287L157.164 146.665L157.198 146.684C158.101 147.236 159.078 147.657 160.102 147.935H160.104C160.779 148.118 161.468 148.237 162.167 148.287C162.84 148.336 163.517 148.322 164.188 148.245C167.323 147.886 170.145 146.174 172.011 143.635L173.502 141.606L175.922 142.299C176.051 142.336 176.178 142.372 176.303 142.406C176.512 142.461 176.722 142.515 176.933 142.567C185.218 144.633 193.813 143.254 201.087 138.8C208.535 134.242 213.802 126.963 216.075 118.551C216.137 118.321 216.197 118.09 216.254 117.858L216.256 117.846L216.284 117.733C216.548 116.665 216.764 115.583 216.927 114.493C217.094 113.389 217.205 112.277 217.267 111.161C217.551 106.025 216.711 100.855 214.807 96.0738L213.882 93.7449L215.73 92.0553L215.984 91.8191C216.159 91.6443 216.33 91.4637 216.494 91.279C217.813 89.8039 218.732 88.0309 219.212 86.113H219.21L219.23 86.0335C219.347 85.5531 219.439 85.0646 219.498 84.5723C219.56 84.0739 219.584 83.5676 219.584 83.0633C219.584 80.8277 218.984 78.616 217.838 76.6941L216.87 75.07L217.626 73.3923L217.65 73.3347L217.696 73.2335C217.809 72.9853 217.92 72.7351 218.029 72.485C218.654 71.0158 219.163 69.4989 219.548 67.9503L219.568 67.8689C220.086 65.7663 220.378 63.6101 220.435 61.442C220.493 59.3256 220.326 57.2032 219.935 55.1204C217.938 44.4627 210.296 35.5342 199.733 32.6732L199.706 32.6653C199.211 32.5322 198.713 32.4151 198.213 32.3099C197.718 32.2066 197.22 32.1133 196.721 32.0379C194.639 31.7222 192.524 31.6606 190.426 31.8532L187.849 32.0875L186.792 29.7209C186.727 29.5739 186.659 29.429 186.59 29.2861C186.354 28.8056 186.086 28.343 185.79 27.9002C184.259 25.6051 182.011 23.9195 179.353 23.1809L179.311 23.1729L179.109 23.1213L178.658 23.0121C178.541 22.9883 178.424 22.9645 178.307 22.9446C178.049 22.8989 177.788 22.8652 177.526 22.8394C176.623 22.7441 175.712 22.7659 174.814 22.9009L172.303 23.2762L171.094 21.0406C170.675 20.2643 170.226 19.5019 169.749 18.7593C169.045 17.6673 168.282 16.6131 167.46 15.6085C163.146 10.3292 157.394 6.52314 150.812 4.73228H150.806L150.775 4.72236C149.375 4.34314 147.949 4.06319 146.512 3.87855C145.11 3.69986 143.699 3.61449 142.285 3.6264C135.55 3.68001 129.052 5.92354 123.642 9.91623L121.569 11.447L119.447 9.98771C119.399 9.95594 119.353 9.92418 119.306 9.89241L119.248 9.86064L119.137 9.78917C118.192 9.18163 117.165 8.71704 116.083 8.41724L116.012 8.39738C115.377 8.22465 114.727 8.10949 114.074 8.0539C113.441 8.0003 112.803 8.00824 112.172 8.06581C109.295 8.32988 106.647 9.73556 104.745 11.9036L102.938 13.9605L100.47 12.7852C100.176 12.6442 99.8803 12.5092 99.5844 12.3762C97.7539 11.5562 95.8618 10.8772 93.926 10.3491ZM146.973 0.284927C148.577 0.489426 150.163 0.803123 151.72 1.22403L151.726 1.22602C159.239 3.26108 165.588 7.59527 170.264 13.3133C171.161 14.4112 172.005 15.5747 172.791 16.7977C173.317 17.6137 173.812 18.4536 174.278 19.3152C175.456 19.1385 176.671 19.1068 177.896 19.2338C178.275 19.2716 178.622 19.3192 178.934 19.3748C179.27 19.4324 179.617 19.5078 179.974 19.5972L179.972 19.6011L179.988 19.6051L180.113 19.6389C180.151 19.6448 180.189 19.6528 180.225 19.6627C183.852 20.6455 186.822 22.9188 188.8 25.887C189.187 26.4687 189.534 27.0683 189.836 27.6838C189.927 27.8685 190.015 28.0551 190.098 28.2417C192.451 28.0293 194.853 28.0888 197.26 28.4522C197.786 28.5316 198.352 28.6348 198.953 28.7619C199.547 28.887 200.113 29.02 200.649 29.1649L200.678 29.1729C212.702 32.431 221.263 42.5527 223.493 54.4514C223.924 56.7544 224.118 59.131 224.055 61.5393C223.989 63.9318 223.674 66.344 223.084 68.7365L223.064 68.8179V68.8258L223.062 68.8239C222.621 70.5988 222.048 72.2944 221.357 73.9105C221.232 74.2063 221.106 74.4843 220.985 74.7484C220.973 74.7782 220.962 74.8079 220.948 74.8377C222.395 77.2659 223.203 80.107 223.205 83.0633C223.205 83.7364 223.167 84.3876 223.092 85.0091C223.018 85.6245 222.903 86.2539 222.748 86.8912C222.742 86.921 222.737 86.9508 222.729 86.9806L222.727 86.9885L222.725 86.9865C222.077 89.5795 220.836 91.8548 219.193 93.6953C218.857 94.0705 218.521 94.414 218.192 94.7178L218.19 94.7158L218.186 94.7178L218.17 94.7317C220.227 99.8998 221.202 105.568 220.88 111.362C220.813 112.603 220.688 113.828 220.507 115.031C220.332 116.2 220.096 117.391 219.8 118.599C219.792 118.638 219.784 118.678 219.774 118.72L219.77 118.734L219.766 118.732C219.685 119.057 219.621 119.307 219.57 119.494C216.927 129.27 210.806 137.099 202.976 141.892C195.127 146.696 185.563 148.455 176.057 146.083C175.755 146.009 175.521 145.948 175.358 145.904C175.215 145.864 175.07 145.825 174.925 145.783C172.436 149.17 168.693 151.376 164.599 151.846C163.712 151.948 162.808 151.968 161.899 151.902C160.984 151.835 160.067 151.68 159.155 151.434L159.149 151.432C157.773 151.06 156.487 150.496 155.313 149.78L155.282 149.762C148.108 156.401 138.846 160.394 129.04 160.793C127.027 160.874 125 160.805 122.973 160.578C120.932 160.35 118.887 159.965 116.854 159.415L116.848 159.413C110.756 157.763 105.326 154.795 100.766 150.88C99.8505 150.095 98.9948 149.299 98.2026 148.497C97.74 148.028 97.2813 147.542 96.8287 147.038C94.742 148.064 92.423 148.598 90.0365 148.539C89.4469 148.523 88.8731 148.477 88.3211 148.396C87.7414 148.312 87.1656 148.193 86.5997 148.04L86.5918 148.038C83.7844 147.278 81.3681 145.741 79.5018 143.71C79.1782 143.359 78.8645 142.982 78.5608 142.58C78.533 142.549 78.5052 142.513 78.4793 142.479L78.4535 142.443C74.0379 144.137 69.261 144.897 64.3987 144.554C63.3484 144.481 62.2941 144.355 61.2379 144.177C60.1737 143.998 59.1194 143.768 58.0791 143.488L58.0592 143.482C50.0957 141.324 43.5199 136.41 39.0269 129.973C38.1553 128.726 37.3611 127.42 36.6523 126.066C36.1361 125.083 35.6656 124.074 35.2407 123.044C34.6173 123.018 33.9939 122.951 33.3724 122.841C33.2493 122.82 33.0389 122.776 32.745 122.71C32.4691 122.649 32.2566 122.599 32.1176 122.561L32.0819 122.551C26.8344 121.13 22.9589 117.002 21.4777 111.985C21.1938 111.022 20.9973 110.016 20.896 108.981C20.8404 108.391 20.8146 107.798 20.8245 107.198C9.88283 102.37 2.32828 92.0176 0.454034 80.2083C0.0768027 77.8317 -0.0701189 75.3956 0.031138 72.9357C0.130409 70.4896 0.475874 68.0257 1.07944 65.5757C1.0854 65.5499 1.08937 65.5241 1.09731 65.4983V65.4923H1.0993C3.80345 54.6459 11.0304 46.2654 20.1336 41.9789C21.9205 41.1371 23.7669 40.4561 25.6471 39.9478C27.1104 39.5527 28.6034 39.2569 30.1163 39.0663L30.1699 38.8459H30.1719C31.6411 32.9571 36.154 28.7222 41.5067 27.4912C42.5451 27.253 43.6252 27.1279 44.7291 27.1259C45.3843 27.1259 46.0394 27.1676 46.6927 27.255C53.5841 15.3285 65.4291 7.4007 78.5746 5.70911C81.2252 5.36762 83.9174 5.27828 86.6196 5.45895C89.3357 5.63962 92.0716 6.0923 94.7956 6.82889L94.8015 6.83088C96.9597 7.4146 99.0504 8.16509 101.062 9.06647C101.405 9.22133 101.727 9.37024 102.023 9.50922C104.55 6.63234 108.058 4.80177 111.842 4.45432C112.7 4.37689 113.55 4.37094 114.38 4.44043C115.234 4.51389 116.095 4.66478 116.957 4.89707L116.961 4.89906C118.45 5.3021 119.834 5.9295 121.093 6.73955C121.138 6.76338 121.182 6.78919 121.226 6.81698C121.317 6.87654 121.406 6.93809 121.494 6.99766C127.474 2.58405 134.703 0.0625591 142.255 0.00101068C143.818 -0.0109016 145.394 0.0824134 146.973 0.284927Z" fill="#1A7FF7"/>
</svg>
