<svg xmlns="http://www.w3.org/2000/svg" xmlns:xlink="http://www.w3.org/1999/xlink" width="300" zoomAndPan="magnify" viewBox="0 0 224.87999 231" height="308" preserveAspectRatio="xMidYMid meet" version="1.0"><defs><clipPath id="941c502bb0"><path d="M 60 0.0625 L 76 0.0625 L 76 35 L 60 35 Z M 60 0.0625 " clip-rule="nonzero"/></clipPath></defs><path fill="#1a1a1a" d="M 161.859375 77.320312 C 158.121094 78.945312 155.230469 81.671875 153.382812 84.992188 C 148.925781 77.085938 139.097656 73.675781 130.625 77.363281 C 126.695312 79.074219 123.652344 82.085938 121.851562 85.617188 C 116.960938 79.234375 108.171875 76.738281 100.429688 80.105469 C 96.769531 81.699219 93.863281 84.382812 92.03125 87.648438 L 78.003906 55.480469 C 74.0625 46.4375 63.460938 42.304688 54.410156 46.246094 C 45.355469 50.183594 41.203125 60.734375 45.144531 69.777344 L 79.371094 148.277344 C 71.859375 144.402344 62.390625 146.328125 57.03125 153.28125 C 50.992188 161.082031 52.46875 172.34375 60.273438 178.378906 L 115.882812 221.203125 L 116.515625 221.707031 C 120.402344 224.636719 124.773438 226.765625 129.410156 227.949219 C 137.460938 230.121094 145.792969 229.472656 153.496094 226.121094 L 197.714844 206.878906 C 216.320312 198.78125 224.867188 177.074219 216.742188 158.453125 L 185.402344 86.570312 C 181.46875 77.53125 170.910156 73.382812 161.859375 77.320312 Z M 210.207031 161.304688 C 216.753906 176.3125 209.859375 193.824219 194.878906 200.347656 L 150.65625 219.585938 C 144.457031 222.285156 137.75 222.777344 131.21875 221.042969 C 127.449219 220.070312 123.964844 218.382812 120.875 216.023438 L 64.652344 172.734375 C 59.953125 169.101562 59.070312 162.34375 62.707031 157.652344 C 63.855469 156.1875 65.308594 155.097656 66.921875 154.398438 C 70.390625 152.890625 74.566406 153.222656 77.765625 155.726562 L 85.070312 161.339844 L 89.132812 170.652344 C 89.921875 172.464844 92.023438 173.289062 93.835938 172.5 C 95.644531 171.714844 96.507812 169.59375 95.722656 167.789062 L 51.75 66.929688 C 49.382812 61.503906 51.863281 55.207031 57.292969 52.847656 C 62.722656 50.480469 69.066406 52.941406 71.433594 58.367188 L 103.679688 132.324219 C 104.46875 134.132812 106.570312 134.960938 108.378906 134.175781 C 110.226562 133.367188 111.050781 131.269531 110.265625 129.460938 L 97.765625 100.792969 C 95.398438 95.367188 97.859375 89.03125 103.289062 86.667969 C 108.757812 84.289062 115.082031 86.804688 117.464844 92.265625 L 121.386719 100.949219 L 132.730469 126.960938 C 133.519531 128.765625 135.621094 129.59375 137.433594 128.808594 C 139.242188 128.019531 140.070312 125.921875 139.28125 124.109375 L 127.921875 98.058594 C 125.554688 92.632812 128.074219 86.320312 133.503906 83.953125 C 138.933594 81.589844 145.277344 84.050781 147.644531 89.476562 L 162.527344 123.605469 C 163.3125 125.414062 165.414062 126.242188 167.222656 125.449219 C 169.039062 124.664062 169.863281 122.5625 169.074219 120.757812 L 159.160156 98.015625 C 156.792969 92.589844 159.292969 86.238281 164.722656 83.875 C 170.15625 81.511719 176.515625 84.007812 178.878906 89.433594 Z M 210.207031 161.304688 " fill-opacity="1" fill-rule="nonzero"/><path fill="#ffffff" d="M 178.867188 89.425781 L 210.207031 161.304688 C 216.753906 176.3125 209.859375 193.824219 194.878906 200.347656 L 150.65625 219.585938 C 144.457031 222.285156 137.75 222.777344 131.21875 221.042969 C 127.449219 220.070312 123.964844 218.382812 120.875 216.023438 L 64.652344 172.734375 C 59.953125 169.101562 59.070312 162.34375 62.707031 157.652344 C 63.855469 156.1875 65.308594 155.097656 66.921875 154.398438 C 70.390625 152.890625 74.566406 153.222656 77.765625 155.726562 L 85.070312 161.339844 L 89.132812 170.652344 C 89.921875 172.464844 92.023438 173.289062 93.835938 172.5 C 95.644531 171.714844 96.507812 169.59375 95.722656 167.789062 L 51.75 66.929688 C 49.382812 61.503906 51.863281 55.207031 57.292969 52.847656 C 62.726562 50.480469 69.066406 52.941406 71.433594 58.367188 L 103.679688 132.324219 C 104.46875 134.132812 106.570312 134.960938 108.378906 134.175781 C 110.226562 133.367188 111.050781 131.269531 110.265625 129.460938 L 97.765625 100.792969 C 95.398438 95.367188 97.859375 89.03125 103.289062 86.667969 C 108.757812 84.289062 115.082031 86.804688 117.464844 92.265625 L 121.386719 100.949219 L 132.730469 126.960938 C 133.519531 128.765625 135.621094 129.59375 137.433594 128.808594 C 139.242188 128.019531 140.070312 125.921875 139.28125 124.109375 L 127.921875 98.058594 C 125.554688 92.632812 128.074219 86.320312 133.503906 83.953125 C 138.933594 81.589844 145.277344 84.050781 147.644531 89.476562 L 162.527344 123.605469 C 163.3125 125.414062 165.414062 126.242188 167.222656 125.449219 C 169.039062 124.664062 169.863281 122.5625 169.074219 120.757812 L 159.160156 98.015625 C 156.792969 92.589844 159.292969 86.238281 164.722656 83.875 C 170.140625 81.496094 176.5 84 178.867188 89.425781 Z M 178.867188 89.425781 " fill-opacity="1" fill-rule="nonzero"/><path fill="#1a1a1a" d="M 48.097656 35.035156 C 46.835938 35.035156 45.625 34.300781 45.089844 33.066406 L 33.824219 7.226562 C 33.101562 5.566406 33.863281 3.636719 35.523438 2.914062 C 37.1875 2.191406 39.121094 2.949219 39.84375 4.609375 L 51.109375 30.449219 C 51.832031 32.109375 51.070312 34.039062 49.410156 34.761719 C 48.984375 34.949219 48.539062 35.035156 48.097656 35.035156 Z M 48.097656 35.035156 " fill-opacity="1" fill-rule="nonzero"/><g clip-path="url(#941c502bb0)"><path fill="#1a1a1a" d="M 63.804688 34.066406 C 63.5 34.066406 63.183594 34.019531 62.875 33.929688 C 61.136719 33.417969 60.148438 31.59375 60.660156 29.859375 L 68.65625 2.832031 C 69.167969 1.09375 70.996094 0.105469 72.730469 0.617188 C 74.46875 1.128906 75.460938 2.953125 74.945312 4.6875 L 66.949219 31.714844 C 66.523438 33.148438 65.21875 34.066406 63.804688 34.066406 Z M 63.804688 34.066406 " fill-opacity="1" fill-rule="nonzero"/></g><path fill="#1a1a1a" d="M 80.636719 39.695312 C 79.574219 39.695312 78.53125 39.175781 77.898438 38.226562 C 76.898438 36.714844 77.3125 34.679688 78.820312 33.683594 L 102.332031 18.109375 C 103.84375 17.109375 105.882812 17.519531 106.882812 19.03125 C 107.882812 20.539062 107.46875 22.574219 105.960938 23.574219 L 82.445312 39.144531 C 81.886719 39.515625 81.257812 39.695312 80.636719 39.695312 Z M 80.636719 39.695312 " fill-opacity="1" fill-rule="nonzero"/><path fill="#1a1a1a" d="M 3.597656 68.339844 C 2.117188 68.339844 0.773438 67.328125 0.414062 65.828125 C -0.015625 64.066406 1.070312 62.296875 2.835938 61.875 L 30.257812 55.28125 C 32.023438 54.855469 33.792969 55.9375 34.214844 57.699219 C 34.640625 59.460938 33.554688 61.230469 31.792969 61.652344 L 4.367188 68.25 C 4.113281 68.308594 3.855469 68.339844 3.597656 68.339844 Z M 3.597656 68.339844 " fill-opacity="1" fill-rule="nonzero"/><path fill="#1a1a1a" d="M 36.6875 45.863281 C 36.199219 45.863281 35.699219 45.753906 35.226562 45.523438 L 9.972656 32.964844 C 8.351562 32.160156 7.6875 30.1875 8.5 28.570312 C 9.304688 26.949219 11.273438 26.285156 12.898438 27.09375 L 38.152344 39.652344 C 39.773438 40.457031 40.4375 42.429688 39.628906 44.050781 C 39.054688 45.203125 37.890625 45.863281 36.6875 45.863281 Z M 36.6875 45.863281 " fill-opacity="1" fill-rule="nonzero"/></svg>