<svg xmlns="http://www.w3.org/2000/svg" xmlns:xlink="http://www.w3.org/1999/xlink" width="308" zoomAndPan="magnify" viewBox="0 0 230.87999 231" height="308" preserveAspectRatio="xMidYMid meet" version="1.0"><defs><clipPath id="bc39975365"><path d="M 102 0.0585938 L 128 0.0585938 L 128 49 L 102 49 Z M 102 0.0585938 " clip-rule="nonzero"/></clipPath><clipPath id="a5fe3a7cf1"><path d="M 102 181 L 128 181 L 128 230.191406 L 102 230.191406 Z M 102 181 " clip-rule="nonzero"/></clipPath><clipPath id="82c203b192"><path d="M 181 102 L 230.128906 102 L 230.128906 128 L 181 128 Z M 181 102 " clip-rule="nonzero"/></clipPath></defs><g clip-path="url(#bc39975365)"><path fill="#000000" d="M 118.570312 48.417969 L 111.558594 48.417969 C 106.742188 48.417969 102.839844 44.515625 102.839844 39.699219 L 102.839844 8.777344 C 102.839844 3.960938 106.742188 0.0585938 111.558594 0.0585938 L 118.570312 0.0585938 C 123.386719 0.0585938 127.289062 3.960938 127.289062 8.777344 L 127.289062 39.699219 C 127.289062 44.515625 123.386719 48.417969 118.570312 48.417969 " fill-opacity="1" fill-rule="nonzero"/></g><path fill="#0d0d0d" d="M 84.75 55.605469 L 78.675781 59.109375 C 74.503906 61.519531 69.171875 60.089844 66.765625 55.921875 L 51.304688 29.140625 C 48.898438 24.96875 50.324219 19.636719 54.496094 17.230469 L 60.570312 13.722656 C 64.742188 11.3125 70.074219 12.742188 72.480469 16.914062 L 87.941406 43.695312 C 90.347656 47.863281 88.917969 53.195312 84.75 55.605469 " fill-opacity="1" fill-rule="nonzero"/><path fill="#1b1b1b" d="M 59.050781 78.734375 L 55.542969 84.808594 C 53.136719 88.980469 47.804688 90.410156 43.632812 88 L 16.851562 72.539062 C 12.683594 70.132812 11.253906 64.800781 13.664062 60.628906 L 17.167969 54.554688 C 19.578125 50.382812 24.910156 48.957031 29.078125 51.363281 L 55.859375 66.824219 C 60.03125 69.234375 61.457031 74.566406 59.050781 78.734375 " fill-opacity="1" fill-rule="nonzero"/><path fill="#282828" d="M 48.359375 111.617188 L 48.359375 118.632812 C 48.359375 123.449219 44.457031 127.351562 39.640625 127.351562 L 8.71875 127.351562 C 3.902344 127.351562 0 123.449219 0 118.632812 L 0 111.617188 C 0 106.800781 3.902344 102.898438 8.71875 102.898438 L 39.640625 102.898438 C 44.457031 102.898438 48.359375 106.800781 48.359375 111.617188 " fill-opacity="1" fill-rule="nonzero"/><path fill="#353535" d="M 55.542969 145.441406 L 59.050781 151.515625 C 61.457031 155.683594 60.03125 161.015625 55.859375 163.425781 L 29.078125 178.886719 C 24.910156 181.292969 19.578125 179.867188 17.167969 175.695312 L 13.664062 169.621094 C 11.253906 165.449219 12.683594 160.117188 16.851562 157.710938 L 43.632812 142.25 C 47.804688 139.839844 53.136719 141.269531 55.542969 145.441406 " fill-opacity="1" fill-rule="nonzero"/><path fill="#4d4d4d" d="M 78.675781 171.140625 L 84.75 174.644531 C 88.917969 177.054688 90.347656 182.386719 87.941406 186.554688 L 72.480469 213.335938 C 70.074219 217.507812 64.742188 218.9375 60.570312 216.527344 L 54.496094 213.019531 C 50.324219 210.613281 48.898438 205.28125 51.304688 201.109375 L 66.765625 174.332031 C 69.171875 170.160156 74.503906 168.730469 78.675781 171.140625 " fill-opacity="1" fill-rule="nonzero"/><g clip-path="url(#a5fe3a7cf1)"><path fill="#545353" d="M 111.558594 181.832031 L 118.570312 181.832031 C 123.386719 181.832031 127.289062 185.734375 127.289062 190.550781 L 127.289062 221.472656 C 127.289062 226.289062 123.386719 230.191406 118.570312 230.191406 L 111.558594 230.191406 C 106.742188 230.191406 102.839844 226.289062 102.839844 221.472656 L 102.839844 190.550781 C 102.839844 185.734375 106.742188 181.832031 111.558594 181.832031 " fill-opacity="1" fill-rule="nonzero"/></g><path fill="#727272" d="M 145.378906 174.644531 L 151.457031 171.140625 C 155.625 168.730469 160.957031 170.160156 163.363281 174.332031 L 178.828125 201.109375 C 181.234375 205.28125 179.804688 210.613281 175.632812 213.019531 L 169.5625 216.527344 C 165.390625 218.9375 160.058594 217.507812 157.648438 213.335938 L 142.191406 186.554688 C 139.78125 182.386719 141.210938 177.054688 145.378906 174.644531 " fill-opacity="1" fill-rule="nonzero"/><path fill="#adaeb0" d="M 171.078125 151.515625 L 174.585938 145.441406 C 176.996094 141.269531 182.328125 139.839844 186.496094 142.25 L 213.277344 157.710938 C 217.445312 160.117188 218.875 165.449219 216.46875 169.621094 L 212.960938 175.695312 C 210.554688 179.867188 205.222656 181.292969 201.050781 178.886719 L 174.269531 163.425781 C 170.101562 161.015625 168.671875 155.683594 171.078125 151.515625 " fill-opacity="1" fill-rule="nonzero"/><g clip-path="url(#82c203b192)"><path fill="#cecfd1" d="M 181.769531 118.632812 L 181.769531 111.617188 C 181.769531 106.800781 185.671875 102.898438 190.488281 102.898438 L 221.410156 102.898438 C 226.226562 102.898438 230.128906 106.800781 230.128906 111.617188 L 230.128906 118.632812 C 230.128906 123.449219 226.226562 127.351562 221.410156 127.351562 L 190.488281 127.351562 C 185.671875 127.351562 181.769531 123.449219 181.769531 118.632812 " fill-opacity="1" fill-rule="nonzero"/></g><path fill="#dfe0e2" d="M 174.585938 84.808594 L 171.078125 78.734375 C 168.671875 74.566406 170.101562 69.234375 174.269531 66.824219 L 201.050781 51.363281 C 205.222656 48.957031 210.554688 50.382812 212.960938 54.554688 L 216.46875 60.628906 C 218.875 64.800781 217.445312 70.132812 213.277344 72.539062 L 186.496094 88 C 182.328125 90.410156 176.996094 88.980469 174.585938 84.808594 " fill-opacity="1" fill-rule="nonzero"/><path fill="#efeff1" d="M 151.457031 59.109375 L 145.378906 55.605469 C 141.210938 53.195312 139.78125 47.863281 142.191406 43.695312 L 157.648438 16.914062 C 160.058594 12.742188 165.390625 11.3125 169.5625 13.722656 L 175.632812 17.230469 C 179.804688 19.636719 181.234375 24.96875 178.828125 29.140625 L 163.363281 55.921875 C 160.957031 60.089844 155.625 61.519531 151.457031 59.109375 " fill-opacity="1" fill-rule="nonzero"/></svg>