<svg width="249" height="179" viewBox="0 0 249 179" fill="none" xmlns="http://www.w3.org/2000/svg">
<path fill-rule="evenodd" clip-rule="evenodd" d="M205.442 27.4753C204.484 26.5128 203.392 25.6799 202.188 25.0096C202.669 25.8601 203.071 26.7589 203.388 27.6929C204.069 27.5984 204.752 27.5259 205.442 27.4753ZM188.106 17.5489C186.141 14.8898 183.851 12.4813 181.28 10.3936C183.152 12.7032 184.768 15.2238 186.095 17.9049C186.754 17.7379 187.424 17.6192 188.106 17.5489ZM46.2893 144.661C50.9152 150.452 57.2574 154.84 64.7819 156.88C72.6646 159.016 80.6199 158.24 87.5972 155.194C89.5135 158.411 92.5725 160.895 96.3633 161.923C100.341 163.002 104.363 162.266 107.626 160.213C113.293 166.971 120.897 172.085 129.852 174.513C145.275 178.693 160.913 173.876 171.668 163.196C173.127 164.316 174.81 165.173 176.674 165.679C183.016 167.397 189.47 164.51 192.782 159.011C193.384 159.209 193.995 159.392 194.615 159.561C215.083 165.107 235.995 152.285 241.313 130.929C243.617 121.677 242.614 112.341 239.076 104.276C241.7 102.268 243.702 99.3383 244.586 95.798C245.728 91.1985 244.742 86.5418 242.265 82.9708C243.406 80.7073 244.315 78.2746 244.957 75.6946C248.385 61.9224 243.212 47.926 232.927 39.8982C239.268 48.0117 241.949 59.0567 239.232 69.9633C238.591 72.5433 237.679 74.976 236.54 77.2417C239.017 80.8106 240.004 85.4672 238.861 90.0668C237.978 93.6071 235.976 96.5364 233.354 98.5472C236.89 106.61 237.89 115.945 235.589 125.197C230.271 146.553 209.358 159.376 188.89 153.829C188.27 153.66 187.662 153.478 187.057 153.28C183.746 158.778 177.291 161.666 170.949 159.948C169.088 159.442 167.404 158.585 165.943 157.464C155.188 168.145 139.552 172.962 124.128 168.782C115.172 166.354 107.569 161.24 101.901 154.482C98.6378 156.535 94.6163 157.271 90.6386 156.192C86.8478 155.163 83.7888 152.68 81.8725 149.463C74.8952 152.509 66.94 153.285 59.0572 151.148C54.2775 149.852 49.9768 147.61 46.2893 144.661ZM27.0847 126.672C28.9878 130.041 32.1171 132.654 36.0288 133.713C36.4244 133.821 36.8221 133.911 37.2155 133.981C36.2178 132.221 35.3542 130.373 34.6421 128.461C33.2181 128.527 31.7589 128.375 30.3041 127.982C29.1592 127.672 28.0846 127.228 27.0847 126.672ZM10.3501 106.366C12.8751 109.526 15.9122 112.267 19.3712 114.44C19.2986 113.513 19.303 112.568 19.3975 111.621C16.088 110.311 13.0553 108.529 10.3501 106.366Z" fill="#CEE5FF"/>
<rect x="187.945" y="107.894" width="104.748" height="36.9625" rx="17.5" transform="rotate(-180 187.945 107.894)" fill="#FFE2A9" stroke="#FFBA0A" stroke-width="5"/>
<path fill-rule="evenodd" clip-rule="evenodd" d="M103.962 11.4549H103.958L103.881 11.4329C101.176 10.7011 98.4047 10.233 95.6094 10.0463C92.8998 9.86385 90.1748 9.95175 87.4827 10.299C73.8775 12.0504 61.9996 20.3265 55.1519 32.1781L53.8092 34.5009L51.1524 34.1449C50.6096 34.0724 50.0624 34.0372 49.5152 34.0372C48.6163 34.0394 47.7175 34.1383 46.8407 34.3383C42.0654 35.4371 38.4635 39.2477 37.2856 43.9747L36.556 46.8799L33.8376 47.2205C32.3521 47.4095 30.8797 47.6996 29.4337 48.0907C27.5657 48.594 25.7439 49.2708 23.9925 50.0949C14.4418 54.5956 7.65567 63.2452 5.11087 73.453L5.10868 73.4574L5.0867 73.5453C4.49335 75.9516 4.14174 78.4173 4.04065 80.894C3.93956 83.3201 4.08241 85.7528 4.46259 88.1504C6.31734 99.8437 13.7759 110.175 24.6671 114.983L27.0977 116.055L27.0581 118.714C27.0493 119.222 27.0713 119.732 27.1196 120.239C27.2053 121.112 27.3702 121.976 27.6185 122.817C28.8887 127.127 32.185 130.59 36.5538 131.775L36.589 131.783C36.7604 131.829 36.9362 131.869 37.1098 131.906C37.2834 131.944 37.4614 131.985 37.6372 132.018C38.1471 132.109 38.6635 132.163 39.1821 132.185L41.7357 132.295L42.7114 134.662C43.1334 135.686 43.6059 136.691 44.1179 137.673C44.8233 139.018 45.6144 140.319 46.4825 141.565C51.0425 148.094 57.6022 152.851 65.3004 154.937L65.3289 154.946C66.3552 155.223 67.399 155.451 68.4473 155.627C69.4802 155.801 70.5196 155.926 71.5635 155.998C76.2619 156.33 81.0087 155.605 85.406 153.92L88.2123 152.843L90.0363 155.247L90.0737 155.291L90.1528 155.396C90.4033 155.728 90.6692 156.047 90.9505 156.352C92.5503 158.097 94.5743 159.35 96.8598 159.976L96.8642 159.978L96.9016 159.987C97.3718 160.114 97.8531 160.213 98.3366 160.284C98.8068 160.352 99.2815 160.389 99.7584 160.4C101.71 160.451 103.659 160.011 105.411 159.15L108.131 157.811L110.157 160.071C110.61 160.572 111.074 161.064 111.548 161.545C112.377 162.385 113.245 163.189 114.142 163.958C118.862 168.008 124.38 170.949 130.388 172.577H130.39C132.414 173.126 134.478 173.518 136.561 173.75C138.587 173.977 140.631 174.049 142.668 173.966C152.555 173.566 161.906 169.529 169.156 162.82L171.325 160.811L173.957 162.336L173.995 162.358C174.995 162.969 176.076 163.435 177.21 163.743H177.212C177.959 163.945 178.722 164.077 179.495 164.132C180.24 164.187 180.99 164.171 181.732 164.086C185.202 163.688 188.325 161.793 190.391 158.983L192.041 156.737L194.72 157.504C194.863 157.546 195.004 157.585 195.142 157.622C195.373 157.684 195.606 157.743 195.839 157.8C205.009 160.088 214.523 158.561 222.574 153.632C230.818 148.586 236.648 140.53 239.164 131.219C239.232 130.964 239.298 130.709 239.362 130.452L239.364 130.438L239.395 130.313C239.687 129.131 239.927 127.933 240.107 126.727C240.291 125.505 240.414 124.274 240.483 123.039C240.797 117.354 239.867 111.632 237.76 106.34L236.736 103.762L238.782 101.892L239.063 101.63C239.256 101.437 239.445 101.237 239.628 101.033C241.087 99.3998 242.104 97.4374 242.636 95.3145H242.634L242.656 95.2266C242.786 94.6948 242.887 94.1542 242.953 93.6092C243.021 93.0576 243.047 92.4972 243.047 91.939C243.047 89.4645 242.383 87.0164 241.115 84.8892L240.043 83.0916L240.88 81.2346L240.907 81.1709L240.957 81.0588C241.082 80.7841 241.206 80.5072 241.326 80.2303C242.019 78.6041 242.581 76.9252 243.008 75.211L243.03 75.1209C243.603 72.7937 243.926 70.4071 243.99 68.0074C244.054 65.6648 243.869 63.3156 243.436 61.0103C241.225 49.2137 232.767 39.3312 221.076 36.1645L221.045 36.1557C220.498 36.0084 219.946 35.8788 219.392 35.7623C218.845 35.648 218.294 35.5448 217.742 35.4612C215.437 35.1118 213.096 35.0437 210.773 35.2569L207.921 35.5162L206.752 32.8967C206.679 32.7341 206.605 32.5736 206.528 32.4154C206.266 31.8836 205.97 31.3716 205.642 30.8815C203.948 28.3411 201.46 26.4753 198.518 25.6578L198.471 25.6491L198.247 25.5919L197.748 25.4711C197.619 25.4447 197.489 25.4183 197.359 25.3963C197.074 25.3458 196.786 25.3084 196.496 25.2799C195.496 25.1744 194.487 25.1986 193.494 25.348L190.714 25.7633L189.376 23.2889C188.912 22.4296 188.415 21.5857 187.888 20.7638C187.108 19.5552 186.264 18.3883 185.354 17.2763C180.579 11.4329 174.212 7.22016 166.927 5.23795H166.921L166.886 5.22696C165.336 4.80722 163.758 4.49736 162.167 4.29299C160.616 4.09521 159.053 4.00071 157.489 4.0139C150.035 4.07323 142.842 6.5565 136.854 10.9758L134.559 12.6702L132.21 11.0549C132.157 11.0198 132.107 10.9846 132.054 10.9495L131.99 10.9143L131.867 10.8352C130.821 10.1627 129.685 9.64849 128.487 9.31665L128.408 9.29468C127.705 9.10349 126.986 8.97603 126.263 8.9145C125.562 8.85516 124.857 8.86395 124.158 8.92768C120.974 9.21996 118.042 10.7758 115.937 13.1756L113.937 15.4523L111.206 14.1513C110.88 13.9953 110.553 13.8459 110.225 13.6986C108.199 12.791 106.105 12.0395 103.962 11.4549ZM162.677 0.315372C164.453 0.541723 166.209 0.88894 167.932 1.35483L167.938 1.35702C176.254 3.60954 183.282 8.40686 188.457 14.7359C189.45 15.9511 190.384 17.2389 191.255 18.5926C191.837 19.4958 192.384 20.4254 192.901 21.3792C194.204 21.1836 195.549 21.1484 196.905 21.2891C197.324 21.3308 197.709 21.3836 198.054 21.4451C198.425 21.5088 198.81 21.5923 199.205 21.6912L199.203 21.6956L199.221 21.7L199.359 21.7374C199.401 21.744 199.443 21.7528 199.482 21.7637C203.497 22.8515 206.785 25.3678 208.974 28.6531C209.402 29.297 209.787 29.9607 210.121 30.642C210.222 30.8463 210.319 31.0529 210.411 31.2595C213.015 31.0243 215.674 31.0903 218.338 31.4924C218.92 31.5803 219.546 31.6946 220.212 31.8352C220.869 31.9737 221.495 32.1209 222.089 32.2813L222.122 32.2901C235.43 35.8964 244.906 47.0996 247.374 60.2697C247.851 62.8189 248.066 65.4494 247.996 68.1151C247.924 70.7632 247.574 73.4332 246.921 76.0813L246.899 76.1714V76.1802L246.897 76.178C246.409 78.1426 245.774 80.0193 245.01 81.8082C244.871 82.1356 244.733 82.4433 244.599 82.7355C244.585 82.7685 244.572 82.8015 244.557 82.8344C246.159 85.5221 247.053 88.6668 247.056 91.939C247.056 92.684 247.014 93.4048 246.93 94.0926C246.849 94.7739 246.721 95.4705 246.55 96.1759C246.543 96.2089 246.537 96.2419 246.528 96.2748L246.526 96.2836L246.524 96.2814C245.807 99.1515 244.434 101.67 242.614 103.707C242.243 104.122 241.871 104.503 241.507 104.839L241.504 104.837L241.5 104.839L241.482 104.854C243.759 110.574 244.838 116.849 244.482 123.261C244.407 124.635 244.269 125.99 244.069 127.322C243.876 128.617 243.614 129.935 243.287 131.271C243.278 131.315 243.269 131.359 243.258 131.405L243.254 131.421L243.249 131.419C243.159 131.779 243.089 132.056 243.032 132.262C240.107 143.083 233.332 151.748 224.664 157.053C215.977 162.371 205.392 164.318 194.87 161.692C194.536 161.611 194.276 161.543 194.096 161.495C193.938 161.451 193.777 161.407 193.617 161.361C190.861 165.11 186.719 167.551 182.187 168.072C181.205 168.184 180.205 168.206 179.199 168.133C178.186 168.059 177.17 167.887 176.162 167.615L176.155 167.613C174.632 167.202 173.208 166.578 171.909 165.784L171.874 165.764C163.934 173.113 153.683 177.532 142.829 177.974C140.6 178.064 138.357 177.987 136.113 177.737C133.854 177.484 131.59 177.058 129.34 176.449L129.333 176.447C122.591 174.621 116.581 171.335 111.533 167.002C110.52 166.134 109.573 165.252 108.696 164.365C108.184 163.846 107.676 163.308 107.175 162.749C104.866 163.886 102.299 164.477 99.6573 164.411C99.0046 164.393 98.3695 164.343 97.7586 164.253C97.1169 164.16 96.4796 164.028 95.8533 163.859L95.8445 163.857C92.7371 163.015 90.0627 161.314 87.997 159.066C87.6388 158.677 87.2915 158.26 86.9553 157.816C86.9245 157.781 86.8938 157.741 86.8652 157.704L86.8366 157.664C81.9492 159.539 76.6618 160.38 71.28 160C70.1175 159.919 68.9505 159.78 67.7814 159.583C66.6035 159.385 65.4366 159.13 64.2851 158.82L64.2631 158.814C55.4486 156.425 48.1702 150.986 43.1971 143.861C42.2324 142.481 41.3533 141.035 40.5688 139.536C39.9974 138.449 39.4766 137.332 39.0063 136.192C38.3163 136.163 37.6263 136.088 36.9384 135.967C36.8022 135.943 36.5692 135.895 36.244 135.822C35.9385 135.754 35.7034 135.699 35.5495 135.658L35.51 135.647C29.7018 134.073 25.4121 129.504 23.7727 123.951C23.4585 122.885 23.2409 121.771 23.1288 120.626C23.0673 119.974 23.0387 119.316 23.0497 118.653C10.9389 113.308 2.57706 101.85 0.50255 88.7789C0.0850094 86.1484 -0.0776114 83.452 0.0344653 80.7292C0.144344 78.0217 0.526723 75.2945 1.19479 72.5827C1.20138 72.5542 1.20577 72.5256 1.21457 72.497V72.4904H1.21676C4.20987 60.4851 12.2091 51.2091 22.285 46.4645C24.2628 45.5327 26.3065 44.779 28.3876 44.2164C30.0072 43.7791 31.6598 43.4516 33.3344 43.2407L33.3937 42.9967H33.3959C35.0221 36.4787 40.0172 31.7913 45.9419 30.4288C47.0912 30.1651 48.2867 30.0266 49.5086 30.0244C50.2338 30.0244 50.959 30.0706 51.682 30.1673C59.3098 16.9664 72.4205 8.19149 86.9707 6.31916C89.9045 5.94117 92.8844 5.84228 95.8753 6.04226C98.8816 6.24224 101.91 6.74329 104.925 7.55859L104.931 7.56079C107.32 8.20688 109.634 9.03756 111.86 10.0353C112.241 10.2067 112.597 10.3715 112.924 10.5253C115.722 7.34103 119.605 5.31486 123.793 4.93029C124.743 4.84458 125.683 4.83799 126.602 4.9149C127.547 4.99621 128.501 5.16323 129.454 5.42035L129.459 5.42254C131.107 5.86865 132.639 6.56309 134.032 7.4597C134.082 7.48607 134.131 7.51464 134.179 7.54541C134.28 7.61133 134.379 7.67946 134.476 7.74539C141.095 2.86017 149.096 0.0692438 157.456 0.00111868C159.185 -0.0120665 160.93 0.0912197 162.677 0.315372Z" fill="#1A7FF7"/>
</svg>
