<svg width="249" height="180" viewBox="0 0 249 180" fill="none" xmlns="http://www.w3.org/2000/svg">
<path fill-rule="evenodd" clip-rule="evenodd" d="M205.497 28.123C204.538 27.1605 203.446 26.3276 202.242 25.6574C202.723 26.5078 203.125 27.4066 203.442 28.3406C204.123 28.2461 204.807 28.1736 205.497 28.123ZM188.16 18.1966C186.195 15.5375 183.905 13.129 181.334 11.0413C183.207 13.3509 184.822 15.8715 186.149 18.5526C186.808 18.3856 187.479 18.2669 188.16 18.1966ZM46.3435 145.309C50.9694 151.1 57.3116 155.488 64.8361 157.527C72.7188 159.663 80.6741 158.888 87.6514 155.842C89.5677 159.059 92.6267 161.542 96.4175 162.571C100.395 163.65 104.417 162.914 107.68 160.861C113.348 167.619 120.951 172.732 129.906 175.161C145.329 179.341 160.967 174.524 171.722 163.843C173.181 164.964 174.865 165.821 176.728 166.327C183.07 168.045 189.525 165.157 192.836 159.659C193.438 159.857 194.049 160.039 194.669 160.208C215.137 165.755 236.05 152.932 241.368 131.576C243.671 122.324 242.669 112.989 239.131 104.924C241.754 102.915 243.756 99.9861 244.64 96.4458C245.783 91.8462 244.796 87.1895 242.319 83.6185C243.46 81.355 244.37 78.9223 245.011 76.3423C248.439 62.5701 243.266 48.5737 232.982 40.5459C239.322 48.6594 242.003 59.7044 239.287 70.611C238.645 73.191 237.733 75.6237 236.595 77.8894C239.071 81.4583 240.058 86.1149 238.915 90.7145C238.032 94.2548 236.03 97.1841 233.408 99.1949C236.944 107.258 237.944 116.593 235.643 125.845C230.325 147.201 209.413 160.024 188.944 154.477C188.325 154.308 187.716 154.126 187.112 153.928C183.8 159.426 177.346 162.314 171.003 160.595C169.142 160.09 167.459 159.233 165.997 158.112C155.242 168.792 139.607 173.609 124.182 169.43C115.227 167.001 107.623 161.887 101.955 155.13C98.692 157.182 94.6705 157.919 90.6928 156.84C86.902 155.811 83.843 153.328 81.9267 150.111C74.9494 153.156 66.9942 153.932 59.1114 151.796C54.3317 150.5 50.031 148.258 46.3435 145.309ZM27.1389 127.32C29.042 130.688 32.1713 133.301 36.083 134.361C36.4786 134.468 36.8763 134.558 37.2697 134.629C36.272 132.868 35.4083 131.02 34.6963 129.108C33.2723 129.174 31.8131 129.023 30.3583 128.629C29.2134 128.319 28.1388 127.876 27.1389 127.32ZM10.4043 107.014C12.9293 110.174 15.9664 112.914 19.4254 115.088C19.3528 114.16 19.3572 113.215 19.4517 112.268C16.1422 110.959 13.1095 109.176 10.4043 107.014Z" fill="#CEE5FF"/>
<rect x="78.6205" y="113.902" width="104.748" height="36.9625" rx="17.5" transform="rotate(-45 78.6205 113.902)" fill="#FFE2A9" stroke="#FFBA0A" stroke-width="5"/>
<rect x="153.173" y="139.461" width="104.748" height="36.9625" rx="17.5" transform="rotate(-134.126 153.173 139.461)" fill="#FFE2A9" stroke="#FFBA0A" stroke-width="5"/>
<rect x="99.7356" y="93.8164" width="47.7727" height="35.5067" transform="rotate(-45 99.7356 93.8164)" fill="#FFE2A9"/>
<path fill-rule="evenodd" clip-rule="evenodd" d="M104.017 12.1026H104.012L103.935 12.0806C101.23 11.3488 98.4589 10.8807 95.6636 10.694C92.954 10.5116 90.229 10.5995 87.5369 10.9467C73.9317 12.6981 62.0538 20.9742 55.2061 32.8258L53.8634 35.1486L51.2066 34.7926C50.6637 34.7201 50.1166 34.6849 49.5694 34.6849C48.6705 34.6871 47.7717 34.786 46.8949 34.986C42.1196 36.0848 38.5177 39.8954 37.3398 44.6224L36.6102 47.5276L33.8918 47.8682C32.4063 48.0572 30.9339 48.3473 29.4879 48.7384C27.6199 49.2417 25.7981 49.9185 24.0467 50.7426C14.496 55.2433 7.70987 63.8929 5.16507 74.1007L5.16287 74.1051L5.1409 74.193C4.54755 76.5993 4.19594 79.065 4.09485 81.5417C3.99376 83.9678 4.13661 86.4005 4.51679 88.7981C6.37154 100.491 13.8301 110.822 24.7213 115.631L27.1518 116.703L27.1123 119.362C27.1035 119.87 27.1255 120.379 27.1738 120.887C27.2595 121.76 27.4244 122.623 27.6727 123.465C28.9429 127.774 32.2392 131.238 36.608 132.422L36.6432 132.431C36.8146 132.477 36.9904 132.517 37.164 132.554C37.3376 132.591 37.5156 132.633 37.6914 132.666C38.2013 132.756 38.7177 132.811 39.2363 132.833L41.7899 132.943L42.7656 135.31C43.1876 136.334 43.6601 137.338 44.1721 138.321C44.8775 139.665 45.6686 140.966 46.5367 142.212C51.0967 148.741 57.6564 153.499 65.3546 155.585L65.3831 155.593C66.4094 155.87 67.4532 156.099 68.5015 156.275C69.5344 156.448 70.5738 156.574 71.6177 156.646C76.3161 156.978 81.0629 156.253 85.4602 154.567L88.2665 153.49L90.0905 155.895L90.1279 155.939L90.207 156.044C90.4575 156.376 90.7234 156.694 91.0047 157C92.6045 158.745 94.6285 159.997 96.914 160.624L96.9184 160.626L96.9557 160.635C97.426 160.762 97.9073 160.861 98.3908 160.931C98.861 161 99.3357 161.037 99.8126 161.048C101.764 161.098 103.713 160.659 105.465 159.797L108.185 158.459L110.212 160.718C110.664 161.219 111.128 161.712 111.603 162.193C112.431 163.032 113.299 163.837 114.196 164.606C118.916 168.656 124.434 171.596 130.442 173.225H130.445C132.469 173.774 134.532 174.165 136.615 174.398C138.642 174.625 140.685 174.697 142.723 174.614C152.609 174.214 161.96 170.177 169.21 163.467L171.379 161.459L174.012 162.984L174.049 163.006C175.049 163.617 176.13 164.083 177.264 164.39H177.266C178.013 164.593 178.776 164.724 179.55 164.779C180.295 164.834 181.044 164.819 181.787 164.733C185.257 164.335 188.379 162.441 190.445 159.63L192.096 157.385L194.774 158.151C194.917 158.193 195.058 158.233 195.196 158.27C195.427 158.332 195.66 158.391 195.893 158.448C205.063 160.736 214.577 159.209 222.629 154.279C230.872 149.234 236.702 141.177 239.218 131.866C239.286 131.611 239.352 131.356 239.416 131.099L239.418 131.086L239.449 130.961C239.741 129.779 239.981 128.581 240.161 127.374C240.346 126.153 240.469 124.922 240.537 123.687C240.851 118.002 239.921 112.279 237.814 106.987L236.79 104.41L238.836 102.54L239.117 102.278C239.311 102.085 239.499 101.885 239.682 101.68C241.141 100.047 242.159 98.0851 242.69 95.9622H242.688L242.71 95.8743C242.84 95.3425 242.941 94.8019 243.007 94.2569C243.075 93.7053 243.101 93.1449 243.101 92.5867C243.101 90.1122 242.438 87.6641 241.17 85.5369L240.097 83.7393L240.935 81.8823L240.961 81.8186L241.011 81.7065C241.137 81.4318 241.26 81.1549 241.381 80.878C242.073 79.2518 242.635 77.5729 243.062 75.8587L243.084 75.7686C243.657 73.4414 243.98 71.0548 244.044 68.6551C244.108 66.3125 243.923 63.9633 243.49 61.658C241.28 49.8614 232.821 39.9789 221.13 36.8122L221.099 36.8034C220.552 36.6561 220 36.5265 219.447 36.41C218.899 36.2957 218.348 36.1925 217.796 36.109C215.491 35.7595 213.151 35.6914 210.828 35.9046L207.975 36.1639L206.806 33.5444C206.734 33.3818 206.659 33.2213 206.582 33.0631C206.32 32.5313 206.024 32.0193 205.696 31.5292C204.002 28.9888 201.514 27.1231 198.572 26.3056L198.526 26.2968L198.301 26.2396L197.803 26.1188C197.673 26.0924 197.543 26.066 197.414 26.044C197.128 25.9935 196.84 25.9561 196.55 25.9276C195.55 25.8221 194.541 25.8463 193.548 25.9957L190.768 26.411L189.43 23.9366C188.966 23.0773 188.47 22.2334 187.942 21.4115C187.162 20.2029 186.318 19.036 185.408 17.924C180.633 12.0806 174.267 7.86787 166.982 5.88565H166.975L166.94 5.87467C165.391 5.45493 163.813 5.14507 162.222 4.94069C160.67 4.74291 159.108 4.64842 157.543 4.6616C150.089 4.72094 142.896 7.2042 136.908 11.6235L134.613 13.3179L132.264 11.7026C132.212 11.6675 132.161 11.6323 132.108 11.5972L132.044 11.562L131.921 11.4829C130.875 10.8104 129.739 10.2962 128.542 9.96436L128.462 9.94238C127.759 9.75119 127.041 9.62373 126.318 9.5622C125.617 9.50287 124.911 9.51166 124.212 9.57539C121.028 9.86767 118.096 11.4236 115.991 13.8233L113.991 16.1L111.26 14.799C110.935 14.643 110.607 14.4936 110.28 14.3463C108.254 13.4387 106.159 12.6872 104.017 12.1026ZM162.731 0.963077C164.507 1.18943 166.263 1.53665 167.986 2.00253L167.992 2.00473C176.308 4.25725 183.336 9.05456 188.511 15.3836C189.505 16.5988 190.439 17.8866 191.309 19.2403C191.891 20.1435 192.438 21.0731 192.955 22.0269C194.258 21.8313 195.603 21.7961 196.959 21.9368C197.378 21.9785 197.763 22.0313 198.108 22.0928C198.479 22.1565 198.864 22.24 199.26 22.3389L199.257 22.3433L199.275 22.3477L199.413 22.3851C199.455 22.3917 199.497 22.4005 199.537 22.4114C203.552 23.4992 206.839 26.0155 209.028 29.3009C209.456 29.9447 209.841 30.6084 210.175 31.2897C210.276 31.494 210.373 31.7006 210.465 31.9072C213.069 31.672 215.728 31.738 218.392 32.1401C218.974 32.228 219.6 32.3423 220.266 32.4829C220.923 32.6214 221.55 32.7686 222.143 32.9291L222.176 32.9378C235.485 36.5441 244.96 47.7473 247.428 60.9174C247.905 63.4666 248.121 66.0971 248.05 68.7628C247.978 71.4109 247.628 74.0809 246.976 76.729L246.954 76.8191V76.8279L246.951 76.8257C246.464 78.7903 245.829 80.667 245.064 82.4559C244.925 82.7833 244.787 83.091 244.653 83.3833C244.64 83.4162 244.626 83.4492 244.611 83.4821C246.213 86.1698 247.108 89.3145 247.11 92.5867C247.11 93.3317 247.068 94.0525 246.984 94.7403C246.903 95.4216 246.776 96.1182 246.604 96.8236C246.598 96.8566 246.591 96.8896 246.582 96.9225L246.58 96.9313L246.578 96.9291C245.861 99.7992 244.488 102.318 242.668 104.355C242.297 104.77 241.926 105.15 241.561 105.486L241.559 105.484L241.554 105.486L241.537 105.502C243.813 111.222 244.892 117.496 244.536 123.909C244.462 125.282 244.323 126.638 244.123 127.97C243.93 129.264 243.668 130.583 243.341 131.919C243.332 131.963 243.323 132.007 243.312 132.053L243.308 132.068L243.304 132.066C243.213 132.427 243.143 132.704 243.086 132.91C240.161 143.731 233.386 152.396 224.719 157.701C216.032 163.019 205.446 164.966 194.924 162.34C194.59 162.259 194.33 162.191 194.15 162.142C193.992 162.098 193.832 162.054 193.671 162.008C190.915 165.757 186.773 168.199 182.242 168.72C181.259 168.832 180.259 168.854 179.253 168.781C178.24 168.706 177.225 168.535 176.216 168.263L176.209 168.26C174.686 167.849 173.262 167.225 171.964 166.432L171.928 166.412C163.988 173.761 153.737 178.18 142.883 178.622C140.655 178.712 138.411 178.635 136.167 178.385C133.908 178.132 131.645 177.706 129.394 177.097L129.388 177.095C122.645 175.268 116.635 171.983 111.587 167.649C110.574 166.781 109.627 165.9 108.75 165.012C108.238 164.494 107.73 163.955 107.229 163.397C104.92 164.533 102.353 165.124 99.7115 165.058C99.0588 165.041 98.4237 164.99 97.8128 164.9C97.1711 164.808 96.5338 164.676 95.9075 164.507L95.8987 164.505C92.7913 163.663 90.1169 161.962 88.0512 159.714C87.693 159.325 87.3457 158.907 87.0095 158.464C86.9787 158.428 86.948 158.389 86.9194 158.351L86.8908 158.312C82.0034 160.186 76.716 161.028 71.3342 160.648C70.1717 160.567 69.0047 160.428 67.8356 160.23C66.6577 160.033 65.4908 159.778 64.3393 159.468L64.3173 159.461C55.5028 157.072 48.2244 151.633 43.2513 144.509C42.2866 143.129 41.4075 141.683 40.623 140.184C40.0516 139.096 39.5308 137.98 39.0605 136.839C38.3705 136.811 37.6805 136.736 36.9926 136.615C36.8564 136.591 36.6234 136.543 36.2982 136.47C35.9927 136.402 35.7576 136.347 35.6037 136.305L35.5642 136.294C29.756 134.721 25.4663 130.152 23.8269 124.599C23.5127 123.533 23.2951 122.419 23.183 121.274C23.1215 120.621 23.0929 119.964 23.1039 119.3C10.9931 113.956 2.63126 102.498 0.556749 89.4266C0.139209 86.7961 -0.0234122 84.0997 0.0886645 81.3769C0.198543 78.6694 0.580922 75.9423 1.24899 73.2304C1.25558 73.2019 1.25997 73.1733 1.26876 73.1447V73.1381H1.27096C4.26406 61.1328 12.2633 51.8568 22.3392 47.1122C24.317 46.1805 26.3607 45.4267 28.4418 44.8641C30.0614 44.4268 31.714 44.0993 33.3886 43.8884L33.4479 43.6444H33.4501C35.0763 37.1264 40.0714 32.439 45.9961 31.0765C47.1454 30.8128 48.3409 30.6743 49.5628 30.6721C50.288 30.6721 51.0132 30.7183 51.7362 30.815C59.364 17.6141 72.4747 8.8392 87.0249 6.96686C89.9587 6.58888 92.9386 6.48999 95.9295 6.68997C98.9358 6.88995 101.964 7.391 104.979 8.2063L104.986 8.20849C107.374 8.85458 109.689 9.68527 111.915 10.683C112.295 10.8544 112.651 11.0192 112.978 11.173C115.776 7.98874 119.659 5.96257 123.848 5.57799C124.797 5.49229 125.737 5.48569 126.656 5.56261C127.601 5.64392 128.555 5.81094 129.508 6.06805L129.513 6.07025C131.161 6.51636 132.693 7.21079 134.086 8.10741C134.137 8.13378 134.185 8.16234 134.233 8.19311C134.334 8.25904 134.433 8.32716 134.53 8.39309C141.149 3.50787 149.15 0.716949 157.51 0.648824C159.24 0.635639 160.984 0.738925 162.731 0.963077Z" fill="#1A7FF7"/>
</svg>
