<svg xmlns="http://www.w3.org/2000/svg" xmlns:xlink="http://www.w3.org/1999/xlink" width="290" zoomAndPan="magnify" viewBox="0 0 217.5 259.500006" height="346" preserveAspectRatio="xMidYMid meet" version="1.0"><defs><clipPath id="276d8b0dda"><path d="M 0 25 L 216.75 25 L 216.75 258.796875 L 0 258.796875 Z M 0 25 " clip-rule="nonzero"/></clipPath><clipPath id="68ce2312b1"><path d="M 8 0.046875 L 209 0.046875 L 209 71 L 8 71 Z M 8 0.046875 " clip-rule="nonzero"/></clipPath></defs><g clip-path="url(#276d8b0dda)"><path fill="#f15363" d="M 216.6875 150.421875 C 216.6875 210.292969 168.214844 258.796875 108.375 258.796875 C 48.535156 258.796875 0.0625 210.292969 0.0625 150.421875 C 0.0625 121.109375 11.6875 94.492188 30.671875 74.972656 L 21.34375 65.707031 L 33.101562 53.941406 L 43.085938 63.929688 C 58.191406 52.496094 76.453125 44.9375 96.289062 42.703125 L 96.289062 25.023438 L 120.394531 25.023438 L 120.394531 42.769531 C 140.230469 44.9375 158.425781 52.496094 173.535156 63.929688 L 183.515625 53.941406 L 195.273438 65.707031 L 186.078125 74.972656 C 204.996094 94.492188 216.6875 121.109375 216.6875 150.421875 Z M 216.6875 150.421875 " fill-opacity="1" fill-rule="nonzero"/></g><path fill="#f7f2e8" d="M 108.375 59.265625 C 158.6875 59.265625 199.480469 100.078125 199.480469 150.421875 C 199.480469 200.765625 158.6875 241.578125 108.375 241.578125 C 58.0625 241.578125 17.207031 200.832031 17.207031 150.421875 C 17.207031 100.011719 57.996094 59.265625 108.375 59.265625 Z M 108.375 59.265625 " fill-opacity="1" fill-rule="nonzero"/><g clip-path="url(#68ce2312b1)"><path fill="#f7b168" d="M 135.765625 11.679688 L 135.765625 17.53125 C 135.765625 23.972656 130.578125 29.164062 124.140625 29.164062 L 92.609375 29.164062 C 86.171875 29.164062 80.984375 23.972656 80.984375 17.53125 L 80.984375 11.679688 C 80.984375 5.242188 86.171875 0.046875 92.609375 0.046875 L 124.140625 0.046875 C 130.578125 0.046875 135.765625 5.242188 135.765625 11.679688 Z M 205.980469 54.335938 L 194.945312 43.292969 C 191.664062 40.007812 186.34375 40.007812 183.058594 43.292969 L 181.019531 45.332031 C 177.738281 48.617188 177.738281 53.941406 181.019531 57.226562 L 192.054688 68.269531 C 195.339844 71.554688 200.660156 71.554688 203.945312 68.269531 L 205.980469 66.230469 C 209.265625 62.945312 209.265625 57.621094 205.980469 54.335938 Z M 33.625 43.292969 C 30.34375 40.007812 25.023438 40.007812 21.738281 43.292969 L 10.703125 54.335938 C 7.417969 57.621094 7.417969 62.945312 10.703125 66.230469 L 12.738281 68.269531 C 16.023438 71.554688 21.34375 71.554688 24.628906 68.269531 L 35.730469 57.226562 C 39.011719 53.941406 39.011719 48.617188 35.730469 45.332031 Z M 33.625 43.292969 " fill-opacity="1" fill-rule="nonzero"/></g><path fill="#f6ad9a" d="M 108.375 150.421875 L 108.375 68.269531 C 153.433594 68.269531 190.480469 105.335938 190.480469 150.421875 C 190.480469 195.507812 153.433594 232.574219 108.375 232.574219 C 79.078125 232.574219 51.886719 216.867188 37.238281 191.5 Z M 108.375 150.421875 " fill-opacity="1" fill-rule="nonzero"/></svg>