<svg xmlns="http://www.w3.org/2000/svg" xmlns:xlink="http://www.w3.org/1999/xlink" width="50" zoomAndPan="magnify" viewBox="0 0 37.5 37.499999" height="50" preserveAspectRatio="xMidYMid meet" version="1.0"><defs><clipPath id="f19bb83f8c"><path d="M 0.175781 0.226562 L 37.007812 0.226562 L 37.007812 37.007812 L 0.175781 37.007812 Z M 0.175781 0.226562 " clip-rule="nonzero"/></clipPath></defs><g clip-path="url(#f19bb83f8c)"><path fill="#ffd740" d="M 18.679688 0.226562 C 8.460938 0.226562 0.175781 8.511719 0.175781 18.726562 C 0.175781 28.949219 8.460938 37.230469 18.679688 37.230469 C 28.898438 37.230469 37.183594 28.949219 37.183594 18.726562 C 37.183594 8.511719 28.898438 0.226562 18.679688 0.226562 " fill-opacity="1" fill-rule="nonzero"/></g><path fill="#f57f17" d="M 18.679688 3.003906 C 9.996094 3.003906 2.953125 10.042969 2.953125 18.726562 C 2.953125 27.414062 9.996094 34.457031 18.679688 34.457031 C 27.367188 34.457031 34.40625 27.414062 34.40625 18.726562 C 34.40625 10.042969 27.367188 3.003906 18.679688 3.003906 " fill-opacity="1" fill-rule="nonzero"/><path fill="#ffab00" d="M 18.679688 4.15625 C 9.996094 4.15625 2.953125 10.042969 2.953125 18.726562 C 2.953125 27.414062 9.996094 34.457031 18.679688 34.457031 C 27.367188 34.457031 34.40625 27.414062 34.40625 18.726562 C 34.40625 10.042969 27.367188 4.15625 18.679688 4.15625 " fill-opacity="1" fill-rule="nonzero"/><path fill="#f57f17" d="M 23.78125 20.257812 C 23.050781 19.382812 21.664062 18.671875 19.632812 18.121094 C 19.511719 18.085938 18.058594 17.632812 17.792969 17.507812 C 17.242188 17.273438 16.832031 16.964844 16.558594 16.578125 C 16.417969 16.375 16.3125 16.164062 16.242188 15.941406 C 16.242188 15.933594 16.238281 15.917969 16.238281 15.90625 C 16.226562 15.878906 16.21875 15.847656 16.210938 15.816406 C 16.160156 15.636719 16.132812 15.449219 16.132812 15.253906 C 16.132812 13.972656 17.261719 12.941406 18.652344 12.941406 C 20.019531 12.941406 21.128906 13.9375 21.167969 15.1875 L 24.367188 14.769531 L 24.367188 13.613281 L 23.414062 12.382812 L 23.414062 12.386719 C 23.246094 12.148438 23.058594 11.929688 22.847656 11.726562 C 22.046875 10.972656 20.976562 10.507812 19.632812 10.347656 L 19.632812 8.605469 L 17.792969 8.605469 L 17.792969 10.347656 C 16.335938 10.496094 15.167969 11.039062 14.292969 11.984375 C 13.417969 12.925781 12.976562 14.089844 12.976562 15.480469 C 12.976562 16.851562 13.367188 18.015625 14.140625 18.976562 C 14.917969 19.9375 16.132812 20.652344 17.792969 21.128906 C 18.058594 21.214844 19.464844 21.625 19.632812 21.675781 C 20.394531 21.894531 20.945312 22.210938 21.277344 22.617188 C 21.609375 23.03125 21.78125 23.523438 21.78125 24.089844 C 21.78125 24.722656 21.582031 25.277344 21.183594 25.746094 C 20.78125 26.214844 20.265625 26.507812 19.632812 26.628906 C 18.929688 26.746094 18.148438 26.652344 17.792969 26.449219 C 17.335938 26.230469 16.921875 25.875 16.546875 25.382812 C 16.171875 24.890625 15.921875 24.308594 15.785156 23.628906 L 12.472656 22.832031 L 12.472656 23.988281 C 12.726562 25.65625 13.308594 26.945312 14.222656 27.859375 C 15.136719 28.773438 16.324219 29.320312 17.792969 29.496094 L 17.792969 31.160156 L 19.632812 31.160156 L 19.632812 29.433594 C 21.28125 29.199219 22.570312 28.554688 23.5 27.503906 C 24.421875 26.453125 24.886719 25.164062 24.886719 23.628906 C 24.886719 22.261719 24.519531 21.136719 23.78125 20.257812 " fill-opacity="1" fill-rule="nonzero"/><path fill="#ffd740" d="M 19.632812 16.964844 C 19.511719 16.929688 18.058594 16.476562 17.792969 16.355469 C 17.242188 16.117188 16.832031 15.808594 16.558594 15.421875 C 16.417969 15.21875 16.3125 15.007812 16.242188 14.785156 C 16.242188 14.777344 16.238281 14.761719 16.238281 14.753906 C 16.226562 14.722656 16.21875 14.691406 16.210938 14.660156 C 16.160156 14.480469 16.132812 14.292969 16.132812 14.097656 C 16.132812 12.816406 17.261719 11.785156 18.652344 11.785156 C 20.019531 11.785156 21.128906 12.785156 21.167969 14.03125 L 24.367188 13.613281 C 24.148438 12.34375 23.640625 11.328125 22.847656 10.574219 C 22.046875 9.816406 20.976562 9.351562 19.632812 9.195312 L 19.632812 7.449219 L 17.792969 7.449219 L 17.792969 9.195312 C 16.335938 9.339844 15.167969 9.882812 14.292969 10.828125 C 13.417969 11.769531 12.976562 12.9375 12.976562 14.324219 C 12.976562 15.695312 13.367188 16.859375 14.140625 17.820312 C 14.917969 18.78125 16.132812 19.5 17.792969 19.976562 C 18.058594 20.058594 19.464844 20.46875 19.632812 20.523438 C 20.394531 20.738281 20.945312 21.054688 21.277344 21.464844 C 21.609375 21.875 21.78125 22.367188 21.78125 22.933594 C 21.78125 23.566406 21.582031 24.121094 21.183594 24.589844 C 20.78125 25.058594 20.265625 25.351562 19.632812 25.472656 C 18.929688 25.59375 18.148438 25.496094 17.792969 25.292969 C 17.335938 25.074219 16.921875 24.71875 16.546875 24.230469 C 16.171875 23.734375 15.921875 23.152344 15.785156 22.472656 L 12.472656 22.832031 C 12.726562 24.5 13.308594 25.789062 14.222656 26.703125 C 15.136719 27.617188 16.324219 28.164062 17.792969 28.339844 L 17.792969 30.007812 L 19.632812 30.007812 L 19.632812 28.277344 C 21.28125 28.042969 22.570312 27.398438 23.5 26.347656 C 24.421875 25.300781 24.886719 24.007812 24.886719 22.472656 C 24.886719 21.105469 24.519531 19.980469 23.78125 19.101562 C 23.050781 18.230469 21.664062 17.515625 19.632812 16.964844 " fill-opacity="1" fill-rule="nonzero"/><path fill="#ffffff" d="M 12.988281 6.421875 C 9.789062 7.011719 9.3125 7.488281 8.722656 10.6875 C 8.132812 7.488281 7.65625 7.011719 4.457031 6.421875 C 7.65625 5.832031 8.132812 5.355469 8.722656 2.15625 C 9.3125 5.355469 9.789062 5.832031 12.988281 6.421875 " fill-opacity="1" fill-rule="nonzero"/></svg>