<svg xmlns="http://www.w3.org/2000/svg" xmlns:xlink="http://www.w3.org/1999/xlink" width="308" zoomAndPan="magnify" viewBox="0 0 230.87999 170.249993" height="227" preserveAspectRatio="xMidYMid meet" version="1.0"><defs><clipPath id="5f64d8419f"><path d="M 0.445312 0 L 229.6875 0 L 229.6875 169.503906 L 0.445312 169.503906 Z M 0.445312 0 " clip-rule="nonzero"/></clipPath><clipPath id="5ee1abb6dd"><path d="M 24 17 L 207 17 L 207 169.503906 L 24 169.503906 Z M 24 17 " clip-rule="nonzero"/></clipPath></defs><path fill="#f1f2f3" d="M 20.941406 2.78125 L 209.183594 2.78125 C 209.765625 2.78125 210.347656 2.8125 210.929688 2.867188 C 211.511719 2.925781 212.085938 3.011719 212.660156 3.125 C 213.230469 3.238281 213.796875 3.382812 214.355469 3.550781 C 214.914062 3.71875 215.460938 3.917969 216.003906 4.140625 C 216.542969 4.363281 217.066406 4.613281 217.582031 4.890625 C 218.097656 5.164062 218.597656 5.464844 219.082031 5.789062 C 219.566406 6.113281 220.035156 6.460938 220.488281 6.832031 C 220.9375 7.203125 221.371094 7.59375 221.78125 8.007812 C 222.195312 8.417969 222.585938 8.851562 222.957031 9.304688 C 223.328125 9.753906 223.675781 10.222656 224 10.707031 C 224.324219 11.195312 224.621094 11.695312 224.898438 12.210938 C 225.171875 12.726562 225.421875 13.253906 225.644531 13.792969 C 225.867188 14.332031 226.066406 14.882812 226.234375 15.441406 C 226.402344 16 226.546875 16.566406 226.660156 17.136719 C 226.773438 17.710938 226.859375 18.289062 226.914062 18.867188 C 226.972656 19.449219 227 20.03125 227 20.617188 L 227 148.867188 C 227 149.453125 226.972656 150.035156 226.914062 150.613281 C 226.859375 151.195312 226.773438 151.773438 226.660156 152.347656 C 226.546875 152.917969 226.402344 153.484375 226.234375 154.042969 C 226.066406 154.601562 225.867188 155.152344 225.644531 155.691406 C 225.421875 156.230469 225.171875 156.757812 224.898438 157.273438 C 224.621094 157.789062 224.324219 158.289062 224 158.773438 C 223.675781 159.261719 223.328125 159.730469 222.957031 160.179688 C 222.585938 160.632812 222.195312 161.0625 221.78125 161.476562 C 221.371094 161.890625 220.9375 162.28125 220.488281 162.652344 C 220.035156 163.023438 219.566406 163.371094 219.082031 163.695312 C 218.597656 164.019531 218.097656 164.320312 217.582031 164.59375 C 217.066406 164.871094 216.542969 165.121094 216.003906 165.34375 C 215.460938 165.566406 214.914062 165.761719 214.355469 165.933594 C 213.796875 166.101562 213.230469 166.242188 212.660156 166.359375 C 212.085938 166.472656 211.511719 166.558594 210.929688 166.613281 C 210.347656 166.671875 209.765625 166.699219 209.183594 166.699219 L 20.941406 166.699219 C 20.359375 166.699219 19.777344 166.671875 19.195312 166.613281 C 18.613281 166.558594 18.039062 166.472656 17.464844 166.359375 C 16.894531 166.242188 16.328125 166.101562 15.769531 165.933594 C 15.210938 165.761719 14.664062 165.566406 14.125 165.34375 C 13.585938 165.121094 13.058594 164.871094 12.542969 164.59375 C 12.027344 164.320312 11.527344 164.019531 11.042969 163.695312 C 10.558594 163.371094 10.089844 163.023438 9.636719 162.652344 C 9.1875 162.28125 8.753906 161.890625 8.34375 161.476562 C 7.929688 161.0625 7.539062 160.632812 7.167969 160.179688 C 6.796875 159.730469 6.453125 159.261719 6.128906 158.773438 C 5.804688 158.289062 5.503906 157.789062 5.226562 157.273438 C 4.953125 156.757812 4.703125 156.230469 4.480469 155.691406 C 4.257812 155.152344 4.0625 154.601562 3.890625 154.042969 C 3.722656 153.484375 3.582031 152.917969 3.464844 152.347656 C 3.351562 151.773438 3.265625 151.195312 3.210938 150.613281 C 3.152344 150.035156 3.125 149.453125 3.125 148.867188 L 3.125 20.617188 C 3.125 20.03125 3.152344 19.449219 3.210938 18.867188 C 3.265625 18.289062 3.351562 17.710938 3.464844 17.136719 C 3.582031 16.566406 3.722656 16 3.890625 15.441406 C 4.0625 14.882812 4.257812 14.332031 4.480469 13.792969 C 4.703125 13.253906 4.953125 12.726562 5.226562 12.210938 C 5.503906 11.695312 5.804688 11.195312 6.128906 10.707031 C 6.453125 10.222656 6.796875 9.753906 7.167969 9.304688 C 7.539062 8.851562 7.929688 8.417969 8.34375 8.007812 C 8.753906 7.59375 9.1875 7.203125 9.636719 6.832031 C 10.089844 6.460938 10.558594 6.113281 11.042969 5.789062 C 11.527344 5.464844 12.027344 5.164062 12.542969 4.890625 C 13.058594 4.613281 13.585938 4.363281 14.125 4.140625 C 14.664062 3.917969 15.210938 3.71875 15.769531 3.550781 C 16.328125 3.382812 16.894531 3.238281 17.464844 3.125 C 18.039062 3.011719 18.613281 2.925781 19.195312 2.867188 C 19.777344 2.8125 20.359375 2.78125 20.941406 2.78125 Z M 20.941406 2.78125 " fill-opacity="1" fill-rule="nonzero"/><path fill="#dfe2eb" d="M 26.882812 2.78125 L 209.183594 2.78125 C 209.765625 2.78125 210.347656 2.8125 210.929688 2.867188 C 211.511719 2.925781 212.085938 3.011719 212.660156 3.125 C 213.230469 3.238281 213.796875 3.382812 214.355469 3.550781 C 214.914062 3.71875 215.464844 3.917969 216.003906 4.140625 C 216.542969 4.363281 217.066406 4.613281 217.582031 4.890625 C 218.097656 5.164062 218.597656 5.464844 219.082031 5.789062 C 219.566406 6.113281 220.035156 6.460938 220.488281 6.832031 C 220.9375 7.203125 221.371094 7.59375 221.78125 8.007812 C 222.195312 8.417969 222.585938 8.851562 222.957031 9.304688 C 223.328125 9.753906 223.675781 10.222656 224 10.707031 C 224.324219 11.195312 224.621094 11.695312 224.898438 12.210938 C 225.171875 12.726562 225.421875 13.253906 225.644531 13.792969 C 225.867188 14.332031 226.066406 14.882812 226.234375 15.441406 C 226.402344 16 226.546875 16.566406 226.660156 17.136719 C 226.773438 17.710938 226.859375 18.289062 226.914062 18.867188 C 226.972656 19.449219 227 20.03125 227 20.617188 L 227 148.867188 C 227 149.453125 226.972656 150.035156 226.914062 150.613281 C 226.859375 151.195312 226.773438 151.773438 226.660156 152.347656 C 226.546875 152.917969 226.402344 153.484375 226.234375 154.042969 C 226.066406 154.601562 225.867188 155.152344 225.644531 155.691406 C 225.421875 156.230469 225.171875 156.757812 224.898438 157.273438 C 224.621094 157.789062 224.324219 158.289062 224 158.773438 C 223.675781 159.261719 223.328125 159.730469 222.957031 160.179688 C 222.585938 160.632812 222.195312 161.0625 221.78125 161.476562 C 221.371094 161.890625 220.9375 162.28125 220.488281 162.652344 C 220.035156 163.023438 219.566406 163.371094 219.082031 163.695312 C 218.597656 164.019531 218.097656 164.320312 217.582031 164.59375 C 217.066406 164.871094 216.542969 165.121094 216.003906 165.34375 C 215.464844 165.566406 214.914062 165.761719 214.355469 165.933594 C 213.796875 166.101562 213.230469 166.242188 212.660156 166.359375 C 212.085938 166.472656 211.511719 166.558594 210.929688 166.613281 C 210.347656 166.671875 209.765625 166.699219 209.183594 166.699219 L 26.882812 166.699219 C 26.296875 166.699219 25.714844 166.671875 25.132812 166.613281 C 24.554688 166.558594 23.976562 166.472656 23.40625 166.359375 C 22.832031 166.242188 22.265625 166.101562 21.710938 165.933594 C 21.152344 165.761719 20.601562 165.566406 20.0625 165.34375 C 19.523438 165.121094 18.996094 164.871094 18.480469 164.59375 C 17.96875 164.320312 17.46875 164.019531 16.980469 163.695312 C 16.496094 163.371094 16.027344 163.023438 15.578125 162.652344 C 15.125 162.28125 14.695312 161.890625 14.28125 161.476562 C 13.871094 161.0625 13.476562 160.632812 13.109375 160.179688 C 12.738281 159.730469 12.390625 159.261719 12.066406 158.773438 C 11.742188 158.289062 11.441406 157.789062 11.167969 157.273438 C 10.890625 156.757812 10.644531 156.230469 10.417969 155.691406 C 10.195312 155.152344 10 154.601562 9.832031 154.042969 C 9.660156 153.484375 9.519531 152.917969 9.40625 152.347656 C 9.292969 151.773438 9.207031 151.195312 9.148438 150.613281 C 9.09375 150.035156 9.0625 149.453125 9.0625 148.867188 L 9.0625 20.617188 C 9.0625 20.03125 9.09375 19.449219 9.148438 18.867188 C 9.207031 18.289062 9.292969 17.710938 9.40625 17.136719 C 9.519531 16.566406 9.660156 16 9.832031 15.441406 C 10 14.882812 10.195312 14.332031 10.417969 13.792969 C 10.644531 13.253906 10.890625 12.726562 11.167969 12.210938 C 11.441406 11.695312 11.742188 11.195312 12.066406 10.707031 C 12.390625 10.222656 12.738281 9.753906 13.109375 9.304688 C 13.476562 8.851562 13.871094 8.417969 14.28125 8.007812 C 14.695312 7.59375 15.125 7.203125 15.578125 6.832031 C 16.027344 6.460938 16.496094 6.113281 16.980469 5.789062 C 17.46875 5.464844 17.96875 5.164062 18.480469 4.890625 C 18.996094 4.613281 19.523438 4.363281 20.0625 4.140625 C 20.601562 3.917969 21.152344 3.71875 21.710938 3.550781 C 22.265625 3.382812 22.832031 3.238281 23.40625 3.125 C 23.976562 3.011719 24.554688 2.925781 25.132812 2.867188 C 25.714844 2.8125 26.296875 2.78125 26.882812 2.78125 Z M 26.882812 2.78125 " fill-opacity="1" fill-rule="nonzero"/><path fill="#a9b0c2" d="M 26.882812 8.972656 L 209.179688 8.972656 C 209.761719 8.972656 210.34375 9 210.925781 9.058594 C 211.507812 9.117188 212.082031 9.199219 212.65625 9.316406 C 213.230469 9.429688 213.792969 9.570312 214.351562 9.738281 C 214.910156 9.910156 215.460938 10.105469 216 10.328125 C 216.539062 10.554688 217.066406 10.800781 217.582031 11.078125 C 218.09375 11.351562 218.59375 11.652344 219.082031 11.976562 C 219.566406 12.300781 220.035156 12.648438 220.484375 13.019531 C 220.9375 13.390625 221.367188 13.78125 221.78125 14.195312 C 222.195312 14.609375 222.585938 15.039062 222.957031 15.492188 C 223.324219 15.941406 223.671875 16.410156 223.996094 16.898438 C 224.320312 17.382812 224.621094 17.882812 224.898438 18.398438 C 225.171875 18.914062 225.421875 19.441406 225.644531 19.980469 C 225.867188 20.519531 226.0625 21.070312 226.234375 21.628906 C 226.402344 22.1875 226.542969 22.753906 226.660156 23.328125 C 226.773438 23.898438 226.859375 24.476562 226.914062 25.058594 C 226.972656 25.640625 227 26.222656 227 26.804688 L 227 43.421875 L 9.046875 43.421875 L 9.046875 26.804688 C 9.046875 26.222656 9.078125 25.640625 9.132812 25.058594 C 9.191406 24.476562 9.277344 23.898438 9.390625 23.324219 C 9.503906 22.753906 9.644531 22.1875 9.816406 21.625 C 9.984375 21.066406 10.183594 20.519531 10.40625 19.976562 C 10.628906 19.4375 10.878906 18.910156 11.152344 18.394531 C 11.429688 17.878906 11.730469 17.378906 12.054688 16.894531 C 12.378906 16.40625 12.726562 15.9375 13.097656 15.488281 C 13.46875 15.035156 13.859375 14.605469 14.273438 14.191406 C 14.683594 13.777344 15.117188 13.386719 15.570312 13.015625 C 16.019531 12.644531 16.488281 12.296875 16.976562 11.972656 C 17.460938 11.648438 17.960938 11.347656 18.476562 11.074219 C 18.992188 10.796875 19.519531 10.550781 20.058594 10.324219 C 20.597656 10.101562 21.148438 9.90625 21.707031 9.738281 C 22.265625 9.566406 22.832031 9.425781 23.402344 9.3125 C 23.976562 9.199219 24.550781 9.113281 25.132812 9.058594 C 25.714844 9 26.296875 8.972656 26.882812 8.972656 Z M 26.882812 8.972656 " fill-opacity="1" fill-rule="nonzero"/><g clip-path="url(#5f64d8419f)"><path stroke-linecap="butt" transform="matrix(0.389202, 0, 0, 0.389547, 0.446579, 0.103033)" fill="none" stroke-linejoin="miter" d="M 52.658556 6.875207 L 536.320186 6.875207 C 537.815633 6.875207 539.31108 6.955428 540.806527 7.095816 C 542.301974 7.246231 543.777347 7.466839 545.252721 7.757642 C 546.718058 8.048444 548.173359 8.419468 549.608586 8.850658 C 551.043814 9.281848 552.448932 9.793259 553.844013 10.364836 C 555.229058 10.936413 556.573956 11.578184 557.898782 12.290148 C 559.223607 12.992085 560.508286 13.764216 561.752819 14.596512 C 562.997352 15.428809 564.201739 16.321271 565.365979 17.2739 C 566.520183 18.226528 567.634241 19.229295 568.688079 20.292228 C 569.751954 21.345134 570.75561 22.458205 571.709083 23.621414 C 572.662555 24.774596 573.555809 25.977917 574.388843 27.221348 C 575.221877 28.474806 575.984655 29.758348 576.697251 31.082 C 577.39981 32.405653 578.042149 33.759388 578.614233 35.143206 C 579.186317 36.527025 579.698181 37.940926 580.129753 39.374883 C 580.561325 40.808839 580.932678 42.262851 581.223738 43.726891 C 581.514798 45.200958 581.735602 46.685053 581.876114 48.169148 C 582.026662 49.663271 582.096918 51.157394 582.096918 52.661544 L 582.096918 381.889976 C 582.096918 383.394127 582.026662 384.888249 581.876114 386.372345 C 581.735602 387.866467 581.514798 389.350562 581.223738 390.82463 C 580.932678 392.288669 580.561325 393.742681 580.129753 395.176638 C 579.698181 396.610595 579.186317 398.024496 578.614233 399.408314 C 578.042149 400.792133 577.39981 402.145868 576.697251 403.46952 C 575.984655 404.793173 575.221877 406.076714 574.388843 407.320145 C 573.555809 408.573604 572.662555 409.776924 571.709083 410.930106 C 570.75561 412.093316 569.751954 413.196359 568.688079 414.259292 C 567.634241 415.322225 566.520183 416.324992 565.365979 417.277621 C 564.201739 418.230249 562.997352 419.122712 561.752819 419.955008 C 560.508286 420.787305 559.223607 421.559435 557.898782 422.261372 C 556.573956 422.973337 555.229058 423.615108 553.844013 424.186685 C 552.448932 424.758262 551.043814 425.259645 549.608586 425.700863 C 548.173359 426.132053 546.718058 426.493049 545.252721 426.793879 C 543.777347 427.084681 542.301974 427.30529 540.806527 427.445677 C 539.31108 427.596092 537.815633 427.666286 536.320186 427.666286 L 52.658556 427.666286 C 51.163109 427.666286 49.667662 427.596092 48.172215 427.445677 C 46.676768 427.30529 45.201395 427.084681 43.726021 426.793879 C 42.260684 426.493049 40.805383 426.132053 39.370156 425.700863 C 37.934928 425.259645 36.52981 424.758262 35.144766 424.186685 C 33.759721 423.615108 32.404786 422.973337 31.07996 422.261372 C 29.755135 421.559435 28.470456 420.787305 27.225923 419.955008 C 25.98139 419.122712 24.777003 418.230249 23.612763 417.277621 C 22.458559 416.324992 21.344501 415.322225 20.290663 414.259292 C 19.226788 413.196359 18.223132 412.093316 17.26966 410.930106 C 16.316187 409.776924 15.43297 408.573604 14.599936 407.320145 C 13.766901 406.076714 12.994087 404.793173 12.281491 403.46952 C 11.578932 402.145868 10.936593 400.792133 10.364509 399.408314 C 9.792425 398.024496 9.290598 396.610595 8.848989 395.176638 C 8.417417 393.742681 8.056101 392.288669 7.755004 390.82463 C 7.463944 389.350562 7.24314 387.866467 7.102628 386.372345 C 6.95208 384.888249 6.881824 383.394127 6.881824 381.889976 L 6.881824 52.661544 C 6.881824 51.157394 6.95208 49.663271 7.102628 48.169148 C 7.24314 46.685053 7.463944 45.200958 7.755004 43.726891 C 8.056101 42.262851 8.417417 40.808839 8.848989 39.374883 C 9.290598 37.940926 9.792425 36.527025 10.364509 35.143206 C 10.936593 33.759388 11.578932 32.405653 12.281491 31.082 C 12.994087 29.758348 13.766901 28.474806 14.599936 27.221348 C 15.43297 25.977917 16.316187 24.774596 17.26966 23.621414 C 18.223132 22.458205 19.226788 21.345134 20.290663 20.292228 C 21.344501 19.229295 22.458559 18.226528 23.612763 17.2739 C 24.777003 16.321271 25.98139 15.428809 27.225923 14.596512 C 28.470456 13.764216 29.755135 12.992085 31.07996 12.290148 C 32.404786 11.578184 33.759721 10.936413 35.144766 10.364836 C 36.52981 9.793259 37.934928 9.281848 39.370156 8.850658 C 40.805383 8.419468 42.260684 8.048444 43.726021 7.757642 C 45.201395 7.466839 46.676768 7.246231 48.172215 7.095816 C 49.667662 6.955428 51.163109 6.875207 52.658556 6.875207 Z M 52.658556 6.875207 " stroke="#000000" stroke-width="13.76" stroke-opacity="1" stroke-miterlimit="10"/></g><path fill="#f1f2f3" d="M 106.652344 62.695312 L 65.871094 133.390625 C 65.445312 134.128906 65.121094 134.910156 64.902344 135.734375 C 64.679688 136.558594 64.570312 137.394531 64.570312 138.25 C 64.570312 139.101562 64.679688 139.9375 64.902344 140.761719 C 65.121094 141.585938 65.445312 142.367188 65.871094 143.105469 C 66.296875 143.84375 66.8125 144.515625 67.414062 145.117188 C 68.015625 145.722656 68.6875 146.234375 69.425781 146.660156 C 70.164062 147.089844 70.941406 147.410156 71.765625 147.632812 C 72.589844 147.851562 73.425781 147.964844 74.277344 147.964844 L 155.835938 147.964844 C 156.6875 147.964844 157.523438 147.851562 158.347656 147.632812 C 159.171875 147.410156 159.953125 147.089844 160.6875 146.660156 C 161.425781 146.234375 162.097656 145.722656 162.699219 145.117188 C 163.300781 144.515625 163.816406 143.84375 164.242188 143.105469 C 164.667969 142.367188 164.992188 141.585938 165.210938 140.761719 C 165.433594 139.9375 165.542969 139.101562 165.542969 138.25 C 165.542969 137.394531 165.433594 136.558594 165.210938 135.734375 C 164.992188 134.910156 164.667969 134.128906 164.242188 133.390625 L 123.464844 62.695312 C 123.253906 62.328125 123.015625 61.976562 122.757812 61.644531 C 122.5 61.308594 122.21875 60.992188 121.917969 60.691406 C 121.617188 60.394531 121.300781 60.113281 120.960938 59.859375 C 120.625 59.601562 120.273438 59.367188 119.90625 59.15625 C 119.539062 58.945312 119.160156 58.757812 118.769531 58.597656 C 118.378906 58.433594 117.976562 58.296875 117.566406 58.1875 C 117.160156 58.082031 116.742188 57.996094 116.324219 57.941406 C 115.902344 57.886719 115.480469 57.859375 115.058594 57.859375 C 114.636719 57.859375 114.214844 57.886719 113.792969 57.941406 C 113.375 57.996094 112.960938 58.082031 112.550781 58.1875 C 112.140625 58.296875 111.742188 58.433594 111.347656 58.597656 C 110.957031 58.757812 110.578125 58.945312 110.210938 59.15625 C 109.84375 59.367188 109.492188 59.601562 109.15625 59.859375 C 108.820312 60.113281 108.5 60.394531 108.199219 60.691406 C 107.898438 60.992188 107.621094 61.308594 107.359375 61.644531 C 107.101562 61.976562 106.867188 62.328125 106.652344 62.695312 Z M 106.652344 62.695312 " fill-opacity="1" fill-rule="nonzero"/><path fill="#eb4753" d="M 108.453125 67.042969 L 70.472656 133.417969 C 70.261719 133.785156 70.074219 134.164062 69.914062 134.558594 C 69.753906 134.949219 69.621094 135.351562 69.511719 135.761719 C 69.402344 136.171875 69.320312 136.585938 69.265625 137.003906 C 69.210938 137.425781 69.1875 137.847656 69.1875 138.273438 C 69.1875 138.695312 69.214844 139.117188 69.273438 139.539062 C 69.328125 139.957031 69.414062 140.371094 69.523438 140.78125 C 69.632812 141.191406 69.769531 141.589844 69.933594 141.984375 C 70.09375 142.375 70.28125 142.753906 70.496094 143.121094 C 70.707031 143.488281 70.941406 143.835938 71.203125 144.171875 C 71.460938 144.507812 71.738281 144.828125 72.039062 145.125 C 72.339844 145.425781 72.65625 145.703125 72.992188 145.960938 C 73.328125 146.21875 73.679688 146.453125 74.046875 146.664062 C 74.414062 146.878906 74.792969 147.0625 75.183594 147.226562 C 75.578125 147.386719 75.976562 147.523438 76.386719 147.632812 C 76.792969 147.742188 77.210938 147.824219 77.628906 147.878906 C 78.050781 147.9375 78.46875 147.964844 78.894531 147.964844 L 154.863281 147.964844 C 155.285156 147.964844 155.707031 147.9375 156.128906 147.878906 C 156.546875 147.824219 156.960938 147.742188 157.371094 147.632812 C 157.78125 147.523438 158.179688 147.386719 158.570312 147.226562 C 158.964844 147.0625 159.34375 146.878906 159.710938 146.664062 C 160.078125 146.453125 160.429688 146.21875 160.765625 145.960938 C 161.101562 145.703125 161.417969 145.425781 161.71875 145.125 C 162.019531 144.828125 162.296875 144.507812 162.554688 144.171875 C 162.8125 143.835938 163.050781 143.484375 163.261719 143.121094 C 163.472656 142.753906 163.660156 142.375 163.824219 141.984375 C 163.988281 141.589844 164.125 141.191406 164.234375 140.78125 C 164.34375 140.371094 164.425781 139.957031 164.484375 139.539062 C 164.539062 139.117188 164.570312 138.695312 164.570312 138.273438 C 164.570312 137.847656 164.542969 137.425781 164.488281 137.003906 C 164.4375 136.585938 164.355469 136.171875 164.246094 135.761719 C 164.136719 135.351562 164.003906 134.949219 163.84375 134.558594 C 163.679688 134.164062 163.496094 133.785156 163.285156 133.417969 L 125.296875 67.042969 C 124.875 66.300781 124.359375 65.625 123.757812 65.019531 C 123.15625 64.410156 122.484375 63.894531 121.746094 63.464844 C 121.003906 63.035156 120.222656 62.707031 119.398438 62.488281 C 118.570312 62.265625 117.730469 62.152344 116.875 62.152344 C 116.023438 62.152344 115.179688 62.265625 114.355469 62.488281 C 113.53125 62.707031 112.746094 63.035156 112.007812 63.464844 C 111.269531 63.894531 110.597656 64.410156 109.996094 65.019531 C 109.390625 65.625 108.878906 66.300781 108.453125 67.042969 Z M 108.453125 67.042969 " fill-opacity="1" fill-rule="nonzero"/><g clip-path="url(#5ee1abb6dd)"><path stroke-linecap="butt" transform="matrix(0.389202, 0, 0, 0.389547, 0.446579, 0.103033)" fill="none" stroke-linejoin="miter" d="M 272.900739 160.679596 L 168.129132 342.160351 C 167.035147 344.055581 166.202113 346.061115 165.640066 348.176953 C 165.067982 350.292791 164.786959 352.438712 164.786959 354.634772 C 164.786959 356.820804 165.067982 358.966725 165.640066 361.082563 C 166.202113 363.198401 167.035147 365.203935 168.129132 367.099164 C 169.223116 368.994394 170.547942 370.719153 172.093571 372.263414 C 173.639201 373.817703 175.365489 375.131327 177.262398 376.224343 C 179.159307 377.327387 181.156581 378.149656 183.274295 378.721233 C 185.392008 379.282782 187.539831 379.573585 189.7278 379.573585 L 399.271015 379.573585 C 401.458984 379.573585 403.606807 379.282782 405.724521 378.721233 C 407.842234 378.149656 409.849545 377.327387 411.736418 376.224343 C 413.633327 375.131327 415.359614 373.817703 416.905244 372.263414 C 418.450873 370.719153 419.775699 368.994394 420.869683 367.099164 C 421.963668 365.203935 422.796702 363.198401 423.358749 361.082563 C 423.930833 358.966725 424.211857 356.820804 424.211857 354.634772 C 424.211857 352.438712 423.930833 350.292791 423.358749 348.176953 C 422.796702 346.061115 421.963668 344.055581 420.869683 342.160351 L 316.098076 160.679596 C 315.556102 159.736995 314.943872 158.834505 314.281459 157.982153 C 313.619047 157.119773 312.896415 156.307532 312.1236 155.535402 C 311.350785 154.773299 310.537824 154.051307 309.664644 153.399508 C 308.8015 152.737682 307.89821 152.136022 306.954774 151.594528 C 306.011337 151.053033 305.037791 150.571705 304.034136 150.160571 C 303.03048 149.739409 301.996715 149.38844 300.942877 149.107666 C 299.899075 148.836919 298.825163 148.61631 297.751252 148.475923 C 296.667304 148.335535 295.583356 148.265341 294.499408 148.265341 C 293.41546 148.265341 292.331512 148.335535 291.247563 148.475923 C 290.173652 148.61631 289.109777 148.836919 288.055939 149.107666 C 287.0021 149.38844 285.978372 149.739409 284.964679 150.160571 C 283.961024 150.571705 282.987478 151.053033 282.044042 151.594528 C 281.100605 152.136022 280.197315 152.737682 279.334172 153.399508 C 278.471028 154.051307 277.64803 154.773299 276.875215 155.535402 C 276.102401 156.307532 275.389805 157.119773 274.717356 157.982153 C 274.054943 158.834505 273.45275 159.736995 272.900739 160.679596 Z M 272.900739 160.679596 " stroke="#000000" stroke-width="7.37" stroke-opacity="1" stroke-miterlimit="10"/></g><path fill="#000000" d="M 110.003906 117.914062 L 110.003906 86.609375 C 110.003906 86.316406 110.03125 86.023438 110.089844 85.734375 C 110.148438 85.449219 110.230469 85.167969 110.34375 84.894531 C 110.457031 84.625 110.59375 84.367188 110.757812 84.121094 C 110.921875 83.878906 111.109375 83.652344 111.316406 83.445312 C 111.523438 83.234375 111.75 83.050781 111.996094 82.886719 C 112.238281 82.722656 112.496094 82.585938 112.769531 82.476562 C 113.042969 82.363281 113.320312 82.277344 113.609375 82.222656 C 113.898438 82.164062 114.1875 82.136719 114.484375 82.136719 L 115.652344 82.136719 C 115.945312 82.136719 116.234375 82.167969 116.523438 82.222656 C 116.808594 82.28125 117.089844 82.367188 117.359375 82.476562 C 117.632812 82.589844 117.890625 82.726562 118.132812 82.890625 C 118.375 83.054688 118.601562 83.238281 118.808594 83.449219 C 119.015625 83.65625 119.203125 83.882812 119.367188 84.125 C 119.527344 84.371094 119.667969 84.628906 119.777344 84.898438 C 119.890625 85.167969 119.976562 85.449219 120.03125 85.738281 C 120.089844 86.023438 120.117188 86.316406 120.117188 86.609375 L 120.117188 117.914062 C 120.117188 118.207031 120.089844 118.5 120.03125 118.785156 C 119.976562 119.074219 119.890625 119.355469 119.777344 119.625 C 119.667969 119.894531 119.527344 120.152344 119.367188 120.398438 C 119.203125 120.640625 119.015625 120.867188 118.808594 121.074219 C 118.601562 121.285156 118.375 121.46875 118.132812 121.632812 C 117.890625 121.796875 117.632812 121.933594 117.359375 122.046875 C 117.089844 122.15625 116.808594 122.242188 116.523438 122.300781 C 116.234375 122.355469 115.945312 122.386719 115.652344 122.386719 L 114.484375 122.386719 C 114.1875 122.386719 113.898438 122.359375 113.609375 122.300781 C 113.320312 122.246094 113.042969 122.160156 112.769531 122.046875 C 112.496094 121.9375 112.238281 121.800781 111.996094 121.636719 C 111.75 121.472656 111.523438 121.289062 111.316406 121.082031 C 111.109375 120.871094 110.921875 120.644531 110.757812 120.402344 C 110.59375 120.15625 110.457031 119.898438 110.34375 119.628906 C 110.230469 119.355469 110.148438 119.074219 110.089844 118.789062 C 110.03125 118.5 110.003906 118.207031 110.003906 117.914062 Z M 110.003906 131.328125 C 110.003906 131.035156 110.03125 130.746094 110.089844 130.457031 C 110.148438 130.167969 110.230469 129.886719 110.34375 129.617188 C 110.457031 129.34375 110.59375 129.085938 110.757812 128.839844 C 110.921875 128.597656 111.109375 128.371094 111.316406 128.164062 C 111.523438 127.957031 111.75 127.769531 111.996094 127.605469 C 112.238281 127.445312 112.496094 127.308594 112.769531 127.195312 C 113.042969 127.082031 113.320312 127 113.609375 126.941406 C 113.898438 126.886719 114.1875 126.855469 114.484375 126.859375 L 115.652344 126.859375 C 115.945312 126.859375 116.234375 126.886719 116.523438 126.945312 C 116.808594 127 117.089844 127.085938 117.359375 127.199219 C 117.632812 127.3125 117.890625 127.449219 118.132812 127.613281 C 118.375 127.773438 118.601562 127.960938 118.808594 128.167969 C 119.015625 128.375 119.203125 128.601562 119.367188 128.84375 C 119.527344 129.089844 119.667969 129.347656 119.777344 129.617188 C 119.890625 129.890625 119.976562 130.167969 120.03125 130.457031 C 120.089844 130.746094 120.117188 131.035156 120.117188 131.328125 C 120.117188 131.625 120.089844 131.914062 120.03125 132.203125 C 119.976562 132.488281 119.890625 132.769531 119.777344 133.042969 C 119.667969 133.3125 119.527344 133.570312 119.367188 133.8125 C 119.203125 134.058594 119.015625 134.285156 118.808594 134.492188 C 118.601562 134.699219 118.375 134.886719 118.132812 135.046875 C 117.890625 135.210938 117.632812 135.347656 117.359375 135.460938 C 117.089844 135.574219 116.808594 135.660156 116.523438 135.714844 C 116.234375 135.773438 115.945312 135.800781 115.652344 135.800781 L 114.484375 135.800781 C 114.1875 135.800781 113.898438 135.773438 113.609375 135.71875 C 113.320312 135.660156 113.042969 135.578125 112.769531 135.464844 C 112.496094 135.351562 112.238281 135.214844 111.996094 135.050781 C 111.75 134.890625 111.523438 134.703125 111.316406 134.496094 C 111.109375 134.289062 110.921875 134.0625 110.757812 133.816406 C 110.59375 133.574219 110.457031 133.316406 110.34375 133.042969 C 110.230469 132.773438 110.148438 132.492188 110.089844 132.203125 C 110.03125 131.914062 110.003906 131.625 110.003906 131.328125 Z M 110.003906 131.328125 " fill-opacity="1" fill-rule="nonzero"/><path fill="#000000" d="M 43.648438 35.382812 L 43.648438 17.007812 L 47.539062 17.007812 L 58.273438 29.816406 L 58.273438 17.007812 L 62 17.007812 L 62 35.382812 L 58.105469 35.382812 L 47.320312 22.527344 L 47.320312 35.382812 Z M 43.648438 35.382812 " fill-opacity="1" fill-rule="nonzero"/><path fill="#000000" d="M 66.527344 34.886719 C 65.984375 34.554688 65.546875 34.117188 65.21875 33.570312 C 64.878906 33.023438 64.714844 32.429688 64.71875 31.785156 L 64.71875 24.179688 C 64.714844 23.535156 64.878906 22.941406 65.21875 22.394531 C 65.546875 21.847656 65.984375 21.410156 66.527344 21.082031 C 67.078125 20.742188 67.671875 20.578125 68.316406 20.582031 L 76.101562 20.582031 C 76.75 20.574219 77.355469 20.742188 77.910156 21.082031 C 78.453125 21.40625 78.886719 21.84375 79.210938 22.394531 C 79.539062 22.945312 79.699219 23.539062 79.695312 24.179688 L 79.695312 31.785156 C 79.699219 32.425781 79.539062 33.019531 79.210938 33.570312 C 78.886719 34.117188 78.453125 34.558594 77.910156 34.886719 C 77.355469 35.222656 76.75 35.390625 76.101562 35.382812 L 68.316406 35.382812 C 67.671875 35.386719 67.078125 35.222656 66.527344 34.886719 Z M 68.476562 31.769531 L 75.953125 31.769531 C 75.992188 31.769531 76.027344 31.75 76.054688 31.71875 C 76.085938 31.691406 76.105469 31.660156 76.109375 31.617188 L 76.109375 24.359375 C 76.105469 24.316406 76.085938 24.28125 76.054688 24.253906 C 76.027344 24.222656 75.992188 24.207031 75.953125 24.203125 L 68.492188 24.203125 C 68.449219 24.210938 68.417969 24.226562 68.390625 24.253906 C 68.359375 24.28125 68.339844 24.316406 68.339844 24.359375 L 68.339844 31.605469 C 68.339844 31.648438 68.355469 31.679688 68.390625 31.707031 C 68.417969 31.738281 68.449219 31.753906 68.492188 31.757812 Z M 68.476562 31.769531 " fill-opacity="1" fill-rule="nonzero"/><path fill="#000000" d="M 83.761719 34.886719 C 83.21875 34.554688 82.78125 34.117188 82.453125 33.570312 C 82.113281 33.023438 81.949219 32.425781 81.953125 31.785156 L 81.953125 16.117188 L 85.578125 16.117188 L 85.578125 20.582031 L 91.207031 20.582031 L 91.207031 24.203125 L 85.578125 24.203125 L 85.578125 31.605469 C 85.589844 31.695312 85.640625 31.746094 85.730469 31.757812 L 91.207031 31.757812 L 91.207031 35.382812 L 85.578125 35.382812 C 84.925781 35.390625 84.320312 35.226562 83.761719 34.886719 Z M 83.761719 34.886719 " fill-opacity="1" fill-rule="nonzero"/><path fill="#000000" d="M 101.460938 35.382812 L 101.460938 17.007812 L 118.375 17.007812 L 118.375 20.710938 L 105.179688 20.710938 L 105.179688 24.332031 L 115.8125 24.332031 L 115.8125 28.058594 L 105.179688 28.058594 L 105.179688 35.382812 Z M 101.460938 35.382812 " fill-opacity="1" fill-rule="nonzero"/><path fill="#000000" d="M 121.523438 34.886719 C 120.976562 34.554688 120.539062 34.117188 120.210938 33.570312 C 119.875 33.023438 119.710938 32.425781 119.714844 31.785156 L 119.714844 24.179688 C 119.710938 23.539062 119.875 22.941406 120.210938 22.394531 C 120.539062 21.847656 120.976562 21.410156 121.523438 21.082031 C 122.070312 20.742188 122.667969 20.578125 123.308594 20.582031 L 131.09375 20.582031 C 131.746094 20.574219 132.351562 20.742188 132.90625 21.082031 C 133.449219 21.410156 133.882812 21.847656 134.207031 22.394531 C 134.546875 22.941406 134.71875 23.535156 134.722656 24.179688 L 134.722656 31.785156 C 134.726562 32.425781 134.566406 33.019531 134.238281 33.570312 C 133.914062 34.117188 133.480469 34.554688 132.9375 34.886719 C 132.382812 35.226562 131.777344 35.390625 131.125 35.382812 L 123.339844 35.382812 C 122.6875 35.394531 122.082031 35.226562 121.523438 34.886719 Z M 123.488281 31.769531 L 130.933594 31.769531 C 130.976562 31.765625 131.007812 31.75 131.035156 31.71875 C 131.066406 31.691406 131.085938 31.660156 131.085938 31.617188 L 131.085938 24.359375 C 131.085938 24.316406 131.066406 24.28125 131.035156 24.253906 C 131.007812 24.226562 130.972656 24.210938 130.933594 24.203125 L 123.488281 24.203125 C 123.449219 24.207031 123.414062 24.222656 123.386719 24.253906 C 123.355469 24.28125 123.335938 24.316406 123.332031 24.359375 L 123.332031 31.605469 C 123.335938 31.648438 123.355469 31.679688 123.386719 31.707031 C 123.414062 31.738281 123.449219 31.757812 123.488281 31.757812 Z M 123.488281 31.769531 " fill-opacity="1" fill-rule="nonzero"/><path fill="#000000" d="M 138.542969 34.886719 C 137.992188 34.558594 137.554688 34.121094 137.230469 33.570312 C 136.902344 33.019531 136.742188 32.425781 136.746094 31.785156 L 136.746094 20.582031 L 140.367188 20.582031 L 140.367188 31.605469 C 140.382812 31.695312 140.433594 31.746094 140.519531 31.757812 L 147.953125 31.757812 C 147.996094 31.753906 148.027344 31.738281 148.054688 31.707031 C 148.085938 31.679688 148.105469 31.648438 148.105469 31.605469 L 148.105469 20.582031 L 151.726562 20.582031 L 151.726562 31.785156 C 151.730469 32.425781 151.570312 33.019531 151.242188 33.570312 C 150.921875 34.117188 150.488281 34.558594 149.941406 34.886719 C 149.386719 35.222656 148.785156 35.390625 148.132812 35.382812 L 140.339844 35.382812 C 139.695312 35.386719 139.097656 35.222656 138.542969 34.886719 Z M 138.542969 34.886719 " fill-opacity="1" fill-rule="nonzero"/><path fill="#000000" d="M 154.515625 35.382812 L 154.515625 20.582031 L 165.914062 20.582031 C 166.566406 20.574219 167.167969 20.742188 167.726562 21.082031 C 168.269531 21.410156 168.703125 21.847656 169.027344 22.394531 C 169.351562 22.945312 169.515625 23.539062 169.507812 24.179688 L 169.507812 35.382812 L 165.886719 35.382812 L 165.886719 24.359375 C 165.890625 24.320312 165.878906 24.285156 165.859375 24.253906 C 165.828125 24.21875 165.789062 24.203125 165.746094 24.203125 L 158.292969 24.203125 C 158.203125 24.21875 158.152344 24.269531 158.140625 24.359375 L 158.140625 35.382812 Z M 154.515625 35.382812 " fill-opacity="1" fill-rule="nonzero"/><path fill="#000000" d="M 173.253906 34.886719 C 172.707031 34.554688 172.277344 34.117188 171.953125 33.570312 C 171.625 33.019531 171.464844 32.425781 171.46875 31.785156 L 171.46875 24.179688 C 171.464844 23.539062 171.625 22.945312 171.953125 22.394531 C 172.277344 21.847656 172.707031 21.410156 173.253906 21.082031 C 173.816406 20.738281 174.429688 20.574219 175.089844 20.582031 L 182.875 20.582031 L 182.875 15.730469 L 186.484375 15.730469 L 186.484375 35.382812 L 175.09375 35.382812 C 174.433594 35.394531 173.820312 35.226562 173.253906 34.886719 Z M 175.269531 31.769531 L 182.714844 31.769531 C 182.753906 31.765625 182.789062 31.75 182.816406 31.71875 C 182.847656 31.691406 182.863281 31.660156 182.867188 31.617188 L 182.867188 24.359375 C 182.863281 24.316406 182.847656 24.28125 182.816406 24.253906 C 182.789062 24.226562 182.753906 24.207031 182.714844 24.203125 L 175.273438 24.203125 C 175.183594 24.21875 175.132812 24.269531 175.121094 24.359375 L 175.121094 31.605469 C 175.132812 31.695312 175.183594 31.746094 175.273438 31.757812 Z M 175.269531 31.769531 " fill-opacity="1" fill-rule="nonzero"/></svg>