<svg width="540" height="585" viewBox="0 0 540 585" fill="none" xmlns="http://www.w3.org/2000/svg">
<circle cx="269" cy="330" r="255" fill="#EF4444"/>
<circle cx="269" cy="330" r="213" fill="white"/>
<path d="M247.714 47.0062H293.081V88H247.714V47.0062Z" fill="#EF4444"/>
<path d="M210 23.5031C210 10.5227 220.523 0 233.503 0H305.106C318.086 0 328.609 10.5227 328.609 23.5031V23.5031C328.609 36.4835 318.086 47.0062 305.106 47.0062H233.503C220.523 47.0062 210 36.4835 210 23.5031V23.5031Z" fill="#FFBA0A"/>
<path d="M54.2646 152.922L83.3226 123.864L109.58 150.122L80.5218 179.179L54.2646 152.922Z" fill="#EF4444"/>
<path d="M15.0541 162.025C6.73995 153.711 6.73996 140.231 15.0541 131.917L60.9166 86.0541C69.2308 77.7399 82.7107 77.7399 91.0248 86.0541V86.0541C99.339 94.3683 99.339 107.848 91.0248 116.162L45.1623 162.025C36.8482 170.339 23.3683 170.339 15.0541 162.025V162.025Z" fill="#FFBA0A"/>
<path d="M458.362 125.031L486.734 154.663L459.959 180.3L431.587 150.669L458.362 125.031Z" fill="#EF4444"/>
<path d="M450.126 85.699C458.605 77.5809 472.058 77.873 480.176 86.3512L524.957 133.119C533.075 141.597 532.783 155.051 524.305 163.169V163.169C515.827 171.287 502.373 170.995 494.255 162.517L449.474 115.749C441.356 107.271 441.648 93.817 450.126 85.699V85.699Z" fill="#FFBA0A"/>
</svg>
