<svg width="249" height="179" viewBox="0 0 249 179" fill="none" xmlns="http://www.w3.org/2000/svg">
<path fill-rule="evenodd" clip-rule="evenodd" d="M206.433 27.4753C205.475 26.5128 204.383 25.6799 203.178 25.0096C203.66 25.8601 204.062 26.7589 204.378 27.6929C205.06 27.5984 205.743 27.5259 206.433 27.4753ZM189.096 17.5489C187.132 14.8898 184.842 12.4813 182.271 10.3936C184.143 12.7032 185.758 15.2238 187.086 17.9049C187.745 17.7379 188.415 17.6192 189.096 17.5489ZM47.28 144.661C51.9059 150.452 58.2481 154.84 65.7727 156.88C73.6554 159.016 81.6106 158.24 88.5879 155.194C90.5042 158.411 93.5632 160.895 97.3541 161.923C101.332 163.002 105.353 162.266 108.617 160.213C114.284 166.971 121.888 172.085 130.843 174.513C146.266 178.693 161.904 173.876 172.659 163.196C174.118 164.316 175.801 165.173 177.665 165.679C184.007 167.397 190.461 164.51 193.773 159.011C194.375 159.209 194.986 159.392 195.606 159.561C216.074 165.107 236.986 152.285 242.304 130.929C244.607 121.677 243.605 112.341 240.067 104.276C242.691 102.268 244.693 99.3383 245.576 95.798C246.719 91.1985 245.732 86.5418 243.256 82.9708C244.396 80.7073 245.306 78.2746 245.948 75.6946C249.376 61.9224 244.203 47.926 233.918 39.8982C240.258 48.0117 242.939 59.0567 240.223 69.9633C239.581 72.5433 238.669 74.976 237.531 77.2417C240.008 80.8106 240.994 85.4672 239.852 90.0668C238.968 93.6071 236.966 96.5364 234.345 98.5472C237.88 106.61 238.88 115.945 236.579 125.197C231.261 146.553 210.349 159.376 189.881 153.829C189.261 153.66 188.652 153.478 188.048 153.28C184.736 158.778 178.282 161.666 171.94 159.948C170.079 159.442 168.395 158.585 166.934 157.464C156.179 168.145 140.543 172.962 125.118 168.782C116.163 166.354 108.56 161.24 102.892 154.482C99.6286 156.535 95.607 157.271 91.6294 156.192C87.8385 155.163 84.7795 152.68 82.8632 149.463C75.8859 152.509 67.9307 153.285 60.048 151.148C55.2682 149.852 50.9676 147.61 47.28 144.661ZM28.0754 126.672C29.9785 130.041 33.1078 132.654 37.0195 133.713C37.4151 133.821 37.8129 133.911 38.2062 133.981C37.2085 132.221 36.3449 130.373 35.6329 128.461C34.2088 128.527 32.7496 128.375 31.2948 127.982C30.1499 127.672 29.0753 127.228 28.0754 126.672ZM11.3408 106.366C13.8658 109.526 16.9029 112.267 20.3619 114.44C20.2894 113.513 20.2938 112.568 20.3883 111.621C17.0787 110.311 14.046 108.529 11.3408 106.366Z" fill="#CEE5FF"/>
<rect x="190.873" y="107.894" width="104.748" height="36.9625" rx="17.5" transform="rotate(-180 190.873 107.894)" fill="#FFE2A9" stroke="#FFBA0A" stroke-width="5"/>
<circle cx="138.499" cy="48.4183" r="12.3483" fill="#FFE2A9" stroke="#FFBA0A" stroke-width="5"/>
<circle cx="138.499" cy="130.406" r="12.3483" fill="#FFE2A9" stroke="#FFBA0A" stroke-width="5"/>
<path fill-rule="evenodd" clip-rule="evenodd" d="M104.953 11.4549H104.949L104.872 11.4329C102.167 10.7011 99.3957 10.233 96.6003 10.0463C93.8907 9.86385 91.1657 9.95175 88.4737 10.299C74.8685 12.0504 62.9906 20.3265 56.1429 32.1781L54.8002 34.5009L52.1433 34.1449C51.6005 34.0724 51.0533 34.0372 50.5061 34.0372C49.6073 34.0394 48.7085 34.1383 47.8317 34.3383C43.0563 35.4371 39.4545 39.2477 38.2766 43.9747L37.547 46.8799L34.8286 47.2205C33.343 47.4095 31.8707 47.6996 30.4246 48.0907C28.5567 48.594 26.7349 49.2708 24.9834 50.0949C15.4328 54.5956 8.64664 63.2452 6.10184 73.453L6.09964 73.4574L6.07767 73.5453C5.48432 75.9516 5.13271 78.4173 5.03162 80.894C4.93053 83.3201 5.07337 85.7528 5.45355 88.1504C7.30831 99.8437 14.7669 110.175 25.6581 114.983L28.0886 116.055L28.0491 118.714C28.0403 119.222 28.0622 119.732 28.1106 120.239C28.1963 121.112 28.3611 121.976 28.6094 122.817C29.8796 127.127 33.176 130.59 37.5448 131.775L37.58 131.783C37.7514 131.829 37.9272 131.869 38.1008 131.906C38.2744 131.944 38.4524 131.985 38.6282 132.018C39.138 132.109 39.6545 132.163 40.1731 132.185L42.7267 132.295L43.7024 134.662C44.1244 135.686 44.5968 136.691 45.1089 137.673C45.8143 139.018 46.6054 140.319 47.4735 141.565C52.0334 148.094 58.5932 152.851 66.2913 154.937L66.3199 154.946C67.3462 155.223 68.39 155.451 69.4383 155.627C70.4711 155.801 71.5106 155.926 72.5544 155.998C77.2529 156.33 81.9996 155.605 86.397 153.92L89.2033 152.843L91.0273 155.247L91.0646 155.291L91.1438 155.396C91.3943 155.728 91.6602 156.047 91.9415 156.352C93.5413 158.097 95.5653 159.35 97.8508 159.976L97.8552 159.978L97.8925 159.987C98.3628 160.114 98.8441 160.213 99.3275 160.284C99.7978 160.352 100.272 160.389 100.749 160.4C102.701 160.451 104.65 160.011 106.402 159.15L109.122 157.811L111.148 160.071C111.601 160.572 112.065 161.064 112.539 161.545C113.368 162.385 114.236 163.189 115.133 163.958C119.853 168.008 125.371 170.949 131.379 172.577H131.381C133.405 173.126 135.469 173.518 137.552 173.75C139.578 173.977 141.622 174.049 143.659 173.966C153.546 173.566 162.897 169.529 170.147 162.82L172.316 160.811L174.948 162.336L174.986 162.358C175.986 162.969 177.067 163.435 178.201 163.743H178.203C178.95 163.945 179.713 164.077 180.486 164.132C181.231 164.187 181.981 164.171 182.723 164.086C186.193 163.688 189.316 161.793 191.382 158.983L193.032 156.737L195.711 157.504C195.854 157.546 195.995 157.585 196.133 157.622C196.364 157.684 196.597 157.743 196.83 157.8C206 160.088 215.514 158.561 223.565 153.632C231.809 148.586 237.639 140.53 240.155 131.219C240.223 130.964 240.289 130.709 240.353 130.452L240.355 130.438L240.386 130.313C240.678 129.131 240.918 127.933 241.098 126.727C241.282 125.505 241.405 124.274 241.474 123.039C241.788 117.354 240.858 111.632 238.751 106.34L237.727 103.762L239.773 101.892L240.054 101.63C240.247 101.437 240.436 101.237 240.619 101.033C242.078 99.3998 243.095 97.4374 243.627 95.3145H243.625L243.647 95.2266C243.777 94.6948 243.878 94.1542 243.944 93.6092C244.012 93.0576 244.038 92.4972 244.038 91.939C244.038 89.4645 243.374 87.0164 242.106 84.8892L241.034 83.0916L241.871 81.2346L241.898 81.1709L241.948 81.0588C242.073 80.7841 242.197 80.5072 242.317 80.2303C243.01 78.6041 243.572 76.9252 243.999 75.211L244.021 75.1209C244.594 72.7937 244.917 70.4071 244.981 68.0074C245.045 65.6648 244.86 63.3156 244.427 61.0103C242.216 49.2137 233.758 39.3312 222.067 36.1645L222.036 36.1557C221.489 36.0084 220.937 35.8788 220.383 35.7623C219.836 35.648 219.285 35.5448 218.733 35.4612C216.428 35.1118 214.087 35.0437 211.764 35.2569L208.912 35.5162L207.743 32.8967C207.67 32.7341 207.596 32.5736 207.519 32.4154C207.257 31.8836 206.961 31.3716 206.633 30.8815C204.939 28.3411 202.451 26.4753 199.509 25.6578L199.462 25.6491L199.238 25.5919L198.739 25.4711C198.61 25.4447 198.48 25.4183 198.35 25.3963C198.065 25.3458 197.777 25.3084 197.487 25.2799C196.487 25.1744 195.478 25.1986 194.485 25.348L191.705 25.7633L190.367 23.2889C189.903 22.4296 189.406 21.5857 188.879 20.7638C188.099 19.5552 187.255 18.3883 186.345 17.2763C181.57 11.4329 175.203 7.22016 167.918 5.23795H167.912L167.877 5.22696C166.327 4.80722 164.749 4.49736 163.158 4.29299C161.607 4.09521 160.044 4.00071 158.48 4.0139C151.026 4.07323 143.833 6.5565 137.844 10.9758L135.55 12.6702L133.201 11.0549C133.148 11.0198 133.098 10.9846 133.045 10.9495L132.981 10.9143L132.858 10.8352C131.812 10.1627 130.676 9.64849 129.478 9.31665L129.399 9.29468C128.696 9.10349 127.977 8.97603 127.254 8.9145C126.553 8.85516 125.848 8.86395 125.149 8.92768C121.965 9.21996 119.033 10.7758 116.928 13.1756L114.928 15.4523L112.197 14.1513C111.871 13.9953 111.544 13.8459 111.216 13.6986C109.19 12.791 107.096 12.0395 104.953 11.4549ZM163.668 0.315372C165.444 0.541723 167.2 0.88894 168.923 1.35483L168.929 1.35702C177.245 3.60954 184.273 8.40686 189.448 14.7359C190.441 15.9511 191.375 17.2389 192.246 18.5926C192.828 19.4958 193.375 20.4254 193.892 21.3792C195.195 21.1836 196.54 21.1484 197.896 21.2891C198.315 21.3308 198.7 21.3836 199.045 21.4451C199.416 21.5088 199.801 21.5923 200.196 21.6912L200.194 21.6956L200.212 21.7L200.35 21.7374C200.392 21.744 200.434 21.7528 200.473 21.7637C204.488 22.8515 207.776 25.3678 209.965 28.6531C210.393 29.297 210.778 29.9607 211.112 30.642C211.213 30.8463 211.31 31.0529 211.402 31.2595C214.006 31.0243 216.665 31.0903 219.329 31.4924C219.911 31.5803 220.537 31.6946 221.203 31.8352C221.86 31.9737 222.486 32.1209 223.08 32.2813L223.113 32.2901C236.421 35.8964 245.897 47.0996 248.365 60.2697C248.842 62.8189 249.057 65.4494 248.987 68.1151C248.915 70.7632 248.565 73.4332 247.912 76.0813L247.89 76.1714V76.1802L247.888 76.178C247.4 78.1426 246.765 80.0193 246.001 81.8082C245.862 82.1356 245.724 82.4433 245.59 82.7355C245.576 82.7685 245.563 82.8015 245.548 82.8344C247.15 85.5221 248.044 88.6668 248.046 91.939C248.046 92.684 248.005 93.4048 247.921 94.0926C247.84 94.7739 247.712 95.4705 247.541 96.1759C247.534 96.2089 247.528 96.2419 247.519 96.2748L247.517 96.2836L247.515 96.2814C246.798 99.1515 245.425 101.67 243.605 103.707C243.234 104.122 242.862 104.503 242.498 104.839L242.495 104.837L242.491 104.839L242.473 104.854C244.75 110.574 245.829 116.849 245.473 123.261C245.398 124.635 245.26 125.99 245.06 127.322C244.867 128.617 244.605 129.935 244.278 131.271C244.269 131.315 244.26 131.359 244.249 131.405L244.245 131.421L244.24 131.419C244.15 131.779 244.08 132.056 244.023 132.262C241.098 143.083 234.323 151.748 225.655 157.053C216.968 162.371 206.383 164.318 195.861 161.692C195.527 161.611 195.267 161.543 195.087 161.495C194.929 161.451 194.768 161.407 194.608 161.361C191.852 165.11 187.71 167.551 183.178 168.072C182.196 168.184 181.196 168.206 180.19 168.133C179.177 168.059 178.161 167.887 177.153 167.615L177.146 167.613C175.623 167.202 174.199 166.578 172.9 165.784L172.865 165.764C164.925 173.113 154.674 177.532 143.82 177.974C141.591 178.064 139.348 177.987 137.104 177.737C134.845 177.484 132.581 177.058 130.331 176.449L130.324 176.447C123.582 174.621 117.572 171.335 112.524 167.002C111.511 166.134 110.564 165.252 109.687 164.365C109.175 163.846 108.667 163.308 108.166 162.749C105.857 163.886 103.29 164.477 100.648 164.411C99.9956 164.393 99.3605 164.343 98.7496 164.253C98.1079 164.16 97.4706 164.028 96.8443 163.859L96.8355 163.857C93.7281 163.015 91.0536 161.314 88.9879 159.066C88.6297 158.677 88.2825 158.26 87.9463 157.816C87.9155 157.781 87.8847 157.741 87.8562 157.704L87.8276 157.664C82.9402 159.539 77.6528 160.38 72.2709 160C71.1084 159.919 69.9415 159.78 68.7724 159.583C67.5945 159.385 66.4276 159.13 65.276 158.82L65.2541 158.814C56.4396 156.425 49.1612 150.986 44.1881 143.861C43.2233 142.481 42.3443 141.035 41.5598 139.536C40.9884 138.449 40.4676 137.332 39.9973 136.192C39.3073 136.163 38.6172 136.088 37.9294 135.967C37.7931 135.943 37.5602 135.895 37.2349 135.822C36.9295 135.754 36.6943 135.699 36.5405 135.658L36.5009 135.647C30.6927 134.073 26.4031 129.504 24.7637 123.951C24.4494 122.885 24.2319 121.771 24.1198 120.626C24.0583 119.974 24.0297 119.316 24.0407 118.653C11.9298 113.308 3.56803 101.85 1.49352 88.7789C1.07598 86.1484 0.913355 83.452 1.02543 80.7292C1.13531 78.0217 1.51769 75.2945 2.18575 72.5827C2.19235 72.5542 2.19674 72.5256 2.20553 72.497V72.4904H2.20773C5.20083 60.4851 13.2 51.2091 23.2759 46.4645C25.2537 45.5327 27.2975 44.779 29.3786 44.2164C30.9982 43.7791 32.6508 43.4516 34.3253 43.2407L34.3847 42.9967H34.3869C36.0131 36.4787 41.0082 31.7913 46.9329 30.4288C48.0822 30.1651 49.2777 30.0266 50.4995 30.0244C51.2247 30.0244 51.9499 30.0706 52.6729 30.1673C60.3007 16.9664 73.4115 8.19149 87.9617 6.31916C90.8954 5.94117 93.8753 5.84228 96.8662 6.04226C99.8725 6.24224 102.901 6.74329 105.916 7.55859L105.922 7.56079C108.311 8.20688 110.625 9.03756 112.851 10.0353C113.232 10.2067 113.588 10.3715 113.915 10.5253C116.713 7.34103 120.596 5.31486 124.784 4.93029C125.734 4.84458 126.674 4.83799 127.593 4.9149C128.538 4.99621 129.492 5.16323 130.445 5.42035L130.45 5.42254C132.098 5.86865 133.63 6.56309 135.023 7.4597C135.073 7.48607 135.122 7.51464 135.17 7.54541C135.271 7.61133 135.37 7.67946 135.467 7.74539C142.086 2.86017 150.087 0.0692438 158.447 0.00111868C160.176 -0.0120665 161.921 0.0912197 163.668 0.315372Z" fill="#1A7FF7"/>
</svg>
