<svg width="249" height="180" viewBox="0 0 249 180" fill="none" xmlns="http://www.w3.org/2000/svg">
<path fill-rule="evenodd" clip-rule="evenodd" d="M205.442 27.7053C204.484 26.7428 203.392 25.9099 202.188 25.2396C202.669 26.0901 203.071 26.9889 203.388 27.9229C204.069 27.8284 204.752 27.7559 205.442 27.7053ZM188.106 17.7789C186.141 15.1198 183.851 12.7112 181.28 10.6235C183.152 12.9332 184.768 15.4538 186.095 18.1349C186.754 17.9678 187.424 17.8492 188.106 17.7789ZM46.2893 144.891C50.9152 150.682 57.2574 155.07 64.7819 157.11C72.6646 159.246 80.6199 158.47 87.5972 155.424C89.5135 158.641 92.5725 161.125 96.3633 162.153C100.341 163.232 104.363 162.496 107.626 160.443C113.293 167.201 120.897 172.315 129.852 174.743C145.275 178.923 160.913 174.106 171.668 163.426C173.127 164.546 174.81 165.403 176.674 165.909C183.016 167.627 189.47 164.74 192.782 159.241C193.384 159.439 193.995 159.622 194.615 159.791C215.083 165.337 235.995 152.515 241.313 131.159C243.617 121.907 242.614 112.571 239.076 104.506C241.7 102.498 243.702 99.5683 244.586 96.028C245.728 91.4285 244.742 86.7718 242.265 83.2008C243.406 80.9372 244.315 78.5045 244.957 75.9246C248.385 62.1524 243.212 48.156 232.927 40.1282C239.268 48.2417 241.949 59.2867 239.232 70.1933C238.591 72.7733 237.679 75.206 236.54 77.4717C239.017 81.0405 240.004 85.6972 238.861 90.2967C237.978 93.837 235.976 96.7664 233.354 98.7772C236.89 106.84 237.89 116.175 235.589 125.427C230.271 146.783 209.358 159.606 188.89 154.059C188.27 153.89 187.662 153.708 187.057 153.51C183.746 159.008 177.291 161.896 170.949 160.178C169.088 159.672 167.404 158.815 165.943 157.694C155.188 168.374 139.552 173.192 124.128 169.012C115.172 166.583 107.569 161.47 101.901 154.712C98.6378 156.765 94.6163 157.501 90.6386 156.422C86.8478 155.393 83.7888 152.91 81.8725 149.693C74.8952 152.739 66.94 153.514 59.0572 151.378C54.2775 150.082 49.9768 147.84 46.2893 144.891ZM27.0847 126.902C28.9878 130.271 32.1171 132.884 36.0288 133.943C36.4244 134.051 36.8221 134.141 37.2155 134.211C36.2178 132.451 35.3542 130.603 34.6421 128.691C33.2181 128.757 31.7589 128.605 30.3041 128.212C29.1592 127.902 28.0846 127.458 27.0847 126.902ZM10.3501 106.596C12.8751 109.756 15.9122 112.497 19.3712 114.67C19.2986 113.743 19.303 112.798 19.3975 111.851C16.088 110.541 13.0553 108.759 10.3501 106.596Z" fill="#CEE5FF"/>
<path fill-rule="evenodd" clip-rule="evenodd" d="M103.962 11.6849H103.958L103.881 11.6629C101.176 10.9311 98.4047 10.463 95.6094 10.2762C92.8998 10.0938 90.1748 10.1817 87.4827 10.529C73.8775 12.2804 61.9996 20.5565 55.1519 32.408L53.8092 34.7309L51.1524 34.3749C50.6096 34.3024 50.0624 34.2672 49.5152 34.2672C48.6163 34.2694 47.7175 34.3683 46.8407 34.5683C42.0654 35.6671 38.4635 39.4777 37.2856 44.2046L36.556 47.1098L33.8376 47.4505C32.3521 47.6395 30.8797 47.9295 29.4337 48.3207C27.5657 48.824 25.7439 49.5008 23.9925 50.3249C14.4418 54.8255 7.65567 63.4752 5.11087 73.683L5.10868 73.6874L5.0867 73.7753C4.49335 76.1816 4.14174 78.6473 4.04065 81.124C3.93956 83.5501 4.08241 85.9828 4.46259 88.3804C6.31734 100.074 13.7759 110.404 24.6671 115.213L27.0977 116.285L27.0581 118.944C27.0493 119.452 27.0713 119.962 27.1196 120.469C27.2053 121.342 27.3702 122.205 27.6185 123.047C28.8887 127.357 32.185 130.82 36.5538 132.005L36.589 132.013C36.7604 132.059 36.9362 132.099 37.1098 132.136C37.2834 132.174 37.4614 132.215 37.6372 132.248C38.1471 132.339 38.6635 132.393 39.1821 132.415L41.7357 132.525L42.7114 134.892C43.1334 135.916 43.6059 136.92 44.1179 137.903C44.8233 139.248 45.6144 140.549 46.4825 141.795C51.0425 148.324 57.6022 153.081 65.3004 155.167L65.3289 155.176C66.3552 155.453 67.399 155.681 68.4473 155.857C69.4802 156.031 70.5196 156.156 71.5635 156.228C76.2619 156.56 81.0087 155.835 85.406 154.149L88.2123 153.073L90.0363 155.477L90.0737 155.521L90.1528 155.626C90.4033 155.958 90.6692 156.277 90.9505 156.582C92.5503 158.327 94.5743 159.58 96.8598 160.206L96.8642 160.208L96.9016 160.217C97.3718 160.344 97.8531 160.443 98.3366 160.514C98.8068 160.582 99.2815 160.619 99.7584 160.63C101.71 160.681 103.659 160.241 105.411 159.38L108.131 158.041L110.157 160.301C110.61 160.802 111.074 161.294 111.548 161.775C112.377 162.615 113.245 163.419 114.142 164.188C118.862 168.238 124.38 171.179 130.388 172.807H130.39C132.414 173.356 134.478 173.747 136.561 173.98C138.587 174.207 140.631 174.279 142.668 174.196C152.555 173.796 161.906 169.759 169.156 163.05L171.325 161.041L173.957 162.566L173.995 162.588C174.995 163.199 176.076 163.665 177.21 163.973H177.212C177.959 164.175 178.722 164.307 179.495 164.362C180.24 164.417 180.99 164.401 181.732 164.315C185.202 163.918 188.325 162.023 190.391 159.213L192.041 156.967L194.72 157.734C194.863 157.775 195.004 157.815 195.142 157.852C195.373 157.914 195.606 157.973 195.839 158.03C205.009 160.318 214.523 158.791 222.574 153.862C230.818 148.816 236.648 140.76 239.164 131.449C239.232 131.194 239.298 130.939 239.362 130.682L239.364 130.668L239.395 130.543C239.687 129.361 239.927 128.163 240.107 126.957C240.291 125.735 240.414 124.504 240.483 123.269C240.797 117.584 239.867 111.861 237.76 106.57L236.736 103.992L238.782 102.122L239.063 101.86C239.256 101.667 239.445 101.467 239.628 101.263C241.087 99.6298 242.104 97.6673 242.636 95.5445H242.634L242.656 95.4566C242.786 94.9248 242.887 94.3841 242.953 93.8391C243.021 93.2876 243.047 92.7272 243.047 92.169C243.047 89.6945 242.383 87.2464 241.115 85.1192L240.043 83.3215L240.88 81.4646L240.907 81.4009L240.957 81.2888C241.082 81.0141 241.206 80.7372 241.326 80.4603C242.019 78.8341 242.581 77.1551 243.008 75.441L243.03 75.3509C243.603 73.0237 243.926 70.6371 243.99 68.2374C244.054 65.8947 243.869 63.5455 243.436 61.2403C241.225 49.4437 232.767 39.5612 221.076 36.3945L221.045 36.3857C220.498 36.2384 219.946 36.1088 219.392 35.9923C218.845 35.878 218.294 35.7747 217.742 35.6912C215.437 35.3418 213.096 35.2737 210.773 35.4869L207.921 35.7462L206.752 33.1267C206.679 32.964 206.605 32.8036 206.528 32.6454C206.266 32.1136 205.97 31.6015 205.642 31.1115C203.948 28.5711 201.46 26.7053 198.518 25.8878L198.471 25.879L198.247 25.8219L197.748 25.701C197.619 25.6747 197.489 25.6483 197.359 25.6263C197.074 25.5758 196.786 25.5384 196.496 25.5098C195.496 25.4044 194.487 25.4285 193.494 25.578L190.714 25.9933L189.376 23.5188C188.912 22.6596 188.415 21.8157 187.888 20.9938C187.108 19.7852 186.264 18.6182 185.354 17.5063C180.579 11.6629 174.212 7.45014 166.927 5.46793H166.921L166.886 5.45694C165.336 5.0372 163.758 4.72734 162.167 4.52297C160.616 4.32519 159.053 4.23069 157.489 4.24388C150.035 4.30321 142.842 6.78648 136.854 11.2058L134.559 12.9001L132.21 11.2849C132.157 11.2498 132.107 11.2146 132.054 11.1794L131.99 11.1443L131.867 11.0652C130.821 10.3927 129.685 9.87847 128.487 9.54663L128.408 9.52466C127.705 9.33347 126.986 9.20601 126.263 9.14448C125.562 9.08514 124.857 9.09393 124.158 9.15766C120.974 9.44994 118.042 11.0058 115.937 13.4056L113.937 15.6823L111.206 14.3813C110.88 14.2253 110.553 14.0758 110.225 13.9286C108.199 13.021 106.105 12.2694 103.962 11.6849ZM162.677 0.545353C164.453 0.771704 166.209 1.11892 167.932 1.58481L167.938 1.58701C176.254 3.83952 183.282 8.63684 188.457 14.9659C189.45 16.1811 190.384 17.4689 191.255 18.8226C191.837 19.7258 192.384 20.6554 192.901 21.6091C194.204 21.4136 195.549 21.3784 196.905 21.519C197.324 21.5608 197.709 21.6135 198.054 21.6751C198.425 21.7388 198.81 21.8223 199.205 21.9212L199.203 21.9256L199.221 21.93L199.359 21.9673C199.401 21.9739 199.443 21.9827 199.482 21.9937C203.497 23.0815 206.785 25.5977 208.974 28.8831C209.402 29.527 209.787 30.1907 210.121 30.8719C210.222 31.0763 210.319 31.2829 210.411 31.4895C213.015 31.2543 215.674 31.3202 218.338 31.7224C218.92 31.8103 219.546 31.9246 220.212 32.0652C220.869 32.2037 221.495 32.3509 222.089 32.5113L222.122 32.5201C235.43 36.1263 244.906 47.3296 247.374 60.4997C247.851 63.0489 248.066 65.6794 247.996 68.345C247.924 70.9931 247.574 73.6632 246.921 76.3113L246.899 76.4014V76.4102L246.897 76.408C246.409 78.3726 245.774 80.2493 245.01 82.0382C244.871 82.3656 244.733 82.6733 244.599 82.9655C244.585 82.9985 244.572 83.0315 244.557 83.0644C246.159 85.7521 247.053 88.8968 247.056 92.169C247.056 92.914 247.014 93.6348 246.93 94.3226C246.849 95.0039 246.721 95.7005 246.55 96.4059C246.543 96.4389 246.537 96.4718 246.528 96.5048L246.526 96.5136L246.524 96.5114C245.807 99.3814 244.434 101.9 242.614 103.937C242.243 104.352 241.871 104.733 241.507 105.069L241.504 105.067L241.5 105.069L241.482 105.084C243.759 110.804 244.838 117.079 244.482 123.491C244.407 124.865 244.269 126.22 244.069 127.552C243.876 128.847 243.614 130.165 243.287 131.501C243.278 131.545 243.269 131.589 243.258 131.635L243.254 131.651L243.249 131.648C243.159 132.009 243.089 132.286 243.032 132.492C240.107 143.313 233.332 151.978 224.664 157.283C215.977 162.601 205.392 164.548 194.87 161.922C194.536 161.841 194.276 161.773 194.096 161.725C193.938 161.681 193.777 161.637 193.617 161.59C190.861 165.34 186.719 167.781 182.187 168.302C181.205 168.414 180.205 168.436 179.199 168.363C178.186 168.289 177.17 168.117 176.162 167.845L176.155 167.843C174.632 167.432 173.208 166.808 171.909 166.014L171.874 165.994C163.934 173.343 153.683 177.762 142.829 178.204C140.6 178.294 138.357 178.217 136.113 177.967C133.854 177.714 131.59 177.288 129.34 176.679L129.333 176.677C122.591 174.851 116.581 171.565 111.533 167.232C110.52 166.364 109.573 165.482 108.696 164.595C108.184 164.076 107.676 163.538 107.175 162.979C104.866 164.116 102.299 164.707 99.6573 164.641C99.0046 164.623 98.3695 164.573 97.7586 164.483C97.1169 164.39 96.4796 164.258 95.8533 164.089L95.8445 164.087C92.7371 163.245 90.0627 161.544 87.997 159.296C87.6388 158.907 87.2915 158.49 86.9553 158.046C86.9245 158.011 86.8938 157.971 86.8652 157.934L86.8366 157.894C81.9492 159.769 76.6618 160.61 71.28 160.23C70.1175 160.149 68.9505 160.01 67.7814 159.813C66.6035 159.615 65.4366 159.36 64.2851 159.05L64.2631 159.043C55.4486 156.655 48.1702 151.216 43.1971 144.091C42.2324 142.711 41.3533 141.265 40.5688 139.766C39.9974 138.679 39.4766 137.562 39.0063 136.422C38.3163 136.393 37.6263 136.318 36.9384 136.197C36.8022 136.173 36.5692 136.125 36.244 136.052C35.9385 135.984 35.7034 135.929 35.5495 135.888L35.51 135.877C29.7018 134.303 25.4121 129.734 23.7727 124.181C23.4585 123.115 23.2409 122.001 23.1288 120.856C23.0673 120.204 23.0387 119.546 23.0497 118.883C10.9389 113.538 2.57706 102.08 0.50255 89.0089C0.0850094 86.3784 -0.0776114 83.6819 0.0344653 80.9591C0.144344 78.2517 0.526723 75.5245 1.19479 72.8127C1.20138 72.7841 1.20577 72.7556 1.21457 72.727V72.7204H1.21676C4.20987 60.715 12.2091 51.4391 22.285 46.6945C24.2628 45.7627 26.3065 45.009 28.3876 44.4464C30.0072 44.0091 31.6598 43.6816 33.3344 43.4707L33.3937 43.2267H33.3959C35.0221 36.7087 40.0172 32.0213 45.9419 30.6588C47.0912 30.3951 48.2867 30.2566 49.5086 30.2544C50.2338 30.2544 50.959 30.3006 51.682 30.3973C59.3098 17.1964 72.4205 8.42147 86.9707 6.54914C89.9045 6.17115 92.8844 6.07226 95.8753 6.27224C98.8816 6.47222 101.91 6.97327 104.925 7.78857L104.931 7.79077C107.32 8.43686 109.634 9.26754 111.86 10.2652C112.241 10.4367 112.597 10.6015 112.924 10.7553C115.722 7.57101 119.605 5.54484 123.793 5.16027C124.743 5.07456 125.683 5.06797 126.602 5.14488C127.547 5.2262 128.501 5.39321 129.454 5.65033L129.459 5.65253C131.107 6.09863 132.639 6.79307 134.032 7.68968C134.082 7.71605 134.131 7.74462 134.179 7.77539C134.28 7.84131 134.379 7.90944 134.476 7.97537C141.095 3.09015 149.096 0.299224 157.456 0.231099C159.185 0.217914 160.93 0.3212 162.677 0.545353Z" fill="#1A7FF7"/>
<rect x="76.0957" y="70.9297" width="104.748" height="36.9625" rx="17.5" fill="#FFE2A9" stroke="#FFBA0A" stroke-width="5"/>
<rect x="110.74" y="141.719" width="104.748" height="36.9625" rx="17.5" transform="rotate(-89.1258 110.74 141.719)" fill="#FFE2A9" stroke="#FFBA0A" stroke-width="5"/>
<rect x="105.229" y="71.6575" width="47.7727" height="35.5067" fill="#FFE2A9"/>
</svg>
