<svg xmlns="http://www.w3.org/2000/svg" xmlns:xlink="http://www.w3.org/1999/xlink" width="308" zoomAndPan="magnify" viewBox="0 0 230.87999 231" height="308" preserveAspectRatio="xMidYMid meet" version="1.0"><defs><clipPath id="d4ecfdd7b0"><path d="M 0 0.0585938 L 230.128906 0.0585938 L 230.128906 230.191406 L 0 230.191406 Z M 0 0.0585938 " clip-rule="nonzero"/></clipPath><clipPath id="5531151217"><path d="M 68 26 L 230.128906 26 L 230.128906 230.191406 L 68 230.191406 Z M 68 26 " clip-rule="nonzero"/></clipPath><clipPath id="f55d56d6d2"><path d="M 27 154 L 203 154 L 203 230.191406 L 27 230.191406 Z M 27 154 " clip-rule="nonzero"/></clipPath></defs><g clip-path="url(#d4ecfdd7b0)"><path fill="#98c662" d="M 230.183594 115.171875 C 230.183594 143.765625 219.738281 169.945312 202.472656 190.074219 C 196.90625 196.558594 190.617188 202.421875 183.761719 207.519531 C 164.601562 221.800781 140.847656 230.246094 115.121094 230.246094 C 98.671875 230.246094 83.050781 226.796875 68.902344 220.582031 C 60.894531 217.074219 53.371094 212.679688 46.441406 207.519531 C 39.59375 202.40625 33.324219 196.558594 27.757812 190.082031 C 10.492188 169.957031 0.0351562 143.777344 0.0351562 115.171875 C 0.0351562 51.617188 51.566406 0.0976562 115.121094 0.0976562 C 158.726562 0.0976562 196.671875 24.363281 216.191406 60.132812 C 225.113281 76.476562 230.183594 95.234375 230.183594 115.171875 Z M 230.183594 115.171875 " fill-opacity="1" fill-rule="nonzero"/></g><g clip-path="url(#5531151217)"><path fill="#58b465" d="M 230.183594 115.171875 C 230.183594 143.765625 219.738281 169.945312 202.472656 190.074219 C 196.90625 196.558594 190.617188 202.421875 183.761719 207.519531 C 164.601562 221.800781 140.847656 230.246094 115.121094 230.246094 C 98.671875 230.246094 83.050781 226.796875 68.902344 220.582031 L 120.515625 45.609375 L 147.234375 46.003906 L 129.632812 26.410156 L 216.191406 60.125 C 225.113281 76.476562 230.183594 95.234375 230.183594 115.171875 Z M 230.183594 115.171875 " fill-opacity="1" fill-rule="nonzero"/></g><path fill="#fbcb98" d="M 76.410156 77.984375 C 75.265625 76.730469 73.503906 76.136719 72.511719 77.859375 C 71.085938 80.332031 71.230469 83.648438 71.4375 86.382812 C 71.609375 88.59375 71.878906 90.8125 72.457031 92.96875 C 72.953125 94.828125 73.640625 97.390625 75.300781 98.542969 C 75.679688 98.804688 76.191406 99.066406 76.671875 99.167969 C 76.933594 99.222656 78.519531 99.246094 77.980469 98.5625 " fill-opacity="1" fill-rule="nonzero"/><path fill="#fbcb98" d="M 153.683594 77.984375 C 154.832031 76.730469 156.589844 76.136719 157.582031 77.859375 C 159.007812 80.332031 158.863281 83.648438 158.65625 86.382812 C 158.484375 88.59375 158.214844 90.8125 157.636719 92.96875 C 157.140625 94.828125 156.453125 97.390625 154.792969 98.542969 C 154.414062 98.804688 153.902344 99.066406 153.421875 99.167969 C 153.160156 99.222656 151.574219 99.246094 152.113281 98.5625 " fill-opacity="1" fill-rule="nonzero"/><path fill="#ecc090" d="M 202.472656 190.074219 C 196.90625 196.558594 190.625 202.421875 183.761719 207.519531 L 46.441406 207.519531 C 39.585938 202.40625 33.316406 196.558594 27.757812 190.082031 C 32.972656 176.792969 44.023438 166.195312 58.277344 161.847656 L 82.003906 152.734375 C 91.167969 149.722656 90.753906 144.652344 90.753906 135 L 90.753906 114.464844 L 139.457031 114.464844 L 139.457031 134.980469 C 139.457031 144.640625 139.945312 150.378906 149.128906 153.382812 L 171.980469 161.820312 C 186.234375 166.183594 197.273438 176.785156 202.472656 190.074219 Z M 202.472656 190.074219 " fill-opacity="1" fill-rule="nonzero"/><g clip-path="url(#f55d56d6d2)"><path fill="#ffdd3c" d="M 171.980469 161.820312 L 153.214844 154.890625 C 134.246094 174.167969 92.035156 175.601562 77.980469 154.277344 L 58.277344 161.847656 C 44.023438 166.195312 32.972656 176.792969 27.757812 190.082031 C 48.859375 214.664062 80.164062 230.246094 115.109375 230.246094 C 150.058594 230.246094 181.363281 214.664062 202.460938 190.074219 C 197.273438 176.785156 186.222656 166.183594 171.980469 161.820312 Z M 171.980469 161.820312 " fill-opacity="1" fill-rule="nonzero"/></g><path fill="#fbcb98" d="M 153.882812 73.800781 C 153.785156 46.300781 136.914062 30.804688 115.144531 30.804688 C 115.136719 30.804688 115.144531 35.0625 115.144531 30.804688 C 115.144531 30.796875 115.15625 30.804688 115.144531 30.804688 C 93.386719 30.804688 76.507812 46.300781 76.410156 73.800781 C 76.363281 86.339844 76.796875 94.59375 78.070312 103.695312 C 82.03125 131.984375 108.074219 139.914062 115.101562 139.914062 C 123.714844 139.914062 148.253906 131.984375 152.214844 103.695312 C 153.496094 94.59375 153.929688 86.339844 153.882812 73.800781 Z M 153.882812 73.800781 " fill-opacity="1" fill-rule="nonzero"/><path fill="#092838" d="M 156.5 70.957031 C 156.464844 69.59375 156.398438 68.261719 156.308594 66.980469 C 155.957031 61.953125 154.714844 57.363281 153.097656 52.617188 C 152.351562 50.40625 152.007812 45.976562 150.382812 44.246094 C 144.945312 38.4375 142.148438 48.53125 140.578125 51.824219 C 139.511719 54.0625 140.757812 59.886719 141.027344 62.34375 C 141.441406 66.058594 142.316406 69.550781 143.878906 72.949219 C 146.917969 79.574219 152.097656 83.992188 151.601562 91.984375 C 152.421875 92.390625 153.449219 91.734375 153.785156 90.875 C 156.074219 84.984375 156.660156 77.597656 156.5 70.957031 Z M 156.5 70.957031 " fill-opacity="1" fill-rule="nonzero"/><path fill="#092838" d="M 80.460938 84.011719 C 81.535156 82.910156 82.886719 82.007812 83.976562 80.898438 C 87.75 77.09375 86.359375 72.320312 88.914062 68.132812 C 90.285156 65.886719 93.253906 64.390625 95.605469 65.542969 C 98.320312 66.878906 98.882812 70.839844 101.585938 72.183594 C 102.34375 72.5625 103.203125 72.691406 104.042969 72.78125 C 111.265625 73.574219 118.738281 71.976562 125.007812 68.296875 C 124.085938 69.667969 124.113281 71.605469 125.070312 72.953125 C 134.0625 70.613281 142.273438 65.308594 148.089844 58.066406 C 152.621094 52.429688 150.960938 45.742188 147.296875 39.96875 C 146.097656 38.085938 144.707031 36.261719 142.839844 35.027344 C 140.566406 33.519531 137.789062 33.015625 135.101562 32.535156 C 132.339844 32.050781 129.582031 31.5625 126.8125 31.074219 C 127.832031 29.757812 129.03125 28.585938 130.363281 27.59375 C 124.105469 25.636719 117.382812 28.367188 110.816406 28.152344 C 111.03125 26.347656 111.925781 24.632812 113.289062 23.425781 C 108.859375 23.496094 104.445312 24.253906 100.242188 25.617188 C 94.046875 27.621094 88.273438 30.921875 83.417969 35.269531 C 81.289062 37.183594 78.636719 39.464844 77.546875 42.144531 C 76.375 45.023438 75.632812 48.503906 75.003906 51.5625 C 72.097656 65.84375 74.390625 80.484375 74.785156 94.871094 C 74.804688 95.484375 74.859375 96.191406 75.34375 96.570312 C 75.878906 96.992188 76.714844 96.785156 77.183594 96.289062 C 77.65625 95.792969 77.84375 95.097656 77.980469 94.429688 C 78.203125 93.339844 78.339844 92.230469 78.386719 91.121094 C 78.457031 89.40625 78.332031 87.621094 79.027344 86.039062 C 79.359375 85.273438 79.863281 84.617188 80.460938 84.011719 Z M 80.460938 84.011719 " fill-opacity="1" fill-rule="nonzero"/></svg>