<svg xmlns="http://www.w3.org/2000/svg" xmlns:xlink="http://www.w3.org/1999/xlink" width="308" zoomAndPan="magnify" viewBox="0 0 230.87999 231" height="308" preserveAspectRatio="xMidYMid meet" version="1.0"><defs><clipPath id="47a0518653"><path d="M 0 0.0585938 L 230.128906 0.0585938 L 230.128906 230.191406 L 0 230.191406 Z M 0 0.0585938 " clip-rule="nonzero"/></clipPath><clipPath id="56be17e865"><path d="M 68 27 L 230.128906 27 L 230.128906 230.191406 L 68 230.191406 Z M 68 27 " clip-rule="nonzero"/></clipPath><clipPath id="3108e5525b"><path d="M 27 149 L 203 149 L 203 230.191406 L 27 230.191406 Z M 27 149 " clip-rule="nonzero"/></clipPath></defs><g clip-path="url(#47a0518653)"><path fill="#ffdd3c" d="M 230.183594 115.171875 C 230.183594 143.765625 219.738281 169.945312 202.472656 190.074219 C 196.90625 196.558594 190.617188 202.421875 183.761719 207.519531 C 164.601562 221.800781 140.847656 230.246094 115.121094 230.246094 C 98.671875 230.246094 83.050781 226.796875 68.902344 220.582031 C 60.894531 217.074219 53.371094 212.679688 46.441406 207.519531 C 39.59375 202.40625 33.324219 196.558594 27.757812 190.082031 C 10.492188 169.957031 0.0351562 143.777344 0.0351562 115.171875 C 0.0351562 51.617188 51.566406 0.0976562 115.121094 0.0976562 C 158.726562 0.0976562 196.671875 24.363281 216.191406 60.132812 C 225.113281 76.476562 230.183594 95.234375 230.183594 115.171875 Z M 230.183594 115.171875 " fill-opacity="1" fill-rule="nonzero"/></g><g clip-path="url(#56be17e865)"><path fill="#fcc33d" d="M 230.183594 115.171875 C 230.183594 143.765625 219.738281 169.945312 202.472656 190.074219 C 196.90625 196.558594 190.617188 202.421875 183.761719 207.519531 C 164.601562 221.800781 140.847656 230.246094 115.121094 230.246094 C 98.671875 230.246094 83.050781 226.796875 68.902344 220.582031 L 120.515625 45.609375 L 130.878906 31.679688 L 149.921875 27.339844 L 216.183594 60.132812 C 225.113281 76.476562 230.183594 95.234375 230.183594 115.171875 Z M 230.183594 115.171875 " fill-opacity="1" fill-rule="nonzero"/></g><path fill="#fbcb98" d="M 76.410156 77.984375 C 75.265625 76.730469 73.503906 76.136719 72.511719 77.859375 C 71.085938 80.332031 71.230469 83.648438 71.4375 86.382812 C 71.609375 88.59375 71.878906 90.8125 72.457031 92.96875 C 72.953125 94.828125 73.640625 97.390625 75.300781 98.542969 C 75.679688 98.804688 76.191406 99.066406 76.671875 99.167969 C 76.933594 99.222656 78.519531 99.246094 77.980469 98.5625 " fill-opacity="1" fill-rule="nonzero"/><path fill="#fbcb98" d="M 153.683594 77.984375 C 154.832031 76.730469 156.589844 76.136719 157.582031 77.859375 C 159.007812 80.332031 158.863281 83.648438 158.65625 86.382812 C 158.484375 88.59375 158.214844 90.8125 157.636719 92.96875 C 157.140625 94.828125 156.453125 97.390625 154.792969 98.542969 C 154.414062 98.804688 153.902344 99.066406 153.421875 99.167969 C 153.160156 99.222656 151.574219 99.246094 152.113281 98.5625 " fill-opacity="1" fill-rule="nonzero"/><path fill="#eabf8f" d="M 202.472656 190.074219 C 196.90625 196.558594 190.625 202.421875 183.761719 207.519531 L 46.441406 207.519531 C 39.585938 202.40625 33.316406 196.558594 27.757812 190.082031 C 32.972656 176.792969 44.023438 166.195312 58.277344 161.847656 L 82.003906 152.734375 C 91.167969 149.722656 90.753906 144.652344 90.753906 135 L 90.753906 114.464844 L 139.457031 114.464844 L 139.457031 134.980469 C 139.457031 144.640625 139.945312 150.378906 149.128906 153.382812 L 171.980469 161.820312 C 186.234375 166.183594 197.273438 176.785156 202.472656 190.074219 Z M 202.472656 190.074219 " fill-opacity="1" fill-rule="nonzero"/><g clip-path="url(#3108e5525b)"><path fill="#ffffff" d="M 202.472656 190.074219 C 181.371094 214.664062 150.066406 230.246094 115.121094 230.246094 C 80.171875 230.246094 48.867188 214.664062 27.765625 190.082031 C 32.980469 176.792969 44.03125 166.195312 58.285156 161.847656 L 82.011719 152.734375 C 84.683594 151.851562 86.539062 150.796875 87.832031 149.503906 C 97.15625 158.085938 111.332031 159.707031 123.664062 157.976562 C 130.644531 156.992188 138.042969 154.765625 144.304688 151.003906 C 145.558594 151.933594 147.136719 152.726562 149.136719 153.382812 L 171.988281 161.820312 C 186.234375 166.183594 197.273438 176.785156 202.472656 190.074219 Z M 202.472656 190.074219 " fill-opacity="1" fill-rule="nonzero"/></g><path fill="#092838" d="M 87.335938 149.964844 C 86.082031 151.046875 84.355469 151.957031 82.011719 152.734375 L 58.285156 161.847656 C 44.03125 166.195312 32.980469 176.792969 27.765625 190.082031 C 43.085938 207.925781 63.78125 221.015625 87.335938 226.863281 Z M 87.335938 149.964844 " fill-opacity="1" fill-rule="nonzero"/><path fill="#092838" d="M 171.988281 161.820312 L 149.136719 153.382812 C 147.867188 152.96875 146.792969 152.492188 145.835938 151.96875 L 145.835938 226.09375 C 168.183594 219.925781 187.792969 207.1875 202.472656 190.074219 C 197.273438 176.785156 186.234375 166.183594 171.988281 161.820312 Z M 171.988281 161.820312 " fill-opacity="1" fill-rule="nonzero"/><path fill="#fbcb98" d="M 153.882812 73.800781 C 153.785156 46.300781 136.949219 26.546875 115.191406 26.546875 C 115.183594 26.546875 115.164062 26.546875 115.15625 26.546875 C 115.144531 26.546875 115.128906 26.546875 115.121094 26.546875 C 93.359375 26.546875 76.527344 46.300781 76.425781 73.800781 C 76.382812 86.339844 76.816406 94.59375 78.085938 103.695312 C 82.046875 131.984375 108.09375 139.914062 115.121094 139.914062 C 123.734375 139.914062 148.273438 131.984375 152.234375 103.695312 C 153.496094 94.59375 153.929688 86.339844 153.882812 73.800781 Z M 153.882812 73.800781 " fill-opacity="1" fill-rule="nonzero"/><path fill="#441d00" d="M 145.71875 105.203125 C 141.371094 109.847656 135.046875 111.382812 129.246094 108.40625 C 126.980469 107.242188 125.0625 105.492188 122.804688 104.316406 C 118.699219 102.1875 113.648438 102.1875 109.355469 103.921875 C 106.757812 104.96875 104.445312 106.601562 101.921875 107.808594 C 98.765625 109.316406 93.710938 110.261719 90.320312 108.945312 C 87.027344 107.671875 84.898438 104.21875 83.382812 101.214844 C 79.765625 93.996094 77.5 86.519531 76.425781 78.824219 C 76.507812 88.65625 76.976562 95.875 78.078125 103.695312 C 82.039062 131.984375 108.082031 139.914062 115.109375 139.914062 C 123.726562 139.914062 148.261719 131.984375 152.222656 103.695312 C 152.808594 99.492188 153.621094 90.757812 153.882812 86.402344 C 152.414062 91.019531 149.382812 101.296875 145.71875 105.203125 Z M 125.9375 124.34375 C 125.503906 124.480469 125.0625 124.5625 124.609375 124.570312 C 120.75 124.660156 118.910156 118.300781 114.902344 119.960938 C 110.808594 121.65625 108.496094 128.144531 103.101562 122.214844 C 98.140625 116.757812 105.59375 112.464844 108.941406 110.679688 C 115.8125 107.007812 124.789062 109.046875 129.941406 115.171875 C 132.484375 118.210938 129.464844 123.207031 125.9375 124.34375 Z M 125.9375 124.34375 " fill-opacity="1" fill-rule="nonzero"/><path fill="#441d00" d="M 153.882812 73.800781 C 153.839844 61.496094 150.4375 50.75 144.753906 42.621094 C 143.410156 45.707031 142.039062 48.773438 140.585938 51.816406 C 139.773438 53.519531 140.695312 57.902344 140.820312 59.796875 C 141.019531 62.75 141.398438 65.707031 142.210938 68.558594 C 143.429688 72.816406 144.066406 77.867188 147.242188 81.242188 C 147.929688 81.972656 148.777344 82.523438 149.488281 83.226562 C 150.464844 84.199219 151.140625 85.472656 151.402344 86.824219 C 151.753906 88.648438 151.511719 90.839844 152.945312 92.011719 C 155.046875 86.484375 153.902344 79.679688 153.882812 73.800781 Z M 153.882812 73.800781 " fill-opacity="1" fill-rule="nonzero"/><path fill="#441d00" d="M 81.984375 83.191406 C 82.886719 82.132812 83.859375 81.152344 84.835938 80.25 C 87.027344 78.246094 88.832031 76.179688 89.605469 73.265625 C 90.464844 70.0625 90.195312 66.671875 91.132812 63.480469 C 91.457031 62.371094 91.945312 61.269531 92.738281 60.429688 C 94.34375 58.742188 96.96875 58.398438 99.25 58.894531 C 101.535156 59.382812 103.589844 60.574219 105.683594 61.585938 C 116.039062 66.582031 128.796875 67.277344 138.90625 61.800781 C 145.230469 58.371094 150.699219 52.609375 157.863281 51.996094 C 159.125 51.886719 160.566406 52.023438 161.363281 53.003906 C 158.738281 47.464844 152.835938 43.632812 146.710938 43.488281 C 146.972656 41.738281 148.8125 40.738281 150.464844 40.097656 C 154.792969 38.410156 159.339844 37.289062 163.949219 36.765625 C 157.980469 32.347656 149.941406 30.839844 142.769531 32.808594 C 143.824219 29.894531 147.019531 28.457031 149.90625 27.320312 C 145.402344 22.984375 138.753906 21.71875 132.503906 21.519531 C 119.910156 21.117188 107.226562 24.273438 96.292969 30.523438 C 95.164062 31.164062 94.027344 31.859375 92.746094 32.078125 C 91.464844 32.292969 89.996094 31.921875 89.292969 30.839844 C 88.335938 29.371094 89.15625 27.429688 89.976562 25.878906 C 80.164062 29.425781 77.601562 41.414062 76.472656 50.535156 C 74.625 65.390625 75.941406 80.449219 77.257812 95.367188 C 76.871094 90.785156 79.078125 86.601562 81.984375 83.191406 Z M 81.984375 83.191406 " fill-opacity="1" fill-rule="nonzero"/></svg>