<svg xmlns="http://www.w3.org/2000/svg" xmlns:xlink="http://www.w3.org/1999/xlink" width="420" zoomAndPan="magnify" viewBox="0 0 315 40.499999" height="54" preserveAspectRatio="xMidYMid meet" version="1.0"><defs><g/></defs><g fill="#ff00ff" fill-opacity="1"><g transform="translate(13.915092, 29.805436)"><g><path d="M 18.984375 -10.464844 L 18.984375 -8.714844 L 11.261719 -8.714844 L 11.261719 0 L 9.515625 0 L 9.515625 -8.714844 L 1.726562 -8.714844 L 1.726562 -10.464844 Z M 18.984375 -10.464844 "/></g></g></g><g fill="#ff00ff" fill-opacity="1"><g transform="translate(34.618319, 29.805436)"><g><path d="M 18.53125 -5.804688 C 18.832031 -6.300781 18.984375 -6.816406 18.984375 -7.421875 C 18.984375 -8.242188 18.683594 -8.953125 18.078125 -9.558594 C 17.496094 -10.160156 16.785156 -10.464844 15.921875 -10.464844 L 1.726562 -10.464844 L 1.726562 0 L 3.472656 0 L 3.472656 -4.359375 L 13.765625 -4.359375 C 14.714844 -4.359375 15.53125 -4.011719 16.222656 -3.34375 C 16.890625 -2.652344 17.238281 -1.832031 17.238281 -0.882812 L 17.238281 0 L 18.984375 0 L 18.984375 -0.882812 C 18.984375 -2.394531 18.425781 -3.667969 17.324219 -4.703125 C 17.820312 -4.960938 18.230469 -5.328125 18.53125 -5.804688 Z M 16.847656 -6.492188 C 16.589844 -6.234375 16.289062 -6.105469 15.921875 -6.105469 L 3.472656 -6.105469 L 3.472656 -8.714844 L 15.921875 -8.714844 C 16.289062 -8.714844 16.589844 -8.585938 16.847656 -8.328125 C 17.109375 -8.070312 17.238281 -7.765625 17.238281 -7.421875 C 17.238281 -7.054688 17.109375 -6.730469 16.847656 -6.492188 Z M 16.847656 -6.492188 "/></g></g></g><g fill="#ff00ff" fill-opacity="1"><g transform="translate(55.321547, 29.805436)"><g><path d="M 18.078125 -9.578125 C 17.496094 -10.183594 16.804688 -10.464844 15.941406 -10.464844 L 4.789062 -10.464844 C 3.925781 -10.464844 3.214844 -10.183594 2.632812 -9.578125 C 2.027344 -8.953125 1.726562 -8.261719 1.726562 -7.421875 L 1.726562 0 L 3.472656 0 L 3.472656 -4.359375 L 17.238281 -4.359375 L 17.238281 0 L 18.984375 0 L 18.984375 -7.421875 C 18.984375 -8.261719 18.683594 -8.953125 18.078125 -9.578125 Z M 17.238281 -6.105469 L 3.472656 -6.105469 L 3.472656 -7.421875 C 3.472656 -7.789062 3.601562 -8.089844 3.863281 -8.347656 C 4.054688 -8.542969 4.292969 -8.671875 4.53125 -8.714844 L 15.921875 -8.714844 C 16.289062 -8.714844 16.589844 -8.585938 16.847656 -8.328125 C 17.109375 -8.070312 17.238281 -7.765625 17.238281 -7.421875 Z M 17.238281 -6.105469 "/></g></g></g><g fill="#ff00ff" fill-opacity="1"><g transform="translate(76.024774, 29.805436)"><g><path d="M 3.453125 -10.464844 L 1.726562 -10.464844 L 1.726562 0 L 3.472656 0 Z M 3.453125 -10.464844 "/></g></g></g><g fill="#ff00ff" fill-opacity="1"><g transform="translate(81.222144, 29.805436)"><g><path d="M 17.238281 0 L 18.984375 0 L 18.984375 -7.441406 C 18.984375 -8.285156 18.683594 -8.976562 18.078125 -9.601562 C 17.496094 -10.203125 16.804688 -10.484375 15.941406 -10.484375 L 4.789062 -10.484375 C 3.925781 -10.484375 3.214844 -10.203125 2.632812 -9.601562 C 2.027344 -8.976562 1.726562 -8.285156 1.726562 -7.441406 L 1.726562 0 L 3.472656 0 L 3.472656 -7.441406 C 3.472656 -7.808594 3.601562 -8.113281 3.863281 -8.371094 C 4.054688 -8.566406 4.292969 -8.695312 4.53125 -8.738281 L 15.921875 -8.738281 C 16.289062 -8.738281 16.589844 -8.609375 16.847656 -8.347656 C 17.109375 -8.089844 17.238281 -7.789062 17.238281 -7.441406 Z M 17.238281 0 "/></g></g></g><g fill="#ff00ff" fill-opacity="1"><g transform="translate(101.925371, 29.805436)"><g/></g></g><g fill="#ff00ff" fill-opacity="1"><g transform="translate(114.864886, 29.805436)"><g><path d="M 17.238281 -10.464844 L 17.238281 -6.105469 L 4.789062 -6.105469 C 4.421875 -6.105469 4.121094 -6.234375 3.863281 -6.492188 C 3.601562 -6.730469 3.472656 -7.054688 3.472656 -7.421875 L 3.472656 -10.464844 L 1.726562 -10.464844 L 1.726562 -7.421875 C 1.726562 -6.558594 2.027344 -5.847656 2.632812 -5.265625 C 3.214844 -4.660156 3.925781 -4.359375 4.789062 -4.359375 L 17.238281 -4.359375 L 17.238281 -3.042969 C 17.238281 -2.675781 17.109375 -2.375 16.847656 -2.113281 C 16.589844 -1.855469 16.289062 -1.726562 15.921875 -1.726562 L 4.789062 -1.726562 C 4.421875 -1.726562 4.121094 -1.855469 3.863281 -2.113281 C 3.601562 -2.375 3.472656 -2.675781 3.472656 -3.042969 L 1.726562 -3.042969 C 1.726562 -2.199219 2.027344 -1.488281 2.632812 -0.882812 C 3.234375 -0.28125 3.925781 0 4.789062 0 L 15.941406 0 C 16.804688 0 17.496094 -0.28125 18.078125 -0.882812 C 18.683594 -1.511719 18.984375 -2.179688 18.984375 -3 L 18.984375 -10.464844 Z M 17.238281 -10.464844 "/></g></g></g><g fill="#ff00ff" fill-opacity="1"><g transform="translate(135.568113, 29.805436)"><g><path d="M 18.078125 -9.578125 C 17.476562 -10.183594 16.785156 -10.464844 15.921875 -10.464844 L 4.769531 -10.464844 C 3.90625 -10.464844 3.214844 -10.183594 2.632812 -9.578125 C 2.027344 -8.953125 1.726562 -8.285156 1.726562 -7.464844 L 1.726562 -3.042969 C 1.726562 -2.199219 2.027344 -1.488281 2.632812 -0.882812 C 3.214844 -0.28125 3.925781 0 4.789062 0 L 15.941406 0 C 16.804688 0 17.496094 -0.28125 18.078125 -0.882812 C 18.683594 -1.511719 18.984375 -2.199219 18.984375 -3.042969 L 18.984375 -7.421875 C 18.984375 -8.261719 18.683594 -8.976562 18.078125 -9.578125 Z M 16.847656 -2.136719 C 16.589844 -1.875 16.289062 -1.746094 15.921875 -1.746094 L 4.53125 -1.746094 C 4.292969 -1.789062 4.054688 -1.921875 3.863281 -2.113281 C 3.601562 -2.375 3.472656 -2.675781 3.472656 -3.042969 L 3.472656 -7.421875 C 3.472656 -7.789062 3.601562 -8.089844 3.863281 -8.347656 C 4.121094 -8.609375 4.421875 -8.738281 4.789062 -8.738281 L 15.921875 -8.738281 C 16.289062 -8.738281 16.589844 -8.609375 16.847656 -8.347656 C 17.109375 -8.089844 17.238281 -7.789062 17.238281 -7.421875 L 17.238281 -3.042969 C 17.238281 -2.695312 17.109375 -2.394531 16.847656 -2.136719 Z M 16.847656 -2.136719 "/></g></g></g><g fill="#ff00ff" fill-opacity="1"><g transform="translate(156.27134, 29.805436)"><g><path d="M 17.238281 -10.464844 L 17.238281 -3.042969 C 17.238281 -2.695312 17.109375 -2.394531 16.847656 -2.136719 C 16.589844 -1.875 16.289062 -1.746094 15.921875 -1.746094 L 4.53125 -1.746094 C 4.292969 -1.789062 4.054688 -1.921875 3.863281 -2.113281 C 3.601562 -2.375 3.472656 -2.675781 3.472656 -3.042969 L 3.472656 -10.464844 L 1.726562 -10.464844 L 1.726562 -3.042969 C 1.726562 -2.199219 2.027344 -1.488281 2.632812 -0.882812 C 3.214844 -0.28125 3.925781 0 4.789062 0 L 15.941406 0 C 16.804688 0 17.496094 -0.28125 18.078125 -0.882812 C 18.683594 -1.511719 18.984375 -2.199219 18.984375 -3.042969 L 18.984375 -10.464844 Z M 17.238281 -10.464844 "/></g></g></g><g fill="#ff00ff" fill-opacity="1"><g transform="translate(176.974567, 29.805436)"><g><path d="M 18.53125 -5.804688 C 18.832031 -6.300781 18.984375 -6.816406 18.984375 -7.421875 C 18.984375 -8.242188 18.683594 -8.953125 18.078125 -9.558594 C 17.496094 -10.160156 16.785156 -10.464844 15.921875 -10.464844 L 1.726562 -10.464844 L 1.726562 0 L 3.472656 0 L 3.472656 -4.359375 L 13.765625 -4.359375 C 14.714844 -4.359375 15.53125 -4.011719 16.222656 -3.34375 C 16.890625 -2.652344 17.238281 -1.832031 17.238281 -0.882812 L 17.238281 0 L 18.984375 0 L 18.984375 -0.882812 C 18.984375 -2.394531 18.425781 -3.667969 17.324219 -4.703125 C 17.820312 -4.960938 18.230469 -5.328125 18.53125 -5.804688 Z M 16.847656 -6.492188 C 16.589844 -6.234375 16.289062 -6.105469 15.921875 -6.105469 L 3.472656 -6.105469 L 3.472656 -8.714844 L 15.921875 -8.714844 C 16.289062 -8.714844 16.589844 -8.585938 16.847656 -8.328125 C 17.109375 -8.070312 17.238281 -7.765625 17.238281 -7.421875 C 17.238281 -7.054688 17.109375 -6.730469 16.847656 -6.492188 Z M 16.847656 -6.492188 "/></g></g></g><g fill="#ff00ff" fill-opacity="1"><g transform="translate(197.677795, 29.805436)"><g/></g></g><g fill="#ff00ff" fill-opacity="1"><g transform="translate(210.617309, 29.805436)"><g><path d="M 18.078125 -5.199219 C 18.078125 -5.222656 18.058594 -5.222656 18.058594 -5.242188 C 18.058594 -5.242188 18.078125 -5.242188 18.078125 -5.265625 C 18.683594 -5.847656 18.984375 -6.558594 18.984375 -7.421875 C 18.984375 -8.242188 18.683594 -8.953125 18.078125 -9.558594 C 17.496094 -10.160156 16.785156 -10.464844 15.921875 -10.464844 L 1.726562 -10.464844 L 1.726562 0 L 15.921875 0 C 16.785156 0 17.496094 -0.300781 18.078125 -0.90625 C 18.683594 -1.511719 18.984375 -2.222656 18.984375 -3.042969 C 18.984375 -3.90625 18.683594 -4.617188 18.078125 -5.199219 Z M 3.472656 -8.714844 L 15.921875 -8.714844 C 16.289062 -8.714844 16.589844 -8.585938 16.847656 -8.328125 C 17.109375 -8.070312 17.238281 -7.765625 17.238281 -7.421875 C 17.238281 -7.054688 17.109375 -6.730469 16.847656 -6.492188 C 16.589844 -6.234375 16.289062 -6.105469 15.921875 -6.105469 L 3.472656 -6.105469 Z M 16.847656 -2.136719 C 16.589844 -1.875 16.289062 -1.746094 15.921875 -1.746094 L 3.472656 -1.746094 L 3.472656 -4.359375 L 15.921875 -4.359375 C 16.289062 -4.359375 16.589844 -4.226562 16.847656 -3.96875 C 17.109375 -3.730469 17.238281 -3.410156 17.238281 -3.042969 C 17.238281 -2.695312 17.109375 -2.394531 16.847656 -2.136719 Z M 16.847656 -2.136719 "/></g></g></g><g fill="#ff00ff" fill-opacity="1"><g transform="translate(231.320536, 29.805436)"><g><path d="M 18.53125 -5.804688 C 18.832031 -6.300781 18.984375 -6.816406 18.984375 -7.421875 C 18.984375 -8.242188 18.683594 -8.953125 18.078125 -9.558594 C 17.496094 -10.160156 16.785156 -10.464844 15.921875 -10.464844 L 1.726562 -10.464844 L 1.726562 0 L 3.472656 0 L 3.472656 -4.359375 L 13.765625 -4.359375 C 14.714844 -4.359375 15.53125 -4.011719 16.222656 -3.34375 C 16.890625 -2.652344 17.238281 -1.832031 17.238281 -0.882812 L 17.238281 0 L 18.984375 0 L 18.984375 -0.882812 C 18.984375 -2.394531 18.425781 -3.667969 17.324219 -4.703125 C 17.820312 -4.960938 18.230469 -5.328125 18.53125 -5.804688 Z M 16.847656 -6.492188 C 16.589844 -6.234375 16.289062 -6.105469 15.921875 -6.105469 L 3.472656 -6.105469 L 3.472656 -8.714844 L 15.921875 -8.714844 C 16.289062 -8.714844 16.589844 -8.585938 16.847656 -8.328125 C 17.109375 -8.070312 17.238281 -7.765625 17.238281 -7.421875 C 17.238281 -7.054688 17.109375 -6.730469 16.847656 -6.492188 Z M 16.847656 -6.492188 "/></g></g></g><g fill="#ff00ff" fill-opacity="1"><g transform="translate(252.023763, 29.805436)"><g><path d="M 18.078125 -9.578125 C 17.496094 -10.183594 16.804688 -10.464844 15.941406 -10.464844 L 4.789062 -10.464844 C 3.925781 -10.464844 3.214844 -10.183594 2.632812 -9.578125 C 2.027344 -8.953125 1.726562 -8.261719 1.726562 -7.421875 L 1.726562 0 L 3.472656 0 L 3.472656 -4.359375 L 17.238281 -4.359375 L 17.238281 0 L 18.984375 0 L 18.984375 -7.421875 C 18.984375 -8.261719 18.683594 -8.953125 18.078125 -9.578125 Z M 17.238281 -6.105469 L 3.472656 -6.105469 L 3.472656 -7.421875 C 3.472656 -7.789062 3.601562 -8.089844 3.863281 -8.347656 C 4.054688 -8.542969 4.292969 -8.671875 4.53125 -8.714844 L 15.921875 -8.714844 C 16.289062 -8.714844 16.589844 -8.585938 16.847656 -8.328125 C 17.109375 -8.070312 17.238281 -7.765625 17.238281 -7.421875 Z M 17.238281 -6.105469 "/></g></g></g><g fill="#ff00ff" fill-opacity="1"><g transform="translate(272.72699, 29.805436)"><g><path d="M 3.453125 -10.464844 L 1.726562 -10.464844 L 1.726562 0 L 3.472656 0 Z M 3.453125 -10.464844 "/></g></g></g><g fill="#ff00ff" fill-opacity="1"><g transform="translate(277.924361, 29.805436)"><g><path d="M 17.238281 0 L 18.984375 0 L 18.984375 -7.441406 C 18.984375 -8.285156 18.683594 -8.976562 18.078125 -9.601562 C 17.496094 -10.203125 16.804688 -10.484375 15.941406 -10.484375 L 4.789062 -10.484375 C 3.925781 -10.484375 3.214844 -10.203125 2.632812 -9.601562 C 2.027344 -8.976562 1.726562 -8.285156 1.726562 -7.441406 L 1.726562 0 L 3.472656 0 L 3.472656 -7.441406 C 3.472656 -7.808594 3.601562 -8.113281 3.863281 -8.371094 C 4.054688 -8.566406 4.292969 -8.695312 4.53125 -8.738281 L 15.921875 -8.738281 C 16.289062 -8.738281 16.589844 -8.609375 16.847656 -8.347656 C 17.109375 -8.089844 17.238281 -7.789062 17.238281 -7.441406 Z M 17.238281 0 "/></g></g></g><g fill="#00ffff" fill-opacity="1"><g transform="translate(16.365594, 29.056242)"><g><path d="M 18.984375 -10.464844 L 18.984375 -8.714844 L 11.261719 -8.714844 L 11.261719 0 L 9.515625 0 L 9.515625 -8.714844 L 1.726562 -8.714844 L 1.726562 -10.464844 Z M 18.984375 -10.464844 "/></g></g></g><g fill="#00ffff" fill-opacity="1"><g transform="translate(37.068822, 29.056242)"><g><path d="M 18.53125 -5.804688 C 18.832031 -6.300781 18.984375 -6.816406 18.984375 -7.421875 C 18.984375 -8.242188 18.683594 -8.953125 18.078125 -9.558594 C 17.496094 -10.160156 16.785156 -10.464844 15.921875 -10.464844 L 1.726562 -10.464844 L 1.726562 0 L 3.472656 0 L 3.472656 -4.359375 L 13.765625 -4.359375 C 14.714844 -4.359375 15.53125 -4.011719 16.222656 -3.34375 C 16.890625 -2.652344 17.238281 -1.832031 17.238281 -0.882812 L 17.238281 0 L 18.984375 0 L 18.984375 -0.882812 C 18.984375 -2.394531 18.425781 -3.667969 17.324219 -4.703125 C 17.820312 -4.960938 18.230469 -5.328125 18.53125 -5.804688 Z M 16.847656 -6.492188 C 16.589844 -6.234375 16.289062 -6.105469 15.921875 -6.105469 L 3.472656 -6.105469 L 3.472656 -8.714844 L 15.921875 -8.714844 C 16.289062 -8.714844 16.589844 -8.585938 16.847656 -8.328125 C 17.109375 -8.070312 17.238281 -7.765625 17.238281 -7.421875 C 17.238281 -7.054688 17.109375 -6.730469 16.847656 -6.492188 Z M 16.847656 -6.492188 "/></g></g></g><g fill="#00ffff" fill-opacity="1"><g transform="translate(57.772049, 29.056242)"><g><path d="M 18.078125 -9.578125 C 17.496094 -10.183594 16.804688 -10.464844 15.941406 -10.464844 L 4.789062 -10.464844 C 3.925781 -10.464844 3.214844 -10.183594 2.632812 -9.578125 C 2.027344 -8.953125 1.726562 -8.261719 1.726562 -7.421875 L 1.726562 0 L 3.472656 0 L 3.472656 -4.359375 L 17.238281 -4.359375 L 17.238281 0 L 18.984375 0 L 18.984375 -7.421875 C 18.984375 -8.261719 18.683594 -8.953125 18.078125 -9.578125 Z M 17.238281 -6.105469 L 3.472656 -6.105469 L 3.472656 -7.421875 C 3.472656 -7.789062 3.601562 -8.089844 3.863281 -8.347656 C 4.054688 -8.542969 4.292969 -8.671875 4.53125 -8.714844 L 15.921875 -8.714844 C 16.289062 -8.714844 16.589844 -8.585938 16.847656 -8.328125 C 17.109375 -8.070312 17.238281 -7.765625 17.238281 -7.421875 Z M 17.238281 -6.105469 "/></g></g></g><g fill="#00ffff" fill-opacity="1"><g transform="translate(78.475276, 29.056242)"><g><path d="M 3.453125 -10.464844 L 1.726562 -10.464844 L 1.726562 0 L 3.472656 0 Z M 3.453125 -10.464844 "/></g></g></g><g fill="#00ffff" fill-opacity="1"><g transform="translate(83.672646, 29.056242)"><g><path d="M 17.238281 0 L 18.984375 0 L 18.984375 -7.441406 C 18.984375 -8.285156 18.683594 -8.976562 18.078125 -9.601562 C 17.496094 -10.203125 16.804688 -10.484375 15.941406 -10.484375 L 4.789062 -10.484375 C 3.925781 -10.484375 3.214844 -10.203125 2.632812 -9.601562 C 2.027344 -8.976562 1.726562 -8.285156 1.726562 -7.441406 L 1.726562 0 L 3.472656 0 L 3.472656 -7.441406 C 3.472656 -7.808594 3.601562 -8.113281 3.863281 -8.371094 C 4.054688 -8.566406 4.292969 -8.695312 4.53125 -8.738281 L 15.921875 -8.738281 C 16.289062 -8.738281 16.589844 -8.609375 16.847656 -8.347656 C 17.109375 -8.089844 17.238281 -7.789062 17.238281 -7.441406 Z M 17.238281 0 "/></g></g></g><g fill="#00ffff" fill-opacity="1"><g transform="translate(104.375874, 29.056242)"><g/></g></g><g fill="#00ffff" fill-opacity="1"><g transform="translate(117.315388, 29.056242)"><g><path d="M 17.238281 -10.464844 L 17.238281 -6.105469 L 4.789062 -6.105469 C 4.421875 -6.105469 4.121094 -6.234375 3.863281 -6.492188 C 3.601562 -6.730469 3.472656 -7.054688 3.472656 -7.421875 L 3.472656 -10.464844 L 1.726562 -10.464844 L 1.726562 -7.421875 C 1.726562 -6.558594 2.027344 -5.847656 2.632812 -5.265625 C 3.214844 -4.660156 3.925781 -4.359375 4.789062 -4.359375 L 17.238281 -4.359375 L 17.238281 -3.042969 C 17.238281 -2.675781 17.109375 -2.375 16.847656 -2.113281 C 16.589844 -1.855469 16.289062 -1.726562 15.921875 -1.726562 L 4.789062 -1.726562 C 4.421875 -1.726562 4.121094 -1.855469 3.863281 -2.113281 C 3.601562 -2.375 3.472656 -2.675781 3.472656 -3.042969 L 1.726562 -3.042969 C 1.726562 -2.199219 2.027344 -1.488281 2.632812 -0.882812 C 3.234375 -0.28125 3.925781 0 4.789062 0 L 15.941406 0 C 16.804688 0 17.496094 -0.28125 18.078125 -0.882812 C 18.683594 -1.511719 18.984375 -2.179688 18.984375 -3 L 18.984375 -10.464844 Z M 17.238281 -10.464844 "/></g></g></g><g fill="#00ffff" fill-opacity="1"><g transform="translate(138.018615, 29.056242)"><g><path d="M 18.078125 -9.578125 C 17.476562 -10.183594 16.785156 -10.464844 15.921875 -10.464844 L 4.769531 -10.464844 C 3.90625 -10.464844 3.214844 -10.183594 2.632812 -9.578125 C 2.027344 -8.953125 1.726562 -8.285156 1.726562 -7.464844 L 1.726562 -3.042969 C 1.726562 -2.199219 2.027344 -1.488281 2.632812 -0.882812 C 3.214844 -0.28125 3.925781 0 4.789062 0 L 15.941406 0 C 16.804688 0 17.496094 -0.28125 18.078125 -0.882812 C 18.683594 -1.511719 18.984375 -2.199219 18.984375 -3.042969 L 18.984375 -7.421875 C 18.984375 -8.261719 18.683594 -8.976562 18.078125 -9.578125 Z M 16.847656 -2.136719 C 16.589844 -1.875 16.289062 -1.746094 15.921875 -1.746094 L 4.53125 -1.746094 C 4.292969 -1.789062 4.054688 -1.921875 3.863281 -2.113281 C 3.601562 -2.375 3.472656 -2.675781 3.472656 -3.042969 L 3.472656 -7.421875 C 3.472656 -7.789062 3.601562 -8.089844 3.863281 -8.347656 C 4.121094 -8.609375 4.421875 -8.738281 4.789062 -8.738281 L 15.921875 -8.738281 C 16.289062 -8.738281 16.589844 -8.609375 16.847656 -8.347656 C 17.109375 -8.089844 17.238281 -7.789062 17.238281 -7.421875 L 17.238281 -3.042969 C 17.238281 -2.695312 17.109375 -2.394531 16.847656 -2.136719 Z M 16.847656 -2.136719 "/></g></g></g><g fill="#00ffff" fill-opacity="1"><g transform="translate(158.721842, 29.056242)"><g><path d="M 17.238281 -10.464844 L 17.238281 -3.042969 C 17.238281 -2.695312 17.109375 -2.394531 16.847656 -2.136719 C 16.589844 -1.875 16.289062 -1.746094 15.921875 -1.746094 L 4.53125 -1.746094 C 4.292969 -1.789062 4.054688 -1.921875 3.863281 -2.113281 C 3.601562 -2.375 3.472656 -2.675781 3.472656 -3.042969 L 3.472656 -10.464844 L 1.726562 -10.464844 L 1.726562 -3.042969 C 1.726562 -2.199219 2.027344 -1.488281 2.632812 -0.882812 C 3.214844 -0.28125 3.925781 0 4.789062 0 L 15.941406 0 C 16.804688 0 17.496094 -0.28125 18.078125 -0.882812 C 18.683594 -1.511719 18.984375 -2.199219 18.984375 -3.042969 L 18.984375 -10.464844 Z M 17.238281 -10.464844 "/></g></g></g><g fill="#00ffff" fill-opacity="1"><g transform="translate(179.42507, 29.056242)"><g><path d="M 18.53125 -5.804688 C 18.832031 -6.300781 18.984375 -6.816406 18.984375 -7.421875 C 18.984375 -8.242188 18.683594 -8.953125 18.078125 -9.558594 C 17.496094 -10.160156 16.785156 -10.464844 15.921875 -10.464844 L 1.726562 -10.464844 L 1.726562 0 L 3.472656 0 L 3.472656 -4.359375 L 13.765625 -4.359375 C 14.714844 -4.359375 15.53125 -4.011719 16.222656 -3.34375 C 16.890625 -2.652344 17.238281 -1.832031 17.238281 -0.882812 L 17.238281 0 L 18.984375 0 L 18.984375 -0.882812 C 18.984375 -2.394531 18.425781 -3.667969 17.324219 -4.703125 C 17.820312 -4.960938 18.230469 -5.328125 18.53125 -5.804688 Z M 16.847656 -6.492188 C 16.589844 -6.234375 16.289062 -6.105469 15.921875 -6.105469 L 3.472656 -6.105469 L 3.472656 -8.714844 L 15.921875 -8.714844 C 16.289062 -8.714844 16.589844 -8.585938 16.847656 -8.328125 C 17.109375 -8.070312 17.238281 -7.765625 17.238281 -7.421875 C 17.238281 -7.054688 17.109375 -6.730469 16.847656 -6.492188 Z M 16.847656 -6.492188 "/></g></g></g><g fill="#00ffff" fill-opacity="1"><g transform="translate(200.128297, 29.056242)"><g/></g></g><g fill="#00ffff" fill-opacity="1"><g transform="translate(213.067811, 29.056242)"><g><path d="M 18.078125 -5.199219 C 18.078125 -5.222656 18.058594 -5.222656 18.058594 -5.242188 C 18.058594 -5.242188 18.078125 -5.242188 18.078125 -5.265625 C 18.683594 -5.847656 18.984375 -6.558594 18.984375 -7.421875 C 18.984375 -8.242188 18.683594 -8.953125 18.078125 -9.558594 C 17.496094 -10.160156 16.785156 -10.464844 15.921875 -10.464844 L 1.726562 -10.464844 L 1.726562 0 L 15.921875 0 C 16.785156 0 17.496094 -0.300781 18.078125 -0.90625 C 18.683594 -1.511719 18.984375 -2.222656 18.984375 -3.042969 C 18.984375 -3.90625 18.683594 -4.617188 18.078125 -5.199219 Z M 3.472656 -8.714844 L 15.921875 -8.714844 C 16.289062 -8.714844 16.589844 -8.585938 16.847656 -8.328125 C 17.109375 -8.070312 17.238281 -7.765625 17.238281 -7.421875 C 17.238281 -7.054688 17.109375 -6.730469 16.847656 -6.492188 C 16.589844 -6.234375 16.289062 -6.105469 15.921875 -6.105469 L 3.472656 -6.105469 Z M 16.847656 -2.136719 C 16.589844 -1.875 16.289062 -1.746094 15.921875 -1.746094 L 3.472656 -1.746094 L 3.472656 -4.359375 L 15.921875 -4.359375 C 16.289062 -4.359375 16.589844 -4.226562 16.847656 -3.96875 C 17.109375 -3.730469 17.238281 -3.410156 17.238281 -3.042969 C 17.238281 -2.695312 17.109375 -2.394531 16.847656 -2.136719 Z M 16.847656 -2.136719 "/></g></g></g><g fill="#00ffff" fill-opacity="1"><g transform="translate(233.771038, 29.056242)"><g><path d="M 18.53125 -5.804688 C 18.832031 -6.300781 18.984375 -6.816406 18.984375 -7.421875 C 18.984375 -8.242188 18.683594 -8.953125 18.078125 -9.558594 C 17.496094 -10.160156 16.785156 -10.464844 15.921875 -10.464844 L 1.726562 -10.464844 L 1.726562 0 L 3.472656 0 L 3.472656 -4.359375 L 13.765625 -4.359375 C 14.714844 -4.359375 15.53125 -4.011719 16.222656 -3.34375 C 16.890625 -2.652344 17.238281 -1.832031 17.238281 -0.882812 L 17.238281 0 L 18.984375 0 L 18.984375 -0.882812 C 18.984375 -2.394531 18.425781 -3.667969 17.324219 -4.703125 C 17.820312 -4.960938 18.230469 -5.328125 18.53125 -5.804688 Z M 16.847656 -6.492188 C 16.589844 -6.234375 16.289062 -6.105469 15.921875 -6.105469 L 3.472656 -6.105469 L 3.472656 -8.714844 L 15.921875 -8.714844 C 16.289062 -8.714844 16.589844 -8.585938 16.847656 -8.328125 C 17.109375 -8.070312 17.238281 -7.765625 17.238281 -7.421875 C 17.238281 -7.054688 17.109375 -6.730469 16.847656 -6.492188 Z M 16.847656 -6.492188 "/></g></g></g><g fill="#00ffff" fill-opacity="1"><g transform="translate(254.474266, 29.056242)"><g><path d="M 18.078125 -9.578125 C 17.496094 -10.183594 16.804688 -10.464844 15.941406 -10.464844 L 4.789062 -10.464844 C 3.925781 -10.464844 3.214844 -10.183594 2.632812 -9.578125 C 2.027344 -8.953125 1.726562 -8.261719 1.726562 -7.421875 L 1.726562 0 L 3.472656 0 L 3.472656 -4.359375 L 17.238281 -4.359375 L 17.238281 0 L 18.984375 0 L 18.984375 -7.421875 C 18.984375 -8.261719 18.683594 -8.953125 18.078125 -9.578125 Z M 17.238281 -6.105469 L 3.472656 -6.105469 L 3.472656 -7.421875 C 3.472656 -7.789062 3.601562 -8.089844 3.863281 -8.347656 C 4.054688 -8.542969 4.292969 -8.671875 4.53125 -8.714844 L 15.921875 -8.714844 C 16.289062 -8.714844 16.589844 -8.585938 16.847656 -8.328125 C 17.109375 -8.070312 17.238281 -7.765625 17.238281 -7.421875 Z M 17.238281 -6.105469 "/></g></g></g><g fill="#00ffff" fill-opacity="1"><g transform="translate(275.177493, 29.056242)"><g><path d="M 3.453125 -10.464844 L 1.726562 -10.464844 L 1.726562 0 L 3.472656 0 Z M 3.453125 -10.464844 "/></g></g></g><g fill="#00ffff" fill-opacity="1"><g transform="translate(280.374863, 29.056242)"><g><path d="M 17.238281 0 L 18.984375 0 L 18.984375 -7.441406 C 18.984375 -8.285156 18.683594 -8.976562 18.078125 -9.601562 C 17.496094 -10.203125 16.804688 -10.484375 15.941406 -10.484375 L 4.789062 -10.484375 C 3.925781 -10.484375 3.214844 -10.203125 2.632812 -9.601562 C 2.027344 -8.976562 1.726562 -8.285156 1.726562 -7.441406 L 1.726562 0 L 3.472656 0 L 3.472656 -7.441406 C 3.472656 -7.808594 3.601562 -8.113281 3.863281 -8.371094 C 4.054688 -8.566406 4.292969 -8.695312 4.53125 -8.738281 L 15.921875 -8.738281 C 16.289062 -8.738281 16.589844 -8.609375 16.847656 -8.347656 C 17.109375 -8.089844 17.238281 -7.789062 17.238281 -7.441406 Z M 17.238281 0 "/></g></g></g><g fill="#ff1616" fill-opacity="1"><g transform="translate(15.140344, 29.430839)"><g><path d="M 18.984375 -10.464844 L 18.984375 -8.714844 L 11.261719 -8.714844 L 11.261719 0 L 9.515625 0 L 9.515625 -8.714844 L 1.726562 -8.714844 L 1.726562 -10.464844 Z M 18.984375 -10.464844 "/></g></g></g><g fill="#ff1616" fill-opacity="1"><g transform="translate(35.843571, 29.430839)"><g><path d="M 18.53125 -5.804688 C 18.832031 -6.300781 18.984375 -6.816406 18.984375 -7.421875 C 18.984375 -8.242188 18.683594 -8.953125 18.078125 -9.558594 C 17.496094 -10.160156 16.785156 -10.464844 15.921875 -10.464844 L 1.726562 -10.464844 L 1.726562 0 L 3.472656 0 L 3.472656 -4.359375 L 13.765625 -4.359375 C 14.714844 -4.359375 15.53125 -4.011719 16.222656 -3.34375 C 16.890625 -2.652344 17.238281 -1.832031 17.238281 -0.882812 L 17.238281 0 L 18.984375 0 L 18.984375 -0.882812 C 18.984375 -2.394531 18.425781 -3.667969 17.324219 -4.703125 C 17.820312 -4.960938 18.230469 -5.328125 18.53125 -5.804688 Z M 16.847656 -6.492188 C 16.589844 -6.234375 16.289062 -6.105469 15.921875 -6.105469 L 3.472656 -6.105469 L 3.472656 -8.714844 L 15.921875 -8.714844 C 16.289062 -8.714844 16.589844 -8.585938 16.847656 -8.328125 C 17.109375 -8.070312 17.238281 -7.765625 17.238281 -7.421875 C 17.238281 -7.054688 17.109375 -6.730469 16.847656 -6.492188 Z M 16.847656 -6.492188 "/></g></g></g><g fill="#ff1616" fill-opacity="1"><g transform="translate(56.546798, 29.430839)"><g><path d="M 18.078125 -9.578125 C 17.496094 -10.183594 16.804688 -10.464844 15.941406 -10.464844 L 4.789062 -10.464844 C 3.925781 -10.464844 3.214844 -10.183594 2.632812 -9.578125 C 2.027344 -8.953125 1.726562 -8.261719 1.726562 -7.421875 L 1.726562 0 L 3.472656 0 L 3.472656 -4.359375 L 17.238281 -4.359375 L 17.238281 0 L 18.984375 0 L 18.984375 -7.421875 C 18.984375 -8.261719 18.683594 -8.953125 18.078125 -9.578125 Z M 17.238281 -6.105469 L 3.472656 -6.105469 L 3.472656 -7.421875 C 3.472656 -7.789062 3.601562 -8.089844 3.863281 -8.347656 C 4.054688 -8.542969 4.292969 -8.671875 4.53125 -8.714844 L 15.921875 -8.714844 C 16.289062 -8.714844 16.589844 -8.585938 16.847656 -8.328125 C 17.109375 -8.070312 17.238281 -7.765625 17.238281 -7.421875 Z M 17.238281 -6.105469 "/></g></g></g><g fill="#ff1616" fill-opacity="1"><g transform="translate(77.250025, 29.430839)"><g><path d="M 3.453125 -10.464844 L 1.726562 -10.464844 L 1.726562 0 L 3.472656 0 Z M 3.453125 -10.464844 "/></g></g></g><g fill="#ff1616" fill-opacity="1"><g transform="translate(82.447396, 29.430839)"><g><path d="M 17.238281 0 L 18.984375 0 L 18.984375 -7.441406 C 18.984375 -8.285156 18.683594 -8.976562 18.078125 -9.601562 C 17.496094 -10.203125 16.804688 -10.484375 15.941406 -10.484375 L 4.789062 -10.484375 C 3.925781 -10.484375 3.214844 -10.203125 2.632812 -9.601562 C 2.027344 -8.976562 1.726562 -8.285156 1.726562 -7.441406 L 1.726562 0 L 3.472656 0 L 3.472656 -7.441406 C 3.472656 -7.808594 3.601562 -8.113281 3.863281 -8.371094 C 4.054688 -8.566406 4.292969 -8.695312 4.53125 -8.738281 L 15.921875 -8.738281 C 16.289062 -8.738281 16.589844 -8.609375 16.847656 -8.347656 C 17.109375 -8.089844 17.238281 -7.789062 17.238281 -7.441406 Z M 17.238281 0 "/></g></g></g><g fill="#ff1616" fill-opacity="1"><g transform="translate(103.150623, 29.430839)"><g/></g></g><g fill="#ff1616" fill-opacity="1"><g transform="translate(116.090137, 29.430839)"><g><path d="M 17.238281 -10.464844 L 17.238281 -6.105469 L 4.789062 -6.105469 C 4.421875 -6.105469 4.121094 -6.234375 3.863281 -6.492188 C 3.601562 -6.730469 3.472656 -7.054688 3.472656 -7.421875 L 3.472656 -10.464844 L 1.726562 -10.464844 L 1.726562 -7.421875 C 1.726562 -6.558594 2.027344 -5.847656 2.632812 -5.265625 C 3.214844 -4.660156 3.925781 -4.359375 4.789062 -4.359375 L 17.238281 -4.359375 L 17.238281 -3.042969 C 17.238281 -2.675781 17.109375 -2.375 16.847656 -2.113281 C 16.589844 -1.855469 16.289062 -1.726562 15.921875 -1.726562 L 4.789062 -1.726562 C 4.421875 -1.726562 4.121094 -1.855469 3.863281 -2.113281 C 3.601562 -2.375 3.472656 -2.675781 3.472656 -3.042969 L 1.726562 -3.042969 C 1.726562 -2.199219 2.027344 -1.488281 2.632812 -0.882812 C 3.234375 -0.28125 3.925781 0 4.789062 0 L 15.941406 0 C 16.804688 0 17.496094 -0.28125 18.078125 -0.882812 C 18.683594 -1.511719 18.984375 -2.179688 18.984375 -3 L 18.984375 -10.464844 Z M 17.238281 -10.464844 "/></g></g></g><g fill="#ff1616" fill-opacity="1"><g transform="translate(136.793364, 29.430839)"><g><path d="M 18.078125 -9.578125 C 17.476562 -10.183594 16.785156 -10.464844 15.921875 -10.464844 L 4.769531 -10.464844 C 3.90625 -10.464844 3.214844 -10.183594 2.632812 -9.578125 C 2.027344 -8.953125 1.726562 -8.285156 1.726562 -7.464844 L 1.726562 -3.042969 C 1.726562 -2.199219 2.027344 -1.488281 2.632812 -0.882812 C 3.214844 -0.28125 3.925781 0 4.789062 0 L 15.941406 0 C 16.804688 0 17.496094 -0.28125 18.078125 -0.882812 C 18.683594 -1.511719 18.984375 -2.199219 18.984375 -3.042969 L 18.984375 -7.421875 C 18.984375 -8.261719 18.683594 -8.976562 18.078125 -9.578125 Z M 16.847656 -2.136719 C 16.589844 -1.875 16.289062 -1.746094 15.921875 -1.746094 L 4.53125 -1.746094 C 4.292969 -1.789062 4.054688 -1.921875 3.863281 -2.113281 C 3.601562 -2.375 3.472656 -2.675781 3.472656 -3.042969 L 3.472656 -7.421875 C 3.472656 -7.789062 3.601562 -8.089844 3.863281 -8.347656 C 4.121094 -8.609375 4.421875 -8.738281 4.789062 -8.738281 L 15.921875 -8.738281 C 16.289062 -8.738281 16.589844 -8.609375 16.847656 -8.347656 C 17.109375 -8.089844 17.238281 -7.789062 17.238281 -7.421875 L 17.238281 -3.042969 C 17.238281 -2.695312 17.109375 -2.394531 16.847656 -2.136719 Z M 16.847656 -2.136719 "/></g></g></g><g fill="#ff1616" fill-opacity="1"><g transform="translate(157.496591, 29.430839)"><g><path d="M 17.238281 -10.464844 L 17.238281 -3.042969 C 17.238281 -2.695312 17.109375 -2.394531 16.847656 -2.136719 C 16.589844 -1.875 16.289062 -1.746094 15.921875 -1.746094 L 4.53125 -1.746094 C 4.292969 -1.789062 4.054688 -1.921875 3.863281 -2.113281 C 3.601562 -2.375 3.472656 -2.675781 3.472656 -3.042969 L 3.472656 -10.464844 L 1.726562 -10.464844 L 1.726562 -3.042969 C 1.726562 -2.199219 2.027344 -1.488281 2.632812 -0.882812 C 3.214844 -0.28125 3.925781 0 4.789062 0 L 15.941406 0 C 16.804688 0 17.496094 -0.28125 18.078125 -0.882812 C 18.683594 -1.511719 18.984375 -2.199219 18.984375 -3.042969 L 18.984375 -10.464844 Z M 17.238281 -10.464844 "/></g></g></g><g fill="#ff1616" fill-opacity="1"><g transform="translate(178.199819, 29.430839)"><g><path d="M 18.53125 -5.804688 C 18.832031 -6.300781 18.984375 -6.816406 18.984375 -7.421875 C 18.984375 -8.242188 18.683594 -8.953125 18.078125 -9.558594 C 17.496094 -10.160156 16.785156 -10.464844 15.921875 -10.464844 L 1.726562 -10.464844 L 1.726562 0 L 3.472656 0 L 3.472656 -4.359375 L 13.765625 -4.359375 C 14.714844 -4.359375 15.53125 -4.011719 16.222656 -3.34375 C 16.890625 -2.652344 17.238281 -1.832031 17.238281 -0.882812 L 17.238281 0 L 18.984375 0 L 18.984375 -0.882812 C 18.984375 -2.394531 18.425781 -3.667969 17.324219 -4.703125 C 17.820312 -4.960938 18.230469 -5.328125 18.53125 -5.804688 Z M 16.847656 -6.492188 C 16.589844 -6.234375 16.289062 -6.105469 15.921875 -6.105469 L 3.472656 -6.105469 L 3.472656 -8.714844 L 15.921875 -8.714844 C 16.289062 -8.714844 16.589844 -8.585938 16.847656 -8.328125 C 17.109375 -8.070312 17.238281 -7.765625 17.238281 -7.421875 C 17.238281 -7.054688 17.109375 -6.730469 16.847656 -6.492188 Z M 16.847656 -6.492188 "/></g></g></g><g fill="#ff1616" fill-opacity="1"><g transform="translate(198.903046, 29.430839)"><g/></g></g><g fill="#ff1616" fill-opacity="1"><g transform="translate(211.84256, 29.430839)"><g><path d="M 18.078125 -5.199219 C 18.078125 -5.222656 18.058594 -5.222656 18.058594 -5.242188 C 18.058594 -5.242188 18.078125 -5.242188 18.078125 -5.265625 C 18.683594 -5.847656 18.984375 -6.558594 18.984375 -7.421875 C 18.984375 -8.242188 18.683594 -8.953125 18.078125 -9.558594 C 17.496094 -10.160156 16.785156 -10.464844 15.921875 -10.464844 L 1.726562 -10.464844 L 1.726562 0 L 15.921875 0 C 16.785156 0 17.496094 -0.300781 18.078125 -0.90625 C 18.683594 -1.511719 18.984375 -2.222656 18.984375 -3.042969 C 18.984375 -3.90625 18.683594 -4.617188 18.078125 -5.199219 Z M 3.472656 -8.714844 L 15.921875 -8.714844 C 16.289062 -8.714844 16.589844 -8.585938 16.847656 -8.328125 C 17.109375 -8.070312 17.238281 -7.765625 17.238281 -7.421875 C 17.238281 -7.054688 17.109375 -6.730469 16.847656 -6.492188 C 16.589844 -6.234375 16.289062 -6.105469 15.921875 -6.105469 L 3.472656 -6.105469 Z M 16.847656 -2.136719 C 16.589844 -1.875 16.289062 -1.746094 15.921875 -1.746094 L 3.472656 -1.746094 L 3.472656 -4.359375 L 15.921875 -4.359375 C 16.289062 -4.359375 16.589844 -4.226562 16.847656 -3.96875 C 17.109375 -3.730469 17.238281 -3.410156 17.238281 -3.042969 C 17.238281 -2.695312 17.109375 -2.394531 16.847656 -2.136719 Z M 16.847656 -2.136719 "/></g></g></g><g fill="#ff1616" fill-opacity="1"><g transform="translate(232.545787, 29.430839)"><g><path d="M 18.53125 -5.804688 C 18.832031 -6.300781 18.984375 -6.816406 18.984375 -7.421875 C 18.984375 -8.242188 18.683594 -8.953125 18.078125 -9.558594 C 17.496094 -10.160156 16.785156 -10.464844 15.921875 -10.464844 L 1.726562 -10.464844 L 1.726562 0 L 3.472656 0 L 3.472656 -4.359375 L 13.765625 -4.359375 C 14.714844 -4.359375 15.53125 -4.011719 16.222656 -3.34375 C 16.890625 -2.652344 17.238281 -1.832031 17.238281 -0.882812 L 17.238281 0 L 18.984375 0 L 18.984375 -0.882812 C 18.984375 -2.394531 18.425781 -3.667969 17.324219 -4.703125 C 17.820312 -4.960938 18.230469 -5.328125 18.53125 -5.804688 Z M 16.847656 -6.492188 C 16.589844 -6.234375 16.289062 -6.105469 15.921875 -6.105469 L 3.472656 -6.105469 L 3.472656 -8.714844 L 15.921875 -8.714844 C 16.289062 -8.714844 16.589844 -8.585938 16.847656 -8.328125 C 17.109375 -8.070312 17.238281 -7.765625 17.238281 -7.421875 C 17.238281 -7.054688 17.109375 -6.730469 16.847656 -6.492188 Z M 16.847656 -6.492188 "/></g></g></g><g fill="#ff1616" fill-opacity="1"><g transform="translate(253.249015, 29.430839)"><g><path d="M 18.078125 -9.578125 C 17.496094 -10.183594 16.804688 -10.464844 15.941406 -10.464844 L 4.789062 -10.464844 C 3.925781 -10.464844 3.214844 -10.183594 2.632812 -9.578125 C 2.027344 -8.953125 1.726562 -8.261719 1.726562 -7.421875 L 1.726562 0 L 3.472656 0 L 3.472656 -4.359375 L 17.238281 -4.359375 L 17.238281 0 L 18.984375 0 L 18.984375 -7.421875 C 18.984375 -8.261719 18.683594 -8.953125 18.078125 -9.578125 Z M 17.238281 -6.105469 L 3.472656 -6.105469 L 3.472656 -7.421875 C 3.472656 -7.789062 3.601562 -8.089844 3.863281 -8.347656 C 4.054688 -8.542969 4.292969 -8.671875 4.53125 -8.714844 L 15.921875 -8.714844 C 16.289062 -8.714844 16.589844 -8.585938 16.847656 -8.328125 C 17.109375 -8.070312 17.238281 -7.765625 17.238281 -7.421875 Z M 17.238281 -6.105469 "/></g></g></g><g fill="#ff1616" fill-opacity="1"><g transform="translate(273.952242, 29.430839)"><g><path d="M 3.453125 -10.464844 L 1.726562 -10.464844 L 1.726562 0 L 3.472656 0 Z M 3.453125 -10.464844 "/></g></g></g><g fill="#ff1616" fill-opacity="1"><g transform="translate(279.149612, 29.430839)"><g><path d="M 17.238281 0 L 18.984375 0 L 18.984375 -7.441406 C 18.984375 -8.285156 18.683594 -8.976562 18.078125 -9.601562 C 17.496094 -10.203125 16.804688 -10.484375 15.941406 -10.484375 L 4.789062 -10.484375 C 3.925781 -10.484375 3.214844 -10.203125 2.632812 -9.601562 C 2.027344 -8.976562 1.726562 -8.285156 1.726562 -7.441406 L 1.726562 0 L 3.472656 0 L 3.472656 -7.441406 C 3.472656 -7.808594 3.601562 -8.113281 3.863281 -8.371094 C 4.054688 -8.566406 4.292969 -8.695312 4.53125 -8.738281 L 15.921875 -8.738281 C 16.289062 -8.738281 16.589844 -8.609375 16.847656 -8.347656 C 17.109375 -8.089844 17.238281 -7.789062 17.238281 -7.441406 Z M 17.238281 0 "/></g></g></g></svg>