<svg xmlns="http://www.w3.org/2000/svg" xmlns:xlink="http://www.w3.org/1999/xlink" width="200" zoomAndPan="magnify" viewBox="0 0 150 143.999998" height="192" preserveAspectRatio="xMidYMid meet" version="1.0"><defs><clipPath id="0f3acecbfd"><path d="M 3 0.1875 L 147 0.1875 L 147 144 L 3 144 Z M 3 0.1875 " clip-rule="nonzero"/></clipPath></defs><g clip-path="url(#0f3acecbfd)"><path fill="#07b7d5" d="M 141.148438 54.320312 L 141.148438 90.023438 L 146.285156 90.023438 L 146.285156 134.53125 L 137.183594 143.660156 L 12.792969 143.660156 L 3.679688 134.53125 L 3.679688 90.023438 L 8.964844 90.023438 L 8.964844 54.320312 L 3.679688 54.320312 L 3.679688 9.8125 L 12.792969 0.683594 L 137.183594 0.683594 L 146.285156 9.8125 L 146.285156 54.320312 Z M 141.148438 54.320312 " fill-opacity="0.22" fill-rule="nonzero"/><path fill="#07b7d5" d="M 137.390625 144.167969 L 12.585938 144.167969 L 3.175781 134.742188 L 3.175781 89.515625 L 8.457031 89.515625 L 8.457031 54.824219 L 3.175781 54.824219 L 3.175781 9.601562 L 12.585938 0.175781 L 137.390625 0.175781 L 146.792969 9.601562 L 146.792969 54.824219 L 141.667969 54.824219 L 141.667969 89.515625 L 146.792969 89.515625 L 146.792969 134.742188 Z M 13 143.160156 L 136.988281 143.160156 L 145.796875 134.328125 L 145.796875 90.53125 L 140.671875 90.53125 L 140.671875 53.8125 L 145.796875 53.8125 L 145.796875 10.023438 L 136.96875 1.183594 L 12.984375 1.183594 L 4.179688 10.023438 L 4.179688 53.8125 L 9.46875 53.8125 L 9.46875 90.53125 L 4.179688 90.53125 L 4.179688 134.320312 Z M 13 143.160156 " fill-opacity="1" fill-rule="nonzero"/></g><path fill="#07b7d5" d="M 0.101562 57.472656 L 5.914062 57.472656 L 5.914062 86.867188 L 0.101562 86.867188 Z M 0.101562 57.472656 " fill-opacity="1" fill-rule="nonzero"/><path fill="#07b7d5" d="M 144.054688 57.472656 L 149.867188 57.472656 L 149.867188 86.867188 L 144.054688 86.867188 Z M 144.054688 57.472656 " fill-opacity="1" fill-rule="nonzero"/></svg>