<svg xmlns="http://www.w3.org/2000/svg" xmlns:xlink="http://www.w3.org/1999/xlink" width="579" zoomAndPan="magnify" viewBox="0 0 434.25 419.999985" height="560" preserveAspectRatio="xMidYMid meet" version="1.0"><defs><clipPath id="a7106fd556"><path d="M 208 253 L 307 253 L 307 419.636719 L 208 419.636719 Z M 208 253 " clip-rule="nonzero"/></clipPath><clipPath id="889cc084ad"><path d="M 384 0.363281 L 432.753906 0.363281 L 432.753906 49 L 384 49 Z M 384 0.363281 " clip-rule="nonzero"/></clipPath></defs><path fill="#e55639" d="M 123.382812 213.84375 C 121.816406 213.84375 120.28125 213.121094 119.285156 211.761719 C 96.949219 181.03125 59.347656 147.863281 7.101562 164.410156 C 4.765625 165.144531 2.234375 164.105469 1.097656 161.9375 C -0.0429688 159.769531 0.53125 157.097656 2.460938 155.589844 C 39 127.132812 75.046875 114.289062 109.621094 117.386719 C 138.941406 120.015625 159.980469 133.855469 169.914062 141.875 C 172.082031 143.636719 172.425781 146.816406 170.664062 148.992188 C 169.753906 150.125 168.464844 150.753906 167.121094 150.855469 L 161.195312 200.589844 L 161.117188 201.230469 L 160.476562 201.347656 L 128.191406 207.21875 C 128.847656 209.242188 128.171875 211.550781 126.351562 212.875 C 125.457031 213.535156 124.414062 213.84375 123.382812 213.84375 Z M 123.382812 213.84375 " fill-opacity="1" fill-rule="evenodd"/><g clip-path="url(#a7106fd556)"><path fill="#e55639" d="M 260.015625 419.558594 C 259.136719 419.558594 258.261719 419.332031 257.460938 418.867188 C 255.351562 417.628906 254.433594 415.066406 255.265625 412.769531 C 273.496094 362.609375 240.789062 325.214844 210.128906 302.683594 C 207.886719 301.019531 207.394531 297.859375 209.046875 295.605469 C 210.429688 293.726562 212.867188 293.078125 214.953125 293.886719 L 234.648438 256.898438 L 234.902344 256.433594 L 235.425781 256.433594 L 273.851562 256.71875 C 274.121094 255.734375 274.703125 254.816406 275.570312 254.132812 C 277.757812 252.386719 280.933594 252.75 282.679688 254.933594 C 292.359375 267.085938 304.265625 287.308594 305.960938 314.617188 C 308.054688 348.347656 293.886719 383.070312 263.84375 417.816406 C 262.855469 418.953125 261.449219 419.558594 260.015625 419.558594 Z M 260.015625 419.558594 " fill-opacity="1" fill-rule="evenodd"/></g><path fill="#faa940" d="M 27.878906 409.070312 C 22.195312 409.070312 16.34375 408.800781 10.320312 408.21875 C 7.859375 407.980469 5.9375 406.015625 5.75 403.554688 C 0.617188 333.058594 39.800781 287.8125 56.886719 271.632812 C 58.910156 269.707031 62.113281 269.800781 64.035156 271.824219 C 65.570312 273.445312 65.824219 275.8125 64.828125 277.6875 L 140.914062 353.78125 C 142.855469 352.792969 145.28125 353.148438 146.859375 354.800781 C 148.789062 356.824219 148.707031 360.027344 146.683594 361.960938 C 131.082031 376.804688 90.007812 409.070312 27.878906 409.070312 Z M 27.878906 409.070312 " fill-opacity="1" fill-rule="evenodd"/><g clip-path="url(#889cc084ad)"><path fill="#000000" d="M 389.554688 48.621094 C 388.253906 48.621094 386.957031 48.121094 385.96875 47.125 C 383.996094 45.152344 383.996094 41.949219 385.976562 39.976562 L 423.601562 2.421875 C 425.585938 0.449219 428.789062 0.449219 430.761719 2.429688 C 432.734375 4.402344 432.726562 7.609375 430.753906 9.582031 L 393.121094 47.136719 C 392.132812 48.121094 390.84375 48.621094 389.554688 48.621094 Z M 389.554688 48.621094 " fill-opacity="1" fill-rule="evenodd"/></g><path fill="#e6eeff" d="M 102.597656 254.695312 C 101.898438 254.695312 101.179688 254.554688 100.507812 254.242188 C 97.960938 253.078125 96.839844 250.082031 98 247.535156 C 122.769531 193.234375 153.480469 148.445312 189.273438 114.425781 C 218.019531 87.101562 250.082031 66.617188 284.570312 53.5625 C 342.265625 31.710938 386.628906 37.976562 390.195312 38.53125 C 390.574219 38.582031 390.953125 38.675781 391.308594 38.804688 L 391.359375 38.828125 L 391.417969 38.855469 L 391.476562 38.878906 L 391.585938 38.921875 L 391.59375 38.921875 L 391.644531 38.945312 L 391.703125 38.980469 L 391.753906 38.996094 L 391.863281 39.054688 L 391.929688 39.089844 L 391.964844 39.105469 L 391.972656 39.113281 L 392.074219 39.164062 L 392.140625 39.207031 L 392.175781 39.234375 C 392.53125 39.445312 392.851562 39.695312 393.128906 39.976562 L 393.195312 40.042969 L 393.222656 40.066406 L 393.28125 40.136719 L 393.296875 40.152344 L 393.355469 40.21875 L 393.382812 40.246094 L 393.515625 40.40625 L 393.535156 40.4375 L 393.59375 40.507812 C 393.660156 40.597656 393.734375 40.699219 393.804688 40.800781 L 393.820312 40.835938 L 393.863281 40.902344 C 393.972656 41.078125 394.066406 41.257812 394.148438 41.441406 L 394.175781 41.492188 L 394.199219 41.550781 L 394.292969 41.78125 L 394.316406 41.839844 L 394.335938 41.898438 L 394.367188 42.007812 L 394.394531 42.074219 L 394.410156 42.125 L 394.425781 42.203125 L 394.445312 42.242188 L 394.460938 42.328125 L 394.519531 42.574219 L 394.527344 42.605469 L 394.546875 42.699219 L 394.546875 42.734375 L 394.5625 42.835938 L 394.570312 42.902344 C 394.933594 45.492188 400.589844 89.371094 376.332031 145.773438 C 362.003906 179.066406 340.148438 209.789062 311.359375 237.097656 C 275.539062 271.074219 228.832031 299.796875 172.527344 322.484375 C 171.902344 322.738281 171.261719 322.855469 170.640625 322.855469 C 168.632812 322.855469 166.734375 321.65625 165.941406 319.683594 C 165.207031 317.855469 165.613281 315.847656 166.828125 314.457031 L 104.613281 254.285156 C 103.980469 254.554688 103.296875 254.695312 102.597656 254.695312 Z M 102.597656 254.695312 " fill-opacity="1" fill-rule="evenodd"/><path fill="#e55639" d="M 315.542969 43.980469 C 357.519531 33.859375 387.300781 38.078125 390.195312 38.53125 C 390.574219 38.582031 390.953125 38.675781 391.308594 38.804688 L 391.359375 38.828125 L 391.417969 38.855469 L 391.476562 38.878906 L 391.585938 38.921875 L 391.59375 38.921875 L 391.644531 38.945312 L 391.703125 38.980469 L 391.753906 38.996094 L 391.863281 39.054688 L 391.929688 39.089844 L 391.964844 39.105469 L 391.972656 39.113281 L 392.074219 39.164062 L 392.140625 39.207031 L 392.175781 39.234375 C 392.53125 39.445312 392.851562 39.695312 393.128906 39.976562 L 393.195312 40.042969 L 393.222656 40.066406 L 393.28125 40.136719 L 393.296875 40.152344 L 393.355469 40.21875 L 393.382812 40.246094 L 393.515625 40.40625 L 393.535156 40.4375 L 393.59375 40.507812 C 393.660156 40.597656 393.734375 40.699219 393.804688 40.800781 L 393.820312 40.835938 L 393.863281 40.902344 C 393.972656 41.078125 394.066406 41.257812 394.148438 41.441406 L 394.175781 41.492188 L 394.199219 41.550781 L 394.292969 41.78125 L 394.316406 41.839844 L 394.335938 41.898438 L 394.367188 42.007812 L 394.394531 42.074219 L 394.410156 42.125 L 394.425781 42.203125 L 394.445312 42.242188 L 394.460938 42.328125 L 394.519531 42.574219 L 394.527344 42.605469 L 394.546875 42.699219 L 394.546875 42.734375 L 394.5625 42.835938 L 394.570312 42.902344 C 394.867188 45.027344 398.71875 74.863281 386.753906 116.59375 C 382.722656 114.457031 377.359375 111.53125 376.136719 110.96875 C 363.3125 105.0625 351.757812 97 341.742188 86.957031 C 332.171875 77.367188 324.472656 66.449219 318.804688 54.429688 C 318.417969 53.613281 316.941406 48.652344 315.542969 43.980469 Z M 315.542969 43.980469 " fill-opacity="1" fill-rule="evenodd"/><path fill="#e55639" d="M 169.625 389.832031 C 168.292969 389.832031 167.003906 389.308594 166.042969 388.347656 L 30.347656 252.402344 C 29.152344 251.195312 28.636719 249.484375 28.972656 247.824219 C 29.3125 246.164062 30.449219 244.777344 32.019531 244.136719 L 80.269531 224.480469 C 82.15625 223.710938 84.316406 224.152344 85.757812 225.59375 L 194.644531 334.6875 C 196.148438 336.1875 196.542969 338.457031 195.65625 340.378906 L 174.222656 386.890625 C 173.53125 388.398438 172.140625 389.460938 170.511719 389.757812 C 170.21875 389.808594 169.921875 389.832031 169.625 389.832031 Z M 169.625 389.832031 " fill-opacity="1" fill-rule="evenodd"/><path fill="#cfd6e6" d="M 284.921875 193.03125 C 271.070312 193.03125 258.050781 187.625 248.257812 177.816406 C 238.484375 168.027344 233.113281 155.015625 233.132812 141.175781 C 233.148438 127.335938 238.546875 114.339844 248.335938 104.566406 C 258.117188 94.808594 271.109375 89.4375 284.921875 89.4375 C 298.777344 89.4375 311.796875 94.835938 321.585938 104.640625 C 341.757812 124.855469 341.722656 157.722656 321.511719 177.894531 C 311.730469 187.652344 298.734375 193.03125 284.921875 193.03125 Z M 284.921875 193.03125 " fill-opacity="1" fill-rule="evenodd"/><path fill="#e6eeff" d="M 284.921875 170.507812 C 277.089844 170.507812 269.738281 167.453125 264.203125 161.90625 C 252.804688 150.484375 252.820312 131.90625 264.246094 120.503906 C 269.769531 114.988281 277.113281 111.953125 284.921875 111.953125 C 292.757812 111.953125 300.109375 115.007812 305.640625 120.546875 C 311.164062 126.089844 314.199219 133.441406 314.191406 141.261719 C 314.183594 149.078125 311.132812 156.429688 305.601562 161.945312 C 300.078125 167.460938 292.730469 170.507812 284.921875 170.507812 Z M 284.921875 170.507812 " fill-opacity="1" fill-rule="evenodd"/><path fill="#cfd6e6" d="M 243.335938 238.152344 C 242.035156 238.152344 240.738281 237.652344 239.75 236.667969 L 189.402344 186.199219 C 187.425781 184.226562 187.425781 181.023438 189.410156 179.050781 C 191.382812 177.078125 194.585938 177.078125 196.558594 179.058594 L 246.910156 229.515625 C 248.882812 231.496094 248.882812 234.703125 246.910156 236.675781 C 245.914062 237.660156 244.625 238.152344 243.335938 238.152344 Z M 243.335938 238.152344 " fill-opacity="1" fill-rule="evenodd"/><path fill="#cfd6e6" d="M 217.785156 257.191406 C 216.484375 257.191406 215.195312 256.695312 214.199219 255.707031 L 170.308594 211.710938 C 168.335938 209.738281 168.335938 206.535156 170.316406 204.558594 C 172.292969 202.585938 175.496094 202.585938 177.46875 204.570312 L 221.367188 248.558594 C 223.339844 250.539062 223.332031 253.742188 221.359375 255.71875 C 220.375 256.695312 219.074219 257.191406 217.785156 257.191406 Z M 217.785156 257.191406 " fill-opacity="1" fill-rule="evenodd"/><path fill="#cfd6e6" d="M 190.859375 274.851562 C 189.5625 274.851562 188.261719 274.355469 187.277344 273.359375 L 152.601562 238.613281 C 150.621094 236.632812 150.628906 233.429688 152.601562 231.453125 C 154.582031 229.480469 157.789062 229.480469 159.761719 231.460938 L 194.433594 266.214844 C 196.410156 268.191406 196.410156 271.394531 194.425781 273.367188 C 193.441406 274.355469 192.148438 274.851562 190.859375 274.851562 Z M 190.859375 274.851562 " fill-opacity="1" fill-rule="evenodd"/></svg>