<svg xmlns="http://www.w3.org/2000/svg" xmlns:xlink="http://www.w3.org/1999/xlink" width="275" zoomAndPan="magnify" viewBox="0 0 206.25 231" height="308" preserveAspectRatio="xMidYMid meet" version="1.0"><defs><clipPath id="8091a2c170"><path d="M 0.0898438 0.417969 L 204.667969 0.417969 L 204.667969 229.835938 L 0.0898438 229.835938 Z M 0.0898438 0.417969 " clip-rule="nonzero"/></clipPath></defs><g clip-path="url(#8091a2c170)"><path fill="#000000" d="M 147.417969 136.929688 C 148.574219 141.082031 147.527344 147.429688 148.863281 151.402344 C 162.773438 151.804688 173.734375 149.265625 185.765625 147.78125 C 189.546875 142.882812 192.117188 136.777344 194.445312 130.417969 C 177.308594 131.128906 163.1875 134.859375 147.417969 136.929688 Z M 15.730469 92.070312 C 12.851562 94.070312 10.144531 94.929688 9.21875 97.859375 C 6.417969 106.765625 11.457031 121.527344 13.5625 131.140625 C 16.125 142.867188 18.726562 153.859375 20.796875 162.980469 C 37.851562 162.484375 54.246094 161.285156 72.890625 160.808594 C 78.003906 179.808594 79.253906 202.679688 85.191406 220.863281 C 106.882812 219.160156 135.28125 223.558594 138.734375 207.113281 C 127.367188 210.332031 107.8125 214.085938 95.320312 209.285156 C 93.253906 184.824219 89.070312 162.480469 85.191406 139.828125 C 65.128906 143.855469 44.742188 153.59375 24.414062 149.230469 C 19.445312 134.367188 17.355469 110.757812 15.730469 92.070312 Z M 59.867188 28.394531 C 60.917969 45.195312 62.425781 61.535156 66.382812 75.429688 C 71.28125 75.992188 74.074219 74.441406 78.679688 74.707031 C 77.660156 56.09375 74.839844 35.226562 71.445312 16.820312 C 68.464844 21.558594 63.042969 23.855469 59.867188 28.394531 Z M 78.679688 13.925781 C 79.746094 37.207031 83.4375 53.878906 85.191406 76.875 C 82.578125 76.675781 83.535156 80.046875 82.296875 81.214844 C 62.683594 82.644531 37.195312 81.859375 23.691406 87.003906 C 18.746094 106.085938 25.308594 125.707031 28.757812 142.71875 C 51.808594 146.0625 68.84375 135.816406 88.808594 131.867188 C 93.007812 155.402344 96.695312 179.457031 99.660156 204.222656 C 116.734375 207.105469 131.222656 201.683594 145.96875 199.882812 C 148.789062 175.96875 141.550781 152.28125 143.078125 129.691406 C 161.007812 127.609375 178.292969 124.878906 195.894531 122.457031 C 200.097656 106.457031 193.101562 86.5 195.167969 68.191406 C 174.796875 66.757812 156.464844 73.296875 135.839844 73.984375 C 130.585938 56.675781 130.515625 30.167969 125.710938 8.863281 C 110.839844 9.800781 93.289062 10.738281 78.679688 13.925781 Z M 130.777344 0.902344 C 137.429688 19.8125 135.851562 46.960938 142.351562 66.023438 C 160.976562 64.136719 179.3125 58.140625 199.507812 60.234375 C 203.695312 64.589844 201.699219 70.179688 201.679688 76.152344 C 201.632812 93.257812 206.5625 113.980469 203.855469 129.691406 C 201.886719 141.09375 193.984375 149.539062 189.378906 156.46875 C 177.480469 158.3125 165.574219 160.160156 151.753906 160.082031 C 152.132812 175 155.429688 189.714844 153.203125 204.945312 C 145.859375 210.417969 143.300781 223.109375 132.941406 226.648438 C 129.039062 227.984375 121.644531 228.292969 115.578125 228.820312 C 103.203125 229.898438 89.875 230.417969 80.128906 228.820312 C 74.277344 211.035156 70.332031 191.34375 67.828125 170.214844 C 52.160156 169.523438 32.96875 171.519531 16.457031 172.382812 C 9.921875 159.695312 5.996094 135.167969 2.707031 115.949219 C 1.488281 108.808594 -0.90625 100.199219 0.539062 94.964844 C 2.644531 87.316406 14.574219 85.863281 17.90625 78.324219 C 31.171875 78.085938 41.34375 74.753906 55.527344 75.429688 C 56.761719 67.132812 54.445312 58.898438 53.355469 50.101562 C 52.339844 41.898438 48.976562 31.257812 51.183594 24.054688 C 52.382812 20.160156 57.511719 18.714844 60.589844 16.097656 C 64.53125 12.746094 66.003906 8.339844 69.996094 5.246094 C 90.214844 4.226562 109.832031 -1.214844 130.777344 0.902344 " fill-opacity="1" fill-rule="evenodd"/></g><path fill="#ffce00" d="M 61.316406 113.777344 C 61.636719 115.871094 62.839844 117.074219 64.933594 117.394531 C 66.152344 114.996094 68.65625 113.886719 68.546875 110.160156 C 65.5625 108.832031 62.261719 110.9375 61.316406 113.777344 Z M 51.910156 113.777344 C 53.289062 114.085938 53.21875 115.84375 55.527344 115.222656 C 57.214844 113.050781 58.84375 110.824219 58.421875 106.542969 C 55.167969 105.226562 52.097656 109.683594 51.910156 113.777344 Z M 124.265625 102.925781 C 124.382812 106.945312 129.316406 109.503906 132.226562 106.542969 C 132.835938 104.542969 128.238281 100.207031 124.265625 102.925781 Z M 135.839844 97.859375 C 137.015625 101.265625 137.652344 105.207031 143.078125 104.371094 C 143.425781 99.738281 140.078125 95.558594 135.839844 97.859375 Z M 125.710938 8.863281 C 130.515625 30.164062 130.585938 56.675781 135.839844 73.984375 C 156.464844 73.296875 174.796875 66.757812 195.167969 68.191406 C 193.101562 86.5 200.097656 106.457031 195.894531 122.457031 C 178.292969 124.878906 161.007812 127.609375 143.078125 129.691406 C 141.550781 152.28125 148.789062 175.96875 145.96875 199.882812 C 131.222656 201.683594 116.734375 207.105469 99.660156 204.222656 C 96.695312 179.457031 93.007812 155.402344 88.808594 131.867188 C 68.84375 135.816406 51.808594 146.0625 28.757812 142.71875 C 25.308594 125.707031 18.746094 106.085938 23.691406 87.003906 C 37.195312 81.859375 62.683594 82.644531 82.296875 81.214844 C 83.535156 80.046875 82.578125 76.675781 85.191406 76.875 C 83.4375 53.878906 79.75 37.207031 78.679688 13.925781 C 93.289062 10.738281 110.839844 9.800781 125.710938 8.863281 " fill-opacity="1" fill-rule="evenodd"/><path fill="#bc9904" d="M 71.445312 16.820312 C 74.839844 35.226562 77.660156 56.09375 78.679688 74.703125 C 74.074219 74.441406 71.285156 75.992188 66.382812 75.429688 C 62.425781 61.535156 60.917969 45.195312 59.871094 28.394531 C 63.042969 23.851562 68.464844 21.558594 71.445312 16.820312 " fill-opacity="1" fill-rule="evenodd"/><path fill="#bc9904" d="M 24.414062 149.230469 C 44.742188 153.59375 65.128906 143.855469 85.191406 139.828125 C 89.070312 162.480469 93.253906 184.824219 95.320312 209.285156 C 107.8125 214.085938 127.367188 210.332031 138.734375 207.113281 C 135.28125 223.558594 106.882812 219.160156 85.191406 220.863281 C 79.253906 202.679688 78.003906 179.808594 72.890625 160.808594 C 54.246094 161.285156 37.851562 162.484375 20.796875 162.980469 C 18.726562 153.859375 16.125 142.867188 13.5625 131.140625 C 11.457031 121.527344 6.417969 106.765625 9.21875 97.859375 C 10.144531 94.929688 12.851562 94.070312 15.730469 92.074219 C 17.355469 110.757812 19.445312 134.367188 24.414062 149.230469 " fill-opacity="1" fill-rule="evenodd"/><path fill="#000000" d="M 143.078125 104.371094 C 137.652344 105.207031 137.015625 101.265625 135.839844 97.859375 C 140.078125 95.5625 143.421875 99.738281 143.078125 104.371094 " fill-opacity="1" fill-rule="evenodd"/><path fill="#000000" d="M 132.226562 106.542969 C 129.316406 109.503906 124.382812 106.945312 124.265625 102.925781 C 128.238281 100.207031 132.835938 104.542969 132.226562 106.542969 " fill-opacity="1" fill-rule="evenodd"/><path fill="#000000" d="M 58.421875 106.542969 C 58.84375 110.828125 57.214844 113.050781 55.527344 115.222656 C 53.21875 115.84375 53.289062 114.085938 51.910156 113.777344 C 52.097656 109.683594 55.167969 105.226562 58.421875 106.542969 " fill-opacity="1" fill-rule="evenodd"/><path fill="#000000" d="M 68.546875 110.160156 C 68.65625 113.886719 66.152344 114.996094 64.933594 117.394531 C 62.839844 117.074219 61.636719 115.871094 61.316406 113.777344 C 62.261719 110.9375 65.5625 108.832031 68.546875 110.160156 " fill-opacity="1" fill-rule="evenodd"/><path fill="#bc9904" d="M 194.445312 130.417969 C 192.117188 136.777344 189.546875 142.882812 185.765625 147.78125 C 173.734375 149.265625 162.773438 151.804688 148.863281 151.402344 C 147.527344 147.429688 148.578125 141.082031 147.414062 136.929688 C 163.191406 134.859375 177.308594 131.128906 194.445312 130.417969 " fill-opacity="1" fill-rule="evenodd"/></svg>