<svg width="153" height="65" viewBox="0 0 153 65" fill="none" xmlns="http://www.w3.org/2000/svg">
<path d="M41.7683 34.887L44.9735 52.058L27.8533 43.3709L10.9871 52.5568L13.952 33.5846L0 20.3854L16.3951 17.7575L18.9629 17.3419L27.2067 0L35.9585 17.0925L54.9999 19.5679L41.4497 33.1782L41.7683 34.887Z" fill="#F7C93F"/>
<path d="M38.1104 32.1485L40.7845 46.4653L27.7977 39.8796L15.0049 46.8487L17.254 32.4579L6.67798 22.4453L21.0595 20.1361L27.3081 6.98306L33.9493 19.9468L48.3909 21.8264L38.1104 32.1485Z" fill="#F7E33F"/>
<path opacity="0.2" d="M41.4498 33.1782L41.7685 34.887C40.7424 35.0395 39.7069 35.1197 38.6696 35.1272H38.471C33.3745 35.1345 28.4243 33.4245 24.419 30.2731C20.4137 27.1217 17.5871 22.7127 16.3953 17.7575L18.9631 17.3419L27.2068 0L35.9586 17.0879L55 19.5633L41.4498 33.1782Z" fill="white"/>
<path d="M139.768 34.887L142.973 52.058L125.853 43.3709L108.987 52.5568L111.952 33.5846L98 20.3854L114.395 17.7575L116.963 17.3419L125.207 0L133.958 17.0925L153 19.5679L139.45 33.1782L139.768 34.887Z" fill="#F7C93F"/>
<path d="M136.11 32.1485L138.784 46.4653L125.798 39.8796L113.005 46.8487L115.254 32.4579L104.678 22.4453L119.06 20.1361L125.308 6.98306L131.949 19.9468L146.391 21.8264L136.11 32.1485Z" fill="#F7E33F"/>
<path opacity="0.2" d="M139.45 33.1782L139.768 34.887C138.742 35.0395 137.707 35.1197 136.67 35.1272H136.471C131.375 35.1345 126.424 33.4245 122.419 30.2731C118.414 27.1217 115.587 22.7127 114.395 17.7575L116.963 17.3419L125.207 0L133.959 17.0879L153 19.5633L139.45 33.1782Z" fill="white"/>
<path d="M93.3626 43.2301L97.1505 63.5231L76.9175 53.2565L56.9847 64.1126L60.4888 41.6909L44 26.0918L63.3761 22.9862L66.4107 22.495L76.1534 2L86.4964 22.2002L109 25.1257L92.986 41.2106L93.3626 43.2301Z" fill="#F7C93F"/>
<path d="M89.0398 39.9936L92.2 56.9136L76.852 49.1304L61.7332 57.3666L64.3913 40.3593L51.8923 28.5263L68.8887 25.7972L76.2734 10.2527L84.1221 25.5735L101.189 27.7949L89.0398 39.9936Z" fill="#F7E33F"/>
<path opacity="0.2" d="M92.9861 41.2106L93.3627 43.2301C92.1501 43.4103 90.9263 43.5051 89.7004 43.5139H89.4657C83.4426 43.5226 77.5923 41.5017 72.8588 37.7773C68.1253 34.0529 64.7847 28.8422 63.3762 22.9862L66.4109 22.495L76.1535 2L86.4965 22.1948L109 25.1203L92.9861 41.2106Z" fill="white"/>
</svg>
